<svg width="30" height="30" viewBox="0 0 30 30" fill="none" xmlns="http://www.w3.org/2000/svg">
<g id="business">
<path id="Vector" d="M21.252 27.1875H8.75195C3.23945 27.1875 1.56445 25.5125 1.56445 20V10C1.56445 4.4875 3.23945 2.8125 8.75195 2.8125H21.252C26.7645 2.8125 28.4395 4.4875 28.4395 10V20C28.4395 25.5125 26.7645 27.1875 21.252 27.1875ZM8.75195 4.6875C4.27695 4.6875 3.43945 5.5375 3.43945 10V20C3.43945 24.4625 4.27695 25.3125 8.75195 25.3125H21.252C25.727 25.3125 26.5645 24.4625 26.5645 20V10C26.5645 5.5375 25.727 4.6875 21.252 4.6875H8.75195Z" fill="#292D32"/>
<path id="Vector_2" d="M23.748 10.9373H17.498C16.9855 10.9373 16.5605 10.5123 16.5605 9.99976C16.5605 9.48726 16.9855 9.06226 17.498 9.06226H23.748C24.2605 9.06226 24.6855 9.48726 24.6855 9.99976C24.6855 10.5123 24.2605 10.9373 23.748 10.9373Z" fill="#292D32"/>
<path id="Vector_3" d="M23.7461 15.9375H18.7461C18.2336 15.9375 17.8086 15.5125 17.8086 15C17.8086 14.4875 18.2336 14.0625 18.7461 14.0625H23.7461C24.2586 14.0625 24.6836 14.4875 24.6836 15C24.6836 15.5125 24.2586 15.9375 23.7461 15.9375Z" fill="#292D32"/>
<path id="Vector_4" d="M23.75 20.9375H21.25C20.7375 20.9375 20.3125 20.5125 20.3125 20C20.3125 19.4875 20.7375 19.0625 21.25 19.0625H23.75C24.2625 19.0625 24.6875 19.4875 24.6875 20C24.6875 20.5125 24.2625 20.9375 23.75 20.9375Z" fill="#292D32"/>
<path id="Vector_5" d="M10.6219 15.0501C8.85938 15.0501 7.42188 13.6126 7.42188 11.8501C7.42188 10.0876 8.85938 8.65015 10.6219 8.65015C12.3844 8.65015 13.8219 10.0876 13.8219 11.8501C13.8219 13.6126 12.3844 15.0501 10.6219 15.0501ZM10.6219 10.5251C9.89687 10.5251 9.29688 11.1251 9.29688 11.8501C9.29688 12.5751 9.89687 13.1751 10.6219 13.1751C11.3469 13.1751 11.9469 12.5751 11.9469 11.8501C11.9469 11.1251 11.3469 10.5251 10.6219 10.5251Z" fill="#292D32"/>
<path id="Vector_6" d="M15.0033 21.3502C14.5283 21.3502 14.1158 20.9877 14.0658 20.5002C13.9283 19.1502 12.8408 18.0627 11.4783 17.9377C10.9033 17.8877 10.3283 17.8877 9.7533 17.9377C8.3908 18.0627 7.3033 19.1377 7.1658 20.5002C7.1158 21.0127 6.6533 21.4002 6.1408 21.3377C5.6283 21.2877 5.2533 20.8252 5.3033 20.3127C5.5283 18.0627 7.3158 16.2752 9.5783 16.0752C10.2658 16.0127 10.9658 16.0127 11.6533 16.0752C13.9033 16.2877 15.7033 18.0752 15.9283 20.3127C15.9783 20.8252 15.6033 21.2877 15.0908 21.3377C15.0658 21.3502 15.0283 21.3502 15.0033 21.3502Z" fill="#292D32"/>
</g>
</svg>
