<svg width="25" height="24" viewBox="0 0 25 24" fill="none" xmlns="http://www.w3.org/2000/svg">
<g id="content">
<path id="Vector" d="M6.37202 19.5196C5.76202 19.5196 5.19202 19.3096 4.78202 18.9196C4.26202 18.4296 4.01202 17.6896 4.10202 16.8896L4.47202 13.6496C4.54202 13.0396 4.91202 12.2296 5.34202 11.7896L13.552 3.09956C15.602 0.929561 17.742 0.869561 19.912 2.91956C22.082 4.96956 22.142 7.10956 20.092 9.27956L11.882 17.9696C11.462 18.4196 10.682 18.8396 10.072 18.9396L6.85202 19.4896C6.68202 19.4996 6.53202 19.5196 6.37202 19.5196ZM16.762 2.90956C15.992 2.90956 15.322 3.38956 14.642 4.10956L6.43202 12.8096C6.23202 13.0196 6.00202 13.5196 5.96202 13.8096L5.59202 17.0496C5.55202 17.3796 5.63202 17.6496 5.81202 17.8196C5.99202 17.9896 6.26202 18.0496 6.59202 17.9996L9.81202 17.4496C10.102 17.3996 10.582 17.1396 10.782 16.9296L18.992 8.23956C20.232 6.91956 20.682 5.69956 18.872 3.99956C18.072 3.22956 17.382 2.90956 16.762 2.90956Z" fill="#1E1E1E"/>
<path id="Vector_2" d="M18.1725 10.9501C18.1525 10.9501 18.1225 10.9501 18.1025 10.9501C14.9825 10.6401 12.4725 8.27009 11.9925 5.17009C11.9325 4.76009 12.2125 4.38009 12.6225 4.31009C13.0325 4.25009 13.4125 4.53009 13.4825 4.94009C13.8625 7.36009 15.8225 9.22009 18.2625 9.46009C18.6725 9.50009 18.9725 9.87009 18.9325 10.2801C18.8825 10.6601 18.5525 10.9501 18.1725 10.9501Z" fill="#1E1E1E"/>
<path id="Vector_3" d="M21.832 22.7498H3.83203C3.42203 22.7498 3.08203 22.4098 3.08203 21.9998C3.08203 21.5898 3.42203 21.2498 3.83203 21.2498H21.832C22.242 21.2498 22.582 21.5898 22.582 21.9998C22.582 22.4098 22.242 22.7498 21.832 22.7498Z" fill="#1E1E1E"/>
</g>
</svg>
