<svg width="24" height="24" viewBox="0 0 24 24" fill="none" xmlns="http://www.w3.org/2000/svg">
<g id="grid">
<path id="Vector" d="M8.27195 22.7498H4.23195C2.22195 22.7498 1.25195 21.8198 1.25195 19.8998V4.09976C1.25195 2.17976 2.23195 1.24976 4.23195 1.24976H8.27195C10.282 1.24976 11.252 2.17976 11.252 4.09976V19.8998C11.252 21.8198 10.272 22.7498 8.27195 22.7498ZM4.23195 2.74976C2.96195 2.74976 2.75195 3.08976 2.75195 4.09976V19.8998C2.75195 20.9098 2.96195 21.2498 4.23195 21.2498H8.27195C9.54195 21.2498 9.75195 20.9098 9.75195 19.8998V4.09976C9.75195 3.08976 9.54195 2.74976 8.27195 2.74976H4.23195V2.74976Z" fill="#292D32"/>
<path id="Vector_2" d="M19.77 13.7498H15.73C13.72 13.7498 12.75 12.8198 12.75 10.8998V4.09976C12.75 2.17976 13.73 1.24976 15.73 1.24976H19.77C21.78 1.24976 22.75 2.17976 22.75 4.09976V10.8998C22.75 12.8198 21.77 13.7498 19.77 13.7498ZM15.73 2.74976C14.46 2.74976 14.25 3.08976 14.25 4.09976V10.8998C14.25 11.9098 14.46 12.2498 15.73 12.2498H19.77C21.04 12.2498 21.25 11.9098 21.25 10.8998V4.09976C21.25 3.08976 21.04 2.74976 19.77 2.74976H15.73V2.74976Z" fill="#292D32"/>
<path id="Vector_3" d="M19.77 22.7498H15.73C13.72 22.7498 12.75 21.8198 12.75 19.8998V18.0998C12.75 16.1798 13.73 15.2498 15.73 15.2498H19.77C21.78 15.2498 22.75 16.1798 22.75 18.0998V19.8998C22.75 21.8198 21.77 22.7498 19.77 22.7498ZM15.73 16.7498C14.46 16.7498 14.25 17.0898 14.25 18.0998V19.8998C14.25 20.9098 14.46 21.2498 15.73 21.2498H19.77C21.04 21.2498 21.25 20.9098 21.25 19.8998V18.0998C21.25 17.0898 21.04 16.7498 19.77 16.7498H15.73Z" fill="#292D32"/>
</g>
</svg>
