<svg width="24" height="24" viewBox="0 0 24 24" fill="none" xmlns="http://www.w3.org/2000/svg">
<g id="grid">
<path id="Vector" d="M10.998 19.9V4.1C10.998 2.6 10.358 2 8.76805 2H4.72805C3.13805 2 2.49805 2.6 2.49805 4.1V19.9C2.49805 21.4 3.13805 22 4.72805 22H8.76805C10.358 22 10.998 21.4 10.998 19.9Z" fill="#6161FF"/>
<path id="Vector_2" opacity="0.4" d="M21.502 10.9V4.1C21.502 2.6 20.862 2 19.272 2H15.232C13.642 2 13.002 2.6 13.002 4.1V10.9C13.002 12.4 13.642 13 15.232 13H19.272C20.862 13 21.502 12.4 21.502 10.9Z" fill="#6161FF"/>
<path id="Vector_3" opacity="0.4" d="M21.502 19.9V17.1C21.502 15.6 20.862 15 19.272 15H15.232C13.642 15 13.002 15.6 13.002 17.1V19.9C13.002 21.4 13.642 22 15.232 22H19.272C20.862 22 21.502 21.4 21.502 19.9Z" fill="#6161FF"/>
</g>
</svg>
