<svg width="32" height="32" viewBox="0 0 32 32" fill="none" xmlns="http://www.w3.org/2000/svg">
<g id="grid">
<path id="Vector" opacity="0.4" d="M29.3333 11.3608V5.30748C29.3333 3.42748 28.48 2.66748 26.36 2.66748H20.9733C18.8533 2.66748 18 3.42748 18 5.30748V11.3475C18 13.2408 18.8533 13.9875 20.9733 13.9875H26.36C28.48 14.0008 29.3333 13.2408 29.3333 11.3608Z" fill="#14B8A6"/>
<path id="Vector_2" d="M29.3333 26.36V20.9733C29.3333 18.8533 28.48 18 26.36 18H20.9733C18.8533 18 18 18.8533 18 20.9733V26.36C18 28.48 18.8533 29.3333 20.9733 29.3333H26.36C28.48 29.3333 29.3333 28.48 29.3333 26.36Z" fill="#14B8A6" fill-opacity="0.88"/>
<path id="Vector_3" d="M14.0013 11.3608V5.30748C14.0013 3.42748 13.148 2.66748 11.028 2.66748H5.6413C3.5213 2.66748 2.66797 3.42748 2.66797 5.30748V11.3475C2.66797 13.2408 3.5213 13.9875 5.6413 13.9875H11.028C13.148 14.0008 14.0013 13.2408 14.0013 11.3608Z" fill="#14B8A6" fill-opacity="0.88"/>
<path id="Vector_4" d="M14.0013 26.36V20.9733C14.0013 18.8533 13.148 18 11.028 18H5.6413C3.5213 18 2.66797 18.8533 2.66797 20.9733V26.36C2.66797 28.48 3.5213 29.3333 5.6413 29.3333H11.028C13.148 29.3333 14.0013 28.48 14.0013 26.36Z" fill="#14B8A6" fill-opacity="0.88"/>
</g>
</svg>
