<svg width="25" height="24" viewBox="0 0 25 24" fill="none" xmlns="http://www.w3.org/2000/svg">
<g id="essential">
<path id="Vector" d="M21.8317 6.73071C21.8117 6.73071 21.7817 6.73071 21.7517 6.73071C16.4617 6.20071 11.1817 6.00071 5.9517 6.53071L3.9117 6.73071C3.4917 6.77071 3.1217 6.47071 3.0817 6.05071C3.0417 5.63071 3.3417 5.27071 3.7517 5.23071L5.7917 5.03071C11.1117 4.49071 16.5017 4.70071 21.9017 5.23071C22.3117 5.27071 22.6117 5.64071 22.5717 6.05071C22.5417 6.44071 22.2117 6.73071 21.8317 6.73071Z" fill="#9F9F9F"/>
<path id="Vector_2" d="M9.33082 5.71976C9.29082 5.71976 9.25082 5.71976 9.20082 5.70976C8.80082 5.63976 8.52082 5.24976 8.59082 4.84976L8.81082 3.53976C8.97082 2.57976 9.19082 1.24976 11.5208 1.24976H14.1408C16.4808 1.24976 16.7008 2.62976 16.8508 3.54976L17.0708 4.84976C17.1408 5.25976 16.8608 5.64976 16.4608 5.70976C16.0508 5.77976 15.6608 5.49976 15.6008 5.09976L15.3808 3.79976C15.2408 2.92976 15.2108 2.75976 14.1508 2.75976H11.5308C10.4708 2.75976 10.4508 2.89976 10.3008 3.78976L10.0708 5.08976C10.0108 5.45976 9.69082 5.71976 9.33082 5.71976Z" fill="#9F9F9F"/>
<path id="Vector_3" d="M16.0424 22.7496H9.62242C6.13242 22.7496 5.99242 20.8196 5.88242 19.2596L5.23242 9.18959C5.20242 8.77959 5.52242 8.41959 5.93242 8.38959C6.35242 8.36959 6.70242 8.67959 6.73242 9.08959L7.38242 19.1596C7.49242 20.6796 7.53242 21.2496 9.62242 21.2496H16.0424C18.1424 21.2496 18.1824 20.6796 18.2824 19.1596L18.9324 9.08959C18.9624 8.67959 19.3224 8.36959 19.7324 8.38959C20.1424 8.41959 20.4624 8.76959 20.4324 9.18959L19.7824 19.2596C19.6724 20.8196 19.5324 22.7496 16.0424 22.7496Z" fill="#9F9F9F"/>
<path id="Vector_4" d="M14.4921 17.2498H11.1621C10.7521 17.2498 10.4121 16.9098 10.4121 16.4998C10.4121 16.0898 10.7521 15.7498 11.1621 15.7498H14.4921C14.9021 15.7498 15.2421 16.0898 15.2421 16.4998C15.2421 16.9098 14.9021 17.2498 14.4921 17.2498Z" fill="#9F9F9F"/>
<path id="Vector_5" d="M15.332 13.25H10.332C9.92203 13.25 9.58203 12.91 9.58203 12.5C9.58203 12.09 9.92203 11.75 10.332 11.75H15.332C15.742 11.75 16.082 12.09 16.082 12.5C16.082 12.91 15.742 13.25 15.332 13.25Z" fill="#9F9F9F"/>
</g>
</svg>
