<svg width="24" height="24" viewBox="0 0 24 24" fill="none" xmlns="http://www.w3.org/2000/svg">
<g id="user">
<path id="Vector" d="M18.0003 7.9099C17.9703 7.9099 17.9503 7.9099 17.9203 7.9099H17.8703C15.9803 7.8499 14.5703 6.38989 14.5703 4.58989C14.5703 2.74989 16.0703 1.25989 17.9003 1.25989C19.7303 1.25989 21.2303 2.75989 21.2303 4.58989C21.2203 6.39989 19.8103 7.85989 18.0103 7.91989C18.0103 7.90989 18.0103 7.9099 18.0003 7.9099ZM17.9003 2.74989C16.8903 2.74989 16.0703 3.5699 16.0703 4.5799C16.0703 5.5699 16.8403 6.3699 17.8303 6.4099C17.8403 6.3999 17.9203 6.3999 18.0103 6.4099C18.9803 6.3599 19.7303 5.5599 19.7403 4.5799C19.7403 3.5699 18.9203 2.74989 17.9003 2.74989Z" fill="#292D32"/>
<path id="Vector_2" d="M18.0124 15.28C17.6224 15.28 17.2324 15.25 16.8424 15.18C16.4324 15.11 16.1624 14.72 16.2324 14.31C16.3024 13.9 16.6924 13.63 17.1024 13.7C18.3324 13.91 19.6324 13.68 20.5024 13.1C20.9724 12.79 21.2224 12.4 21.2224 12.01C21.2224 11.62 20.9624 11.24 20.5024 10.93C19.6324 10.35 18.3124 10.12 17.0724 10.34C16.6624 10.42 16.2724 10.14 16.2024 9.73002C16.1324 9.32002 16.4024 8.93003 16.8124 8.86003C18.4424 8.57003 20.1324 8.88002 21.3324 9.68002C22.2124 10.27 22.7224 11.11 22.7224 12.01C22.7224 12.9 22.2224 13.75 21.3324 14.35C20.4224 14.95 19.2424 15.28 18.0124 15.28Z" fill="#292D32"/>
<path id="Vector_3" d="M5.96852 7.91013C5.95852 7.91013 5.94852 7.91013 5.94852 7.91013C4.14852 7.85013 2.73852 6.39012 2.72852 4.59012C2.72852 2.75012 4.22852 1.25012 6.05852 1.25012C7.88852 1.25012 9.38852 2.75012 9.38852 4.58012C9.38852 6.39012 7.97852 7.85013 6.17852 7.91013L5.96852 7.16013L6.03852 7.91013C6.01852 7.91013 5.98852 7.91013 5.96852 7.91013ZM6.06852 6.41013C6.12852 6.41013 6.17852 6.41012 6.23852 6.42012C7.12852 6.38012 7.90852 5.58012 7.90852 4.59012C7.90852 3.58012 7.08852 2.76012 6.07852 2.76012C5.06852 2.76012 4.24852 3.58012 4.24852 4.59012C4.24852 5.57012 5.00852 6.36012 5.97852 6.42012C5.98852 6.41012 6.02852 6.41013 6.06852 6.41013Z" fill="#292D32"/>
<path id="Vector_4" d="M5.96195 15.28C4.73195 15.28 3.55195 14.95 2.64195 14.35C1.76195 13.76 1.25195 12.91 1.25195 12.01C1.25195 11.12 1.76195 10.27 2.64195 9.68002C3.84195 8.88002 5.53195 8.57003 7.16195 8.86003C7.57195 8.93003 7.84195 9.32002 7.77195 9.73002C7.70195 10.14 7.31196 10.42 6.90196 10.34C5.66196 10.12 4.35195 10.35 3.47195 10.93C3.00195 11.24 2.75195 11.62 2.75195 12.01C2.75195 12.4 3.01195 12.79 3.47195 13.1C4.34195 13.68 5.64195 13.91 6.87195 13.7C7.28195 13.63 7.67196 13.91 7.74196 14.31C7.81196 14.72 7.54195 15.11 7.13195 15.18C6.74195 15.25 6.35195 15.28 5.96195 15.28Z" fill="#292D32"/>
<path id="Vector_5" d="M11.9984 15.3801C11.9684 15.3801 11.9484 15.3801 11.9184 15.3801H11.8684C9.97836 15.3201 8.56836 13.8601 8.56836 12.0601C8.56836 10.2201 10.0684 8.7301 11.8984 8.7301C13.7284 8.7301 15.2284 10.2301 15.2284 12.0601C15.2184 13.8701 13.8084 15.3301 12.0084 15.3901C12.0084 15.3801 12.0084 15.3801 11.9984 15.3801ZM11.8984 10.2201C10.8884 10.2201 10.0684 11.0401 10.0684 12.0501C10.0684 13.0401 10.8384 13.8401 11.8284 13.8801C11.8384 13.8701 11.9184 13.8701 12.0084 13.8801C12.9784 13.8301 13.7284 13.0301 13.7384 12.0501C13.7384 11.0501 12.9184 10.2201 11.8984 10.2201Z" fill="#292D32"/>
<path id="Vector_6" d="M11.9993 22.7598C10.7993 22.7598 9.5993 22.4499 8.6693 21.8199C7.7893 21.2299 7.2793 20.3899 7.2793 19.4899C7.2793 18.5999 7.7793 17.7398 8.6693 17.1498C10.5393 15.9098 13.4693 15.9098 15.3293 17.1498C16.2093 17.7398 16.7193 18.5799 16.7193 19.4799C16.7193 20.3699 16.2193 21.2299 15.3293 21.8199C14.3993 22.4399 13.1993 22.7598 11.9993 22.7598ZM9.4993 18.4099C9.0293 18.7199 8.7793 19.1099 8.7793 19.4999C8.7793 19.8899 9.0393 20.2699 9.4993 20.5799C10.8493 21.4899 13.1393 21.4899 14.4893 20.5799C14.9593 20.2699 15.2093 19.8799 15.2093 19.4899C15.2093 19.0999 14.9493 18.7199 14.4893 18.4099C13.1493 17.4999 10.8593 17.5099 9.4993 18.4099Z" fill="#292D32"/>
</g>
</svg>
