<svg width="32" height="32" viewBox="0 0 32 32" fill="none" xmlns="http://www.w3.org/2000/svg">
<g id="user">
<path id="Vector" opacity="0.4" d="M23.3734 10.3608C23.28 10.3475 23.1867 10.3475 23.0934 10.3608C21.0267 10.2942 19.3867 8.60081 19.3867 6.52081C19.3867 4.40081 21.1067 2.66748 23.2401 2.66748C25.3601 2.66748 27.0934 4.38748 27.0934 6.52081C27.08 8.60081 25.44 10.2942 23.3734 10.3608Z" fill="#6AA2F3"/>
<path id="Vector_2" opacity="0.4" d="M27.7195 19.5995C26.2261 20.5995 24.1328 20.9729 22.1995 20.7195C22.7061 19.6262 22.9728 18.4129 22.9862 17.1329C22.9862 15.7996 22.6928 14.5329 22.1328 13.4262C24.1061 13.1596 26.1995 13.5329 27.7061 14.5329C29.8128 15.9195 29.8128 18.1995 27.7195 19.5995Z" fill="#6AA2F3"/>
<path id="Vector_3" opacity="0.4" d="M8.58718 10.3608C8.68052 10.3475 8.77385 10.3475 8.86719 10.3608C10.9339 10.2942 12.5739 8.60081 12.5739 6.52081C12.5739 4.40081 10.8539 2.66748 8.72052 2.66748C6.60052 2.66748 4.86719 4.38748 4.86719 6.52081C4.88052 8.60081 6.52052 10.2942 8.58718 10.3608Z" fill="#6AA2F3"/>
<path id="Vector_4" opacity="0.4" d="M8.73349 17.1332C8.73349 18.4265 9.01349 19.6532 9.52015 20.7598C7.64016 20.9598 5.68016 20.5598 4.24016 19.6132C2.13349 18.2132 2.13349 15.9331 4.24016 14.5331C5.66682 13.5731 7.68016 13.1865 9.57349 13.3998C9.02682 14.5198 8.73349 15.7865 8.73349 17.1332Z" fill="#6AA2F3"/>
<path id="Vector_5" d="M16.1623 21.1595C16.0557 21.1462 15.9357 21.1462 15.8157 21.1595C13.3623 21.0795 11.4023 19.0662 11.4023 16.5862C11.4023 14.0528 13.4423 11.9995 15.989 11.9995C18.5223 11.9995 20.5757 14.0528 20.5757 16.5862C20.5757 19.0662 18.629 21.0795 16.1623 21.1595Z" fill="#6AA2F3"/>
<path id="Vector_6" d="M11.8264 23.9205C9.81307 25.2672 9.81307 27.4805 11.8264 28.8138C14.1197 30.3472 17.8797 30.3472 20.1731 28.8138C22.1864 27.4672 22.1864 25.2538 20.1731 23.9205C17.8931 22.3872 14.1331 22.3872 11.8264 23.9205Z" fill="#6AA2F3"/>
</g>
</svg>
