<svg width="26" height="26" viewBox="0 0 26 26" fill="none" xmlns="http://www.w3.org/2000/svg">
<g id="essential">
<path id="Vector" d="M10.5033 17.5868C9.32733 17.5868 8.40332 16.6418 8.40332 15.4867C8.40332 14.3317 9.34833 13.3867 10.5033 13.3867C11.6584 13.3867 12.6034 14.3317 12.6034 15.4867C12.6034 16.6418 11.6794 17.5868 10.5033 17.5868Z" fill="#5B5B5B"/>
<path id="Vector_2" d="M18.8998 17.5868C17.7238 17.5868 16.7998 16.6418 16.7998 15.4867C16.7998 14.3317 17.7448 13.3867 18.8998 13.3867C20.0548 13.3867 20.9999 14.3317 20.9999 15.4867C20.9999 16.6418 20.0758 17.5868 18.8998 17.5868Z" fill="#5B5B5B"/>
<path id="Vector_3" d="M2.10003 17.5868C0.924012 17.5868 0 16.6418 0 15.4867C0 14.3317 0.945012 13.3867 2.10003 13.3867C3.25504 13.3867 4.20005 14.3317 4.20005 15.4867C4.20005 16.6418 3.27604 17.5868 2.10003 17.5868Z" fill="#5B5B5B"/>
</g>
</svg>
