<svg width="21" height="22" viewBox="0 0 21 22" fill="none" xmlns="http://www.w3.org/2000/svg">
<g id="arrow">
<path id="Vector" d="M9.43471 14.6789C9.27457 14.6789 9.11443 14.6199 8.988 14.4935C8.74358 14.249 8.74358 13.8445 8.988 13.6001L11.5165 11.0715L8.988 8.54303C8.74358 8.29861 8.74358 7.89405 8.988 7.64963C9.23243 7.4052 9.63699 7.4052 9.88141 7.64963L12.8566 10.6248C13.1011 10.8693 13.1011 11.2738 12.8566 11.5183L9.88141 14.4935C9.75499 14.6199 9.59485 14.6789 9.43471 14.6789Z" fill="#6161FF"/>
<path id="Vector (Stroke)" fill-rule="evenodd" clip-rule="evenodd" d="M9.43451 14.8787C9.22419 14.8787 9.0123 14.8006 8.84639 14.6347C8.52386 14.3122 8.52386 13.781 8.84639 13.4584L11.2335 11.0714L8.84639 8.68426C8.52386 8.36173 8.52386 7.83054 8.84639 7.50801C9.16892 7.18548 9.70011 7.18548 10.0226 7.50801L12.9979 10.4832C13.3204 10.8058 13.3204 11.3369 12.9979 11.6595L10.0226 14.6347C9.85673 14.8006 9.64483 14.8787 9.43451 14.8787ZM8.98781 8.54284C8.74339 8.29842 8.74339 7.89385 8.98781 7.64943C9.23223 7.40501 9.63679 7.40501 9.88122 7.64943L12.8564 10.6246C13.1009 10.8691 13.1009 11.2736 12.8564 11.5181L9.88122 14.4933C9.75479 14.6197 9.59465 14.6787 9.43451 14.6787C9.27437 14.6787 9.11424 14.6197 8.98781 14.4933C8.74339 14.2488 8.74339 13.8443 8.98781 13.5999L11.5163 11.0714L8.98781 8.54284Z" fill="#6161FF"/>
<path id="Vector_2" d="M10.5 3C4 3 2 5 2 11.5C2 18 4 20 10.5 20C17 20 19 18 19 11.5C19 5 17 3 10.5 3Z" stroke="#6161FF" stroke-width="1.6" stroke-linecap="round" stroke-linejoin="round"/>
</g>
</svg>
