<svg width="26" height="26" viewBox="0 0 26 26" fill="none" xmlns="http://www.w3.org/2000/svg">
<g id="business">
<g id="chart">
<path id="Vector" d="M13.5 2C4.70588 2 2 4.70588 2 13.5C2 22.2941 4.70588 25 13.5 25C22.2941 25 25 22.2941 25 13.5C25 4.70588 22.2941 2 13.5 2Z" stroke="#292D32" stroke-width="1.6" stroke-linecap="round" stroke-linejoin="round"/>
<path id="Vector_2" d="M7.85938 15.8807C7.43229 15.8807 7.07812 15.5265 7.07812 15.0994V11.7661C7.07812 11.339 7.43229 10.9849 7.85938 10.9849C8.28646 10.9849 8.64062 11.339 8.64062 11.7661V15.1099C8.64062 15.5369 8.28646 15.8807 7.85938 15.8807Z" fill="#292D32"/>
<path id="Vector_3" d="M13.0674 17.6917C12.6403 17.6917 12.2861 17.3376 12.2861 16.9105V9.95215C12.2861 9.52507 12.6403 9.1709 13.0674 9.1709C13.4945 9.1709 13.8486 9.52507 13.8486 9.95215V16.9105C13.8486 17.3376 13.4945 17.6917 13.0674 17.6917Z" fill="#292D32"/>
<path id="Vector_4" d="M18.2759 15.8807C17.8488 15.8807 17.4946 15.5265 17.4946 15.0994V11.7661C17.4946 11.339 17.8488 10.9849 18.2759 10.9849C18.703 10.9849 19.0571 11.339 19.0571 11.7661V15.1099C19.0571 15.5369 18.703 15.8807 18.2759 15.8807Z" fill="#292D32"/>
</g>
</g>
</svg>
