<svg width="21" height="20" viewBox="0 0 21 20" fill="none" xmlns="http://www.w3.org/2000/svg">
<g id="download 8">
<g id="vertical-slider-square--adjustment-adjust-controls-fader-vertical-settings-slider-square">
<g id="Group 1000001567">
<g id="Group 1000001566">
<path id="Vector" d="M5.18359 16.3016V10" stroke="#6161FF" stroke-width="2.10054" stroke-linecap="round" stroke-linejoin="round"/>
<path id="Vector_4" d="M5.18402 8.9496C4.36908 8.9496 3.88071 8.72365 3.59507 8.438C3.30943 8.15236 3.08347 7.66399 3.08347 6.84905C3.08347 6.03412 3.30943 5.54575 3.59507 5.26011C3.88071 4.97446 4.36908 4.74851 5.18402 4.74851C5.99895 4.74851 6.48732 4.97446 6.77296 5.26011C7.05861 5.54575 7.28456 6.03412 7.28456 6.84905C7.28456 7.66399 7.05861 8.15236 6.77296 8.438C6.48732 8.72365 5.99895 8.9496 5.18402 8.9496Z" fill="#B2D1F6" stroke="white" stroke-width="2.10054"/>
</g>
<path id="Vector_6" d="M2.0332 6.84905C2.0332 8.86557 3.1675 9.99987 5.18402 9.99987C7.20054 9.99987 8.33483 8.86557 8.33483 6.84905C8.33483 4.83253 7.20054 3.69824 5.18402 3.69824C3.1675 3.69824 2.0332 4.83253 2.0332 6.84905Z" stroke="#6161FF" stroke-width="1.47038" stroke-linecap="round" stroke-linejoin="round"/>
</g>
<g id="Group 1000001568">
<g id="Group 1000001566_2">
<path id="Vector_2" d="M15.1514 4.00013L15.1514 10.3018" stroke="#6161FF" stroke-width="2.10054" stroke-linecap="round" stroke-linejoin="round"/>
<path id="Vector_4_2" d="M15.1509 11.3522C15.9659 11.3522 16.4543 11.5781 16.7399 11.8638C17.0255 12.1494 17.2515 12.6378 17.2515 13.4527C17.2515 14.2676 17.0255 14.756 16.7399 15.0417C16.4543 15.3273 15.9659 15.5532 15.1509 15.5532C14.336 15.5532 13.8476 15.3273 13.562 15.0417C13.2764 14.756 13.0504 14.2676 13.0504 13.4527C13.0504 12.6378 13.2764 12.1494 13.562 11.8638C13.8476 11.5781 14.336 11.3522 15.1509 11.3522Z" fill="#B2D1F6" stroke="white" stroke-width="2.10054"/>
</g>
<path id="Vector_6_2" d="M18.3018 13.4527C18.3018 11.4362 17.1675 10.3019 15.1509 10.3019C13.1344 10.3019 12.0001 11.4362 12.0001 13.4527C12.0001 15.4692 13.1344 16.6035 15.1509 16.6035C17.1675 16.6035 18.3018 15.4692 18.3018 13.4527Z" stroke="#6161FF" stroke-width="1.47038" stroke-linecap="round" stroke-linejoin="round"/>
</g>
</g>
</g>
</svg>
