<svg width="130" height="141" viewBox="0 0 130 141" fill="none" xmlns="http://www.w3.org/2000/svg">
<g id="empty-my-list.cc116cd4a341ddefc48f362f13a37bf2 1">
<g id="Group" filter="url(#filter0_d_682_4149)">
<path id="Vector" d="M37.9854 36.1842C37.9854 34.4646 38.6684 32.8155 39.8843 31.5997C41.1002 30.3838 42.7493 29.7007 44.4688 29.7007H85.5309C87.2505 29.7007 88.8996 30.3838 90.1155 31.5997C91.3313 32.8155 92.0144 34.4646 92.0144 36.1842V93.455C92.0144 95.1745 91.3313 96.8236 90.1155 98.0395C88.8996 99.2554 87.2505 99.9385 85.5309 99.9385H44.4688C42.7493 99.9385 41.1002 99.2554 39.8843 98.0395C38.6684 96.8236 37.9854 95.1745 37.9854 93.455V36.1842Z" fill="url(#paint0_linear_682_4149)"/>
<path id="Vector_2" fill-rule="evenodd" clip-rule="evenodd" d="M85.5309 31.8618H44.4688C43.3225 31.8618 42.2231 32.3172 41.4125 33.1278C40.6019 33.9384 40.1465 35.0378 40.1465 36.1842V93.455C40.1465 94.6013 40.6019 95.7007 41.4125 96.5113C42.2231 97.3219 43.3225 97.7773 44.4688 97.7773H85.5309C86.6773 97.7773 87.7767 97.3219 88.5873 96.5113C89.3979 95.7007 89.8533 94.6013 89.8533 93.455V36.1842C89.8533 35.0378 89.3979 33.9384 88.5873 33.1278C87.7767 32.3172 86.6773 31.8618 85.5309 31.8618ZM44.4688 29.7007C42.7493 29.7007 41.1002 30.3838 39.8843 31.5997C38.6684 32.8155 37.9854 34.4646 37.9854 36.1842V93.455C37.9854 95.1745 38.6684 96.8236 39.8843 98.0395C41.1002 99.2554 42.7493 99.9385 44.4688 99.9385H85.5309C86.3824 99.9385 87.2254 99.7708 88.0121 99.445C88.7987 99.1191 89.5134 98.6415 90.1155 98.0395C90.7175 97.4375 91.1951 96.7227 91.5209 95.9361C91.8467 95.1495 92.0144 94.3064 92.0144 93.455V36.1842C92.0144 35.3327 91.8467 34.4897 91.5209 33.703C91.1951 32.9164 90.7175 32.2017 90.1155 31.5997C89.5134 30.9976 88.7987 30.52 88.0121 30.1942C87.2254 29.8684 86.3824 29.7007 85.5309 29.7007H44.4688Z" fill="white"/>
<path id="Vector_3" fill-rule="evenodd" clip-rule="evenodd" d="M85.5309 30.7813H44.4688C43.0359 30.7813 41.6616 31.3505 40.6484 32.3637C39.6352 33.377 39.0659 34.7512 39.0659 36.1842V93.455C39.0659 94.8879 39.6352 96.2622 40.6484 97.2754C41.6616 98.2887 43.0359 98.8579 44.4688 98.8579H85.5309C86.9639 98.8579 88.3381 98.2887 89.3514 97.2754C90.3646 96.2622 90.9338 94.8879 90.9338 93.455V36.1842C90.9338 34.7512 90.3646 33.377 89.3514 32.3637C88.3381 31.3505 86.9639 30.7813 85.5309 30.7813ZM44.4688 29.7007C42.7493 29.7007 41.1002 30.3838 39.8843 31.5997C38.6684 32.8155 37.9854 34.4646 37.9854 36.1842V93.455C37.9854 95.1745 38.6684 96.8236 39.8843 98.0395C41.1002 99.2554 42.7493 99.9385 44.4688 99.9385H85.5309C86.3824 99.9385 87.2254 99.7708 88.0121 99.445C88.7987 99.1191 89.5134 98.6415 90.1155 98.0395C90.7175 97.4375 91.1951 96.7227 91.5209 95.9361C91.8467 95.1495 92.0144 94.3064 92.0144 93.455V36.1842C92.0144 35.3327 91.8467 34.4897 91.5209 33.703C91.1951 32.9164 90.7175 32.2017 90.1155 31.5997C89.5134 30.9976 88.7987 30.52 88.0121 30.1942C87.2254 29.8684 86.3824 29.7007 85.5309 29.7007H44.4688Z" fill="url(#paint1_linear_682_4149)"/>
<path id="Vector_4" fill-rule="evenodd" clip-rule="evenodd" d="M50.7131 72.9232C49.6506 72.9232 48.7915 73.784 48.7915 74.8448V79.6462C48.7915 80.7088 49.6524 81.5678 50.7131 81.5678H55.5145C56.5771 81.5678 57.4362 80.707 57.4362 79.6462V74.8448C57.4362 73.7822 56.5753 72.9232 55.5145 72.9232H50.7131ZM54.7707 75.2933C54.8414 75.2208 54.9258 75.1632 55.0191 75.1238C55.1123 75.0845 55.2125 75.0642 55.3137 75.0642C55.4149 75.0642 55.5151 75.0845 55.6084 75.1238C55.7016 75.1632 55.7861 75.2208 55.8567 75.2933C56.0004 75.44 56.0808 75.6372 56.0808 75.8426C56.0808 76.0479 56.0004 76.2451 55.8567 76.3918L53.1066 79.1978C53.036 79.2702 52.9515 79.3278 52.8583 79.3672C52.765 79.4065 52.6648 79.4268 52.5636 79.4268C52.4624 79.4268 52.3622 79.4065 52.269 79.3672C52.1757 79.3278 52.0913 79.2702 52.0206 79.1978L50.3692 77.5139C50.2255 77.3671 50.145 77.1699 50.145 76.9646C50.145 76.7592 50.2255 76.562 50.3692 76.4153C50.4398 76.3425 50.5244 76.2847 50.6178 76.2452C50.7112 76.2057 50.8116 76.1853 50.913 76.1853C51.0145 76.1853 51.1149 76.2057 51.2083 76.2452C51.3017 76.2847 51.3863 76.3425 51.4569 76.4153L52.5627 77.5463L54.7707 75.2933ZM50.7131 61.0368C49.6506 61.0368 48.7915 61.8976 48.7915 62.9584V67.7598C48.7915 68.8224 49.6524 69.6814 50.7131 69.6814H55.5145C56.5771 69.6814 57.4362 68.8206 57.4362 67.7598V62.9584C57.4362 61.8958 56.5753 61.0368 55.5145 61.0368H50.7131ZM54.7707 63.4069C54.8414 63.3344 54.9258 63.2768 55.0191 63.2374C55.1123 63.1981 55.2125 63.1778 55.3137 63.1778C55.4149 63.1778 55.5151 63.1981 55.6084 63.2374C55.7016 63.2768 55.7861 63.3344 55.8567 63.4069C56.0004 63.5536 56.0808 63.7508 56.0808 63.9562C56.0808 64.1615 56.0004 64.3587 55.8567 64.5055L53.1066 67.3114C53.036 67.3838 52.9515 67.4415 52.8583 67.4808C52.765 67.5201 52.6648 67.5404 52.5636 67.5404C52.4624 67.5404 52.3622 67.5201 52.269 67.4808C52.1757 67.4415 52.0913 67.3838 52.0206 67.3114L50.3692 65.6257C50.2266 65.4791 50.1468 65.2827 50.1468 65.0782C50.1468 64.8737 50.2266 64.6773 50.3692 64.5307C50.4398 64.4579 50.5244 64.4001 50.6178 64.3606C50.7112 64.3211 50.8116 64.3007 50.913 64.3007C51.0145 64.3007 51.1149 64.3211 51.2083 64.3606C51.3017 64.4001 51.3863 64.4579 51.4569 64.5307L52.5627 65.6599L54.7707 63.4069ZM50.7131 49.1504C49.6506 49.1504 48.7915 50.0113 48.7915 51.072V55.8734C48.7915 56.936 49.6524 57.795 50.7131 57.795H55.5145C56.5771 57.795 57.4362 56.9342 57.4362 55.8734V51.072C57.4362 50.0095 56.5753 49.1504 55.5145 49.1504H50.7131ZM54.7707 51.5205C54.8414 51.448 54.9258 51.3904 55.0191 51.351C55.1123 51.3117 55.2125 51.2914 55.3137 51.2914C55.4149 51.2914 55.5151 51.3117 55.6084 51.351C55.7016 51.3904 55.7861 51.448 55.8567 51.5205C56.0004 51.6672 56.0808 51.8644 56.0808 52.0698C56.0808 52.2751 56.0004 52.4723 55.8567 52.6191L53.1066 55.425C53.036 55.4974 52.9515 55.5551 52.8583 55.5944C52.765 55.6337 52.6648 55.654 52.5636 55.654C52.4624 55.654 52.3622 55.6337 52.269 55.5944C52.1757 55.5551 52.0913 55.4974 52.0206 55.425L50.3692 53.7393C50.2266 53.5927 50.1468 53.3963 50.1468 53.1918C50.1468 52.9873 50.2266 52.7909 50.3692 52.6443C50.4398 52.5715 50.5244 52.5137 50.6178 52.4742C50.7112 52.4347 50.8116 52.4143 50.913 52.4143C51.0145 52.4143 51.1149 52.4347 51.2083 52.4742C51.3017 52.5137 51.3863 52.5715 51.4569 52.6443L52.5627 53.7735L54.7707 51.5205Z" fill="#BDBEC2"/>
<path id="Vector_5" d="M60.6768 76.4896C60.6768 75.7151 61.3071 75.0848 62.0815 75.0848H79.8031C80.5775 75.0848 81.2078 75.7151 81.2078 76.4896V78.0024C81.2078 78.7768 80.5775 79.4071 79.8031 79.4071H62.0815C61.709 79.4071 61.3516 79.2591 61.0882 78.9957C60.8248 78.7322 60.6768 78.3749 60.6768 78.0024V76.4896ZM60.6768 52.7168C60.6768 51.9423 61.3071 51.312 62.0815 51.312H79.8031C80.5775 51.312 81.2078 51.9423 81.2078 52.7168V54.2296C81.2078 55.004 80.5775 55.6343 79.8031 55.6343H62.0815C61.709 55.6343 61.3516 55.4863 61.0882 55.2229C60.8248 54.9595 60.6768 54.6021 60.6768 54.2296V52.7168ZM81.2078 66.116C81.2078 66.8904 80.5775 67.5207 79.8031 67.5207H62.0815C61.709 67.5207 61.3516 67.3727 61.0882 67.1093C60.8248 66.8458 60.6768 66.4885 60.6768 66.116V64.6032C60.6768 63.8287 61.3071 63.1984 62.0815 63.1984H79.8031C80.5775 63.1984 81.2078 63.8287 81.2078 64.6032V66.116Z" fill="#BDBEC2"/>
<path id="Vector_6" d="M100.659 97.7765C100.659 100.642 99.5205 103.391 97.494 105.417C95.4676 107.444 92.7191 108.582 89.8532 108.582C86.9873 108.582 84.2388 107.444 82.2123 105.417C80.1858 103.391 79.0474 100.642 79.0474 97.7765C79.0474 94.9106 80.1858 92.1621 82.2123 90.1357C84.2388 88.1092 86.9873 86.9707 89.8532 86.9707C92.7191 86.9707 95.4676 88.1092 97.494 90.1357C99.5205 92.1621 100.659 94.9106 100.659 97.7765Z" fill="#262A33"/>
<path id="Vector_7" fill-rule="evenodd" clip-rule="evenodd" d="M89.8532 107.502C92.4325 107.502 94.9061 106.477 96.73 104.653C98.5538 102.829 99.5784 100.356 99.5784 97.7765C99.5784 95.1972 98.5538 92.7236 96.73 90.8997C94.9061 89.0759 92.4325 88.0513 89.8532 88.0513C87.2739 88.0513 84.8002 89.0759 82.9764 90.8997C81.1526 92.7236 80.1279 95.1972 80.1279 97.7765C80.1279 100.356 81.1526 102.829 82.9764 104.653C84.8002 106.477 87.2739 107.502 89.8532 107.502ZM89.8532 108.582C92.7191 108.582 95.4676 107.444 97.494 105.417C99.5205 103.391 100.659 100.642 100.659 97.7765C100.659 94.9106 99.5205 92.1621 97.494 90.1357C95.4676 88.1092 92.7191 86.9707 89.8532 86.9707C86.9873 86.9707 84.2388 88.1092 82.2123 90.1357C80.1858 92.1621 79.0474 94.9106 79.0474 97.7765C79.0474 100.642 80.1858 103.391 82.2123 105.417C84.2388 107.444 86.9873 108.582 89.8532 108.582Z" fill="#873EE2"/>
<path id="Vector_8" d="M94.2602 94.3641C93.9928 94.0862 93.6722 93.8651 93.3174 93.7142C92.9626 93.5632 92.5809 93.4854 92.1954 93.4854C91.8098 93.4854 91.4282 93.5632 91.0734 93.7142C90.7186 93.8651 90.3979 94.0862 90.1306 94.3641C90.0948 94.4007 90.0521 94.4298 90.0049 94.4497C89.9578 94.4696 89.9071 94.4798 89.8559 94.4798C89.8047 94.4798 89.754 94.4696 89.7069 94.4497C89.6597 94.4298 89.617 94.4007 89.5813 94.3641C89.3139 94.0862 88.9932 93.8651 88.6385 93.7142C88.2837 93.5632 87.902 93.4854 87.5164 93.4854C87.1309 93.4854 86.7492 93.5632 86.3944 93.7142C86.0397 93.8651 85.719 94.0862 85.4516 94.3641C84.9028 94.9336 84.5962 95.6938 84.5962 96.4847C84.5962 97.2756 84.9028 98.0358 85.4516 98.6053L89.3543 102.614C89.4196 102.681 89.4976 102.734 89.5837 102.771C89.6699 102.807 89.7624 102.826 89.8559 102.826C89.9494 102.826 90.0419 102.807 90.1281 102.771C90.2142 102.734 90.2922 102.681 90.3575 102.614L94.2602 98.6053C94.809 98.0358 95.1156 97.2756 95.1156 96.4847C95.1156 95.6938 94.809 94.9336 94.2602 94.3641Z" fill="white"/>
</g>
</g>
<defs>
<filter id="filter0_d_682_4149" x="19.9757" y="26.0987" width="98.6932" height="114.901" filterUnits="userSpaceOnUse" color-interpolation-filters="sRGB">
<feFlood flood-opacity="0" result="BackgroundImageFix"/>
<feColorMatrix in="SourceAlpha" type="matrix" values="0 0 0 0 0 0 0 0 0 0 0 0 0 0 0 0 0 0 127 0" result="hardAlpha"/>
<feOffset dy="14.4078"/>
<feGaussianBlur stdDeviation="9.00484"/>
<feComposite in2="hardAlpha" operator="out"/>
<feColorMatrix type="matrix" values="0 0 0 0 0.34902 0 0 0 0 0.364706 0 0 0 0 0.4 0 0 0 0.2 0"/>
<feBlend mode="normal" in2="BackgroundImageFix" result="effect1_dropShadow_682_4149"/>
<feBlend mode="normal" in="SourceGraphic" in2="effect1_dropShadow_682_4149" result="shape"/>
</filter>
<linearGradient id="paint0_linear_682_4149" x1="55.0477" y1="98.3176" x2="56.0275" y2="14.8607" gradientUnits="userSpaceOnUse">
<stop stop-color="white"/>
<stop offset="1" stop-color="#EEEFF0"/>
</linearGradient>
<linearGradient id="paint1_linear_682_4149" x1="64.9999" y1="29.7007" x2="64.9999" y2="99.9385" gradientUnits="userSpaceOnUse">
<stop stop-color="#DEDFE0"/>
<stop offset="1" stop-color="#EEEFF0"/>
</linearGradient>
</defs>
</svg>
