<svg width="24" height="25" viewBox="0 0 24 25" fill="none" xmlns="http://www.w3.org/2000/svg">
<g id="essential">
<path id="Vector" d="M5.40995 22.049C4.28995 22.049 3.57995 21.669 3.12995 21.219C2.24995 20.339 1.62995 18.469 3.60995 14.499L4.47995 12.769C4.58995 12.539 4.58995 12.059 4.47995 11.829L3.60995 10.099C1.61995 6.12897 2.24995 4.24897 3.12995 3.37897C3.99995 2.49897 5.87995 1.86897 9.83995 3.85897L18.3999 8.13897C20.5299 9.19897 21.6999 10.679 21.6999 12.299C21.6999 13.919 20.5299 15.399 18.4099 16.459L9.84995 20.739C7.90995 21.709 6.46995 22.049 5.40995 22.049ZM5.40995 4.04897C4.86995 4.04897 4.44995 4.17897 4.18995 4.43897C3.45995 5.15897 3.74995 7.02897 4.94995 9.41897L5.81995 11.159C6.13995 11.809 6.13995 12.789 5.81995 13.439L4.94995 15.169C3.74995 17.569 3.45995 19.429 4.18995 20.149C4.90995 20.879 6.77995 20.589 9.17995 19.389L17.7399 15.109C19.3099 14.329 20.1999 13.299 20.1999 12.289C20.1999 11.279 19.2999 10.249 17.7299 9.46897L9.16995 5.19897C7.64995 4.43897 6.33995 4.04897 5.40995 4.04897Z" fill="white"/>
<path id="Vector_2" d="M10.8404 13.0488H5.44043C5.03043 13.0488 4.69043 12.7088 4.69043 12.2988C4.69043 11.8888 5.03043 11.5488 5.44043 11.5488H10.8404C11.2504 11.5488 11.5904 11.8888 11.5904 12.2988C11.5904 12.7088 11.2504 13.0488 10.8404 13.0488Z" fill="white"/>
</g>
</svg>
