<svg width="25" height="26" viewBox="0 0 25 26" fill="none" xmlns="http://www.w3.org/2000/svg">
<g id="grid4">
<g id="Group">
<path id="Vector" d="M6.9939 3.6748C4.02263 3.6748 3.1084 4.58904 3.1084 7.5603C3.1084 10.5316 4.02263 11.4458 6.9939 11.4458C9.96516 11.4458 10.8794 10.5316 10.8794 7.5603C10.8794 4.58904 9.96516 3.6748 6.9939 3.6748Z" fill="#BBBBFF"/>
<path id="Vector_2" d="M6.9939 14.5542C4.02263 14.5542 3.1084 15.4685 3.1084 18.4397C3.1084 21.4109 4.02263 22.3252 6.9939 22.3252C9.96516 22.3252 10.8794 21.4109 10.8794 18.4397C10.8794 15.4685 9.96516 14.5542 6.9939 14.5542Z" fill="#BBBBFF"/>
<path id="Vector_3" d="M17.8733 14.5542C14.9021 14.5542 13.9878 15.4685 13.9878 18.4397C13.9878 21.4109 14.9021 22.3252 17.8733 22.3252C20.8445 22.3252 21.7588 21.4109 21.7588 18.4397C21.7588 15.4685 20.8445 14.5542 17.8733 14.5542Z" fill="#BBBBFF"/>
<path id="Vector_4" d="M17.8733 3.6748C14.9021 3.6748 13.9878 4.58904 13.9878 7.5603C13.9878 10.5316 14.9021 11.4458 17.8733 11.4458C20.8445 11.4458 21.7588 10.5316 21.7588 7.5603C21.7588 4.58904 20.8445 3.6748 17.8733 3.6748Z" fill="#6161FF"/>
</g>
</g>
</svg>
