<svg width="13" height="13" viewBox="0 0 13 13" fill="none" xmlns="http://www.w3.org/2000/svg">
<path d="M6.32911 2.26624C6.46296 1.85431 7.04573 1.85431 7.17957 2.26624L7.95894 4.66488C8.01879 4.8491 8.19046 4.97382 8.38416 4.97382H10.9062C11.3394 4.97382 11.5195 5.52807 11.169 5.78265L9.12864 7.2651C8.97194 7.37895 8.90636 7.58076 8.96622 7.76498L9.74559 10.1636C9.87943 10.5755 9.40796 10.9181 9.05755 10.6635L7.01715 9.18107C6.86044 9.06721 6.64824 9.06721 6.49154 9.18106L4.45113 10.6635C4.10073 10.9181 3.62926 10.5755 3.7631 10.1636L4.54246 7.76498C4.60232 7.58076 4.53675 7.37895 4.38004 7.2651L2.33964 5.78265C1.98923 5.52807 2.16932 4.97382 2.60244 4.97382H5.12452C5.31822 4.97382 5.48989 4.8491 5.54975 4.66488L6.32911 2.26624Z" fill="#FFC229"/>
<path d="M7.38434 2.73584L7.92857 4.53994C8.00623 4.79738 8.24338 4.97355 8.51228 4.97355H10.9063C11.3394 4.97355 11.5195 5.5278 11.1691 5.78238L9.1287 7.26482C8.97199 7.37868 8.90642 7.58049 8.96627 7.76471L9.74564 10.1633C9.87948 10.5753 9.40801 10.9178 9.0576 10.6632L7.03775 9.19572C6.86229 9.06824 6.76776 8.85715 6.7895 8.64137L7.38434 2.73584Z" fill="#D9D9D9"/>
</svg>
