<svg width="23" height="22" viewBox="0 0 23 22" fill="none" xmlns="http://www.w3.org/2000/svg">
<path d="M14.4057 19.8461H8.58962C4.20971 19.8461 2.33643 17.9728 2.33643 13.5929V13.4769C2.33643 9.51625 3.89749 7.60729 7.39429 7.27723C7.7511 7.25047 8.09008 7.51808 8.12576 7.88382C8.16144 8.24956 7.89383 8.57961 7.51917 8.61529C4.71817 8.87398 3.67448 10.1942 3.67448 13.4858V13.6018C3.67448 17.2324 4.95902 18.5169 8.58962 18.5169H14.4057C18.0363 18.5169 19.3208 17.2324 19.3208 13.6018V13.4858C19.3208 10.1764 18.2593 8.85614 15.4048 8.61529C15.0391 8.57961 14.7625 8.25848 14.7982 7.89274C14.8339 7.52701 15.1461 7.25047 15.5208 7.28615C19.0711 7.58945 20.6589 9.50733 20.6589 13.4947V13.6107C20.6589 17.9728 18.7856 19.8461 14.4057 19.8461Z" fill="#6161FF"/>
<path d="M11.4967 14.0476C11.1309 14.0476 10.8276 13.7443 10.8276 13.3785V3.22713C10.8276 2.8614 11.1309 2.55811 11.4967 2.55811C11.8624 2.55811 12.1657 2.8614 12.1657 3.22713V13.3785C12.1657 13.7443 11.8624 14.0476 11.4967 14.0476Z" fill="#6161FF"/>
<path d="M14.4853 5.88519C14.3158 5.88519 14.1463 5.82275 14.0125 5.68894L11.4969 3.1734L8.98138 5.68894C8.72269 5.94764 8.29451 5.94764 8.03582 5.68894C7.77712 5.43025 7.77712 5.00207 8.03582 4.74338L11.0241 1.75505C11.2828 1.49636 11.711 1.49636 11.9697 1.75505L14.958 4.74338C15.2167 5.00207 15.2167 5.43025 14.958 5.68894C14.8332 5.82275 14.6547 5.88519 14.4853 5.88519Z" fill="#6161FF"/>
</svg>
