<svg width="32" height="33" viewBox="0 0 32 33" fill="none" xmlns="http://www.w3.org/2000/svg">
<g id="notification">
<path id="Vector" d="M16.0262 27.2544C12.5862 27.2544 9.1595 26.7077 5.89283 25.6144C4.6795 25.2144 3.7595 24.3477 3.3595 23.2544C2.9595 22.1611 3.09283 20.9077 3.74616 19.8144L5.4395 16.9877C5.81283 16.3611 6.14616 15.1877 6.14616 14.4544V11.6544C6.14616 6.20108 10.5728 1.77441 16.0262 1.77441C21.4795 1.77441 25.9062 6.20108 25.9062 11.6544V14.4544C25.9062 15.1744 26.2395 16.3611 26.6128 16.9877L28.3062 19.8144C28.9328 20.8544 29.0395 22.0944 28.6262 23.2277C28.2128 24.3611 27.3062 25.2277 26.1595 25.6144C22.8928 26.7211 19.4662 27.2544 16.0262 27.2544ZM16.0262 3.78775C11.6795 3.78775 8.14616 7.32108 8.14616 11.6677V14.4677C8.14616 15.5477 7.7195 17.1077 7.1595 18.0277L5.46616 20.8677C5.1195 21.4411 5.0395 22.0544 5.2395 22.5877C5.4395 23.1211 5.89283 23.5211 6.53283 23.7344C12.6662 25.7744 19.4128 25.7744 25.5462 23.7344C26.1195 23.5477 26.5595 23.1211 26.7595 22.5611C26.9728 22.0011 26.9062 21.3877 26.5995 20.8677L24.9062 18.0411C24.3462 17.1211 23.9195 15.5611 23.9195 14.4811V11.6811C23.9062 7.32108 20.3728 3.78775 16.0262 3.78775Z" fill="#292D32"/>
<path id="Vector_2" d="M15.9986 30.6558C14.5719 30.6558 13.1719 30.0692 12.1586 29.0558C11.1453 28.0425 10.5586 26.6425 10.5586 25.2158H12.5586C12.5586 26.1225 12.9319 27.0025 13.5719 27.6425C14.2119 28.2825 15.0919 28.6558 15.9986 28.6558C17.8919 28.6558 19.4386 27.1092 19.4386 25.2158H21.4386C21.4386 28.2158 18.9986 30.6558 15.9986 30.6558Z" fill="#292D32"/>
</g>
</svg>
