<svg width="21" height="25" viewBox="0 0 21 25" fill="none" xmlns="http://www.w3.org/2000/svg">
<g id="pin-1 1" clip-path="url(#clip0_758_2884)">
<g id="pin-1--pin-push-thumbtack">
<path id="Vector 103" d="M10.7326 5.65228C9.03567 7.34925 8.7881 10.7792 8.61105 12.017L5.10362 12.2573C4.55831 12.2947 4.17865 12.8185 4.36044 13.3339C4.94323 14.9864 5.88971 16.4921 7.13505 17.7372C8.38036 18.9823 9.88618 19.9285 11.5387 20.511C12.0542 20.6927 12.5779 20.3129 12.6151 19.7675L12.8542 16.2617C14.0921 16.0847 17.522 15.8371 19.2205 14.1401C23.012 10.3471 14.5242 1.85923 10.7326 5.65228Z" stroke="#6161FF" stroke-width="1.64237" stroke-linecap="round" stroke-linejoin="round"/>
<path id="Vector 105 (Stroke)" fill-rule="evenodd" clip-rule="evenodd" d="M20.7927 24.3198C20.0637 25.0338 18.8939 25.0216 18.1799 24.2925L1.34389 7.10211C0.629886 6.37307 0.642071 5.20326 1.37111 4.48926C2.10014 3.77525 3.26996 3.78744 3.98396 4.51648L20.8199 21.7069C21.5339 22.4359 21.5217 23.6058 20.7927 24.3198Z" fill="white"/>
<path id="Vector 107" d="M7.11634 17.7534L1.71484 23.1549" stroke="#6161FF" stroke-width="1.40039" stroke-linecap="round" stroke-linejoin="round"/>
<path id="Vector 108" d="M19.9995 23L1.99923 4.99989" stroke="#6161FF" stroke-width="1.64" stroke-linecap="round" stroke-linejoin="round"/>
<path id="Vector 104" d="M7.11634 17.7534L1.71484 23.1549" stroke="#6161FF" stroke-width="1.64237" stroke-linecap="round" stroke-linejoin="round"/>
</g>
</g>
<defs>
<clipPath id="clip0_758_2884">
<rect width="21.0058" height="24.6852" fill="white" transform="translate(-0.00585938 0.219238)"/>
</clipPath>
</defs>
</svg>
