<svg width="18" height="19" viewBox="0 0 18 19" fill="none" xmlns="http://www.w3.org/2000/svg">
<g id="search">
<path id="Vector" d="M15 9.52441C15 13.0452 12.1458 15.8994 8.625 15.8994C5.10418 15.8994 2.25 13.0452 2.25 9.52441C2.25 6.0036 5.10419 3.14941 8.625 3.14941C12.1458 3.14941 15 6.0036 15 9.52441Z" stroke="#292D32" stroke-width="1.5"/>
<path id="Vector_2" d="M15.9749 17.4003C15.8399 17.4003 15.7049 17.3478 15.6074 17.2503L14.2124 15.8553C14.0099 15.6528 14.0099 15.3228 14.2124 15.1128C14.4149 14.9103 14.7449 14.9103 14.9549 15.1128L16.3499 16.5078C16.5524 16.7103 16.5524 17.0403 16.3499 17.2503C16.2449 17.3478 16.1099 17.4003 15.9749 17.4003Z" fill="#292D32"/>
</g>
</svg>
