<svg width="33" height="33" viewBox="0 0 33 33" fill="none" xmlns="http://www.w3.org/2000/svg">
<g id="search">
<path id="Vector" d="M15.5221 29.1224C7.9888 29.1224 1.85547 22.9891 1.85547 15.4557C1.85547 7.92239 7.9888 1.78906 15.5221 1.78906C23.0555 1.78906 29.1888 7.92239 29.1888 15.4557C29.1888 22.9891 23.0555 29.1224 15.5221 29.1224ZM15.5221 3.78906C9.08213 3.78906 3.85547 9.02906 3.85547 15.4557C3.85547 21.8824 9.08213 27.1224 15.5221 27.1224C21.9621 27.1224 27.1888 21.8824 27.1888 15.4557C27.1888 9.02906 21.9621 3.78906 15.5221 3.78906Z" fill="#7F7F7F"/>
<path id="Vector_2" d="M29.5217 30.4543C29.2684 30.4543 29.0151 30.361 28.8151 30.161L26.1484 27.4944C25.7617 27.1077 25.7617 26.4677 26.1484 26.081C26.5351 25.6943 27.1751 25.6943 27.5617 26.081L30.2284 28.7477C30.6151 29.1343 30.6151 29.7744 30.2284 30.161C30.0284 30.361 29.7751 30.4543 29.5217 30.4543Z" fill="#7F7F7F"/>
</g>
</svg>
