<svg width="26" height="26" viewBox="0 0 26 26" fill="none" xmlns="http://www.w3.org/2000/svg">
<g id="setting">
<path id="Vector" opacity="0.4" d="M2.26465 13.8494V12.0161C2.26465 10.9328 3.15007 10.0369 4.24382 10.0369C6.12923 10.0369 6.90006 8.70361 5.95215 7.06819C5.41048 6.13069 5.7334 4.91194 6.68131 4.37027L8.4834 3.33902C9.30631 2.84944 10.3688 3.14111 10.8584 3.96402L10.973 4.16194C11.9105 5.79736 13.4521 5.79736 14.4001 4.16194L14.5146 3.96402C15.0042 3.14111 16.0667 2.84944 16.8896 3.33902L18.6917 4.37027C19.6396 4.91194 19.9626 6.13069 19.4209 7.06819C18.473 8.70361 19.2438 10.0369 21.1292 10.0369C22.2126 10.0369 23.1084 10.9224 23.1084 12.0161V13.8494C23.1084 14.9328 22.223 15.8286 21.1292 15.8286C19.2438 15.8286 18.473 17.1619 19.4209 18.7974C19.9626 19.7453 19.6396 20.9536 18.6917 21.4953L16.8896 22.5265C16.0667 23.0161 15.0042 22.7244 14.5146 21.9015L14.4001 21.7036C13.4626 20.0682 11.9209 20.0682 10.973 21.7036L10.8584 21.9015C10.3688 22.7244 9.30631 23.0161 8.4834 22.5265L6.68131 21.4953C5.7334 20.9536 5.41048 19.7349 5.95215 18.7974C6.90006 17.1619 6.12923 15.8286 4.24382 15.8286C3.15007 15.8286 2.26465 14.9328 2.26465 13.8494Z" fill="#1E1E1E"/>
<path id="Vector_2" d="M12.6813 16.3182C14.551 16.3182 16.0667 14.8025 16.0667 12.9328C16.0667 11.0631 14.551 9.54736 12.6813 9.54736C10.8116 9.54736 9.2959 11.0631 9.2959 12.9328C9.2959 14.8025 10.8116 16.3182 12.6813 16.3182Z" fill="#1E1E1E"/>
</g>
</svg>
