<svg width="22" height="16" viewBox="0 0 22 16" fill="none" xmlns="http://www.w3.org/2000/svg">
<g id="Group">
<path id="Vector" d="M11 0.666504C6.11111 0.666504 1.83333 1.07391 1.22222 1.48132C0.771442 1.78183 0.320674 3.41238 0.115158 5.55539C0.0420688 6.31769 0 7.14477 0 7.99984C0 11.2591 0.611111 14.1109 1.22222 14.5183C1.83333 14.9258 6.11111 15.3332 11 15.3332C15.8889 15.3332 20.1667 14.9258 20.7778 14.5183C21.3889 14.1109 22 11.2591 22 7.99984C22 7.14477 21.958 6.31769 21.8849 5.55539C21.6793 3.41238 21.2285 1.78183 20.7778 1.48132C20.1667 1.07391 15.8889 0.666504 11 0.666504Z" fill="#BBBBFF"/>
<path id="Vector_2" d="M4.88867 10.4443C4.88867 10.4443 6.11089 10.4443 7.94423 10.4443C9.77756 10.4443 10.9998 10.4443 10.9998 10.4443" stroke="white" stroke-width="1.6" stroke-linecap="round" stroke-linejoin="round"/>
<g id="Mask group">
<mask id="mask0_1929_11810" style="mask-type:alpha" maskUnits="userSpaceOnUse" x="0" y="0" width="22" height="16">
<path id="Vector_3" d="M11 0.666504C6.11111 0.666504 1.83333 1.07391 1.22222 1.48132C0.771442 1.78183 0.320674 3.41238 0.115158 5.55539C0.0420688 6.31769 0 7.14477 0 7.99984C0 11.2591 0.611111 14.1109 1.22222 14.5183C1.83333 14.9258 6.11111 15.3332 11 15.3332C15.8889 15.3332 20.1667 14.9258 20.7778 14.5183C21.3889 14.1109 22 11.2591 22 7.99984C22 7.14477 21.958 6.31769 21.8849 5.55539C21.6793 3.41238 21.2285 1.78183 20.7778 1.48132C20.1667 1.07391 15.8889 0.666504 11 0.666504Z" fill="#BBBBFF"/>
</mask>
<g mask="url(#mask0_1929_11810)">
<path id="Vector_4" d="M21.8849 5.55518H0.115234" stroke="#6161FF" stroke-width="1.6" stroke-linecap="round" stroke-linejoin="round"/>
</g>
</g>
</g>
</svg>
