<svg width="10" height="10" viewBox="0 0 10 10" fill="none" xmlns="http://www.w3.org/2000/svg">
<path d="M4.60792 1.26624C4.74177 0.854309 5.32454 0.854309 5.45838 1.26624L6.23774 3.66488C6.2976 3.8491 6.46927 3.97382 6.66297 3.97382H9.18505C9.61818 3.97382 9.79826 4.52807 9.44786 4.78265L7.40745 6.2651C7.25075 6.37895 7.18517 6.58076 7.24503 6.76498L8.02439 9.16362C8.15824 9.57555 7.68677 9.91809 7.33636 9.66351L5.29596 8.18107C5.13925 8.06721 4.92705 8.06721 4.77035 8.18106L2.72994 9.66351C2.37953 9.91809 1.90806 9.57555 2.04191 9.16362L2.82127 6.76498C2.88113 6.58076 2.81556 6.37895 2.65885 6.2651L0.618446 4.78265C0.268039 4.52807 0.448124 3.97382 0.881252 3.97382H3.40333C3.59703 3.97382 3.7687 3.8491 3.82856 3.66488L4.60792 1.26624Z" fill="#FFC229"/>
</svg>
