<svg width="10" height="10" viewBox="0 0 10 10" fill="none" xmlns="http://www.w3.org/2000/svg">
<path d="M4.74757 1.26624C4.88142 0.854309 5.46418 0.854309 5.59803 1.26624L6.37739 3.66488C6.43725 3.8491 6.60892 3.97382 6.80262 3.97382H9.3247C9.75783 3.97382 9.93791 4.52807 9.58751 4.78265L7.5471 6.2651C7.39039 6.37895 7.32482 6.58076 7.38468 6.76498L8.16404 9.16362C8.29789 9.57555 7.82642 9.91809 7.47601 9.66351L5.43561 8.18107C5.2789 8.06721 5.0667 8.06721 4.90999 8.18106L2.86959 9.66351C2.51918 9.91809 2.04771 9.57555 2.18156 9.16362L2.96092 6.76498C3.02078 6.58076 2.95521 6.37895 2.7985 6.2651L0.758095 4.78265C0.407688 4.52807 0.587773 3.97382 1.0209 3.97382H3.54298C3.73668 3.97382 3.90835 3.8491 3.96821 3.66488L4.74757 1.26624Z" fill="#FFC229"/>
</svg>
