<svg width="10" height="10" viewBox="0 0 10 10" fill="none" xmlns="http://www.w3.org/2000/svg">
<path d="M4.46828 1.26624C4.60212 0.854309 5.18489 0.854309 5.31873 1.26624L6.0981 3.66488C6.15795 3.8491 6.32962 3.97382 6.52332 3.97382H9.0454C9.47853 3.97382 9.65862 4.52807 9.30821 4.78265L7.2678 6.2651C7.1111 6.37895 7.04552 6.58076 7.10538 6.76498L7.88475 9.16362C8.01859 9.57555 7.54712 9.91809 7.19671 9.66351L5.15631 8.18107C4.9996 8.06721 4.7874 8.06721 4.6307 8.18106L2.59029 9.66351C2.23989 9.91809 1.76842 9.57555 1.90226 9.16362L2.68163 6.76498C2.74148 6.58076 2.67591 6.37895 2.5192 6.2651L0.478798 4.78265C0.128391 4.52807 0.308476 3.97382 0.741603 3.97382H3.26368C3.45738 3.97382 3.62905 3.8491 3.68891 3.66488L4.46828 1.26624Z" fill="#FFC229"/>
</svg>
