<svg width="10" height="10" viewBox="0 0 10 10" fill="none" xmlns="http://www.w3.org/2000/svg">
<path d="M4.88722 1.26624C5.02106 0.854309 5.60383 0.854309 5.73768 1.26624L6.51704 3.66488C6.5769 3.8491 6.74857 3.97382 6.94227 3.97382H9.46435C9.89748 3.97382 10.0776 4.52807 9.72715 4.78265L7.68675 6.2651C7.53004 6.37895 7.46447 6.58076 7.52433 6.76498L8.30369 9.16362C8.43754 9.57555 7.96607 9.91809 7.61566 9.66351L5.57525 8.18107C5.41855 8.06721 5.20635 8.06721 5.04964 8.18106L3.00924 9.66351C2.65883 9.91809 2.18736 9.57555 2.32121 9.16362L3.10057 6.76498C3.16043 6.58076 3.09485 6.37895 2.93815 6.2651L0.897743 4.78265C0.547336 4.52807 0.727421 3.97382 1.16055 3.97382H3.68263C3.87633 3.97382 4.048 3.8491 4.10786 3.66488L4.88722 1.26624Z" fill="#FFC229"/>
</svg>
