<svg width="24" height="25" viewBox="0 0 24 25" fill="none" xmlns="http://www.w3.org/2000/svg">
<g id="trash2">
<g id="Group">
<path id="Vector" d="M18.1005 6.89941C18.1005 12.7581 19.4694 20.8994 12.1005 20.8994C4.73153 20.8994 6.10045 12.7581 6.10045 6.89941" stroke="#292D32" stroke-width="1.5" stroke-linecap="round" stroke-linejoin="round"/>
<path id="Vector_2" d="M14 10.3994C14 10.3994 14.5 11.3994 14.5 13.3994C14.5 15.3994 14 16.3994 14 16.3994" stroke="#292D32" stroke-width="1.5" stroke-linecap="round" stroke-linejoin="round"/>
<path id="Vector_3" d="M10 10.3994C10 10.3994 9.5 11.3994 9.5 13.3994C9.5 15.3994 10 16.3994 10 16.3994" stroke="#292D32" stroke-width="1.5" stroke-linecap="round" stroke-linejoin="round"/>
<path id="Vector_4" d="M4 6.89941H20" stroke="#292D32" stroke-width="1.5" stroke-linecap="round" stroke-linejoin="round"/>
<path id="Vector_5" d="M15 6.89941V5.89941C15 4.12437 13.3627 3.89941 12 3.89941C10.6373 3.89941 9 4.12437 9 5.89941V6.89941" stroke="#292D32" stroke-width="1.5" stroke-linecap="round" stroke-linejoin="round"/>
</g>
</g>
</svg>
