<svg width="17" height="20" viewBox="0 0 17 20" fill="none" xmlns="http://www.w3.org/2000/svg">
<path id="Vector" d="M16.1466 7.79605C16.0519 7.69881 15.6942 7.28302 15.361 6.94099C6.5191 -2.79541 -0.000295639 -2.65014 -0.000295639 9.67887C-0.000295639 11.083 0.0461655 12.4161 0.12558 13.5744C0.227625 15.0627 0.252434 16.7591 0.929056 18.0887C1.45335 19.1147 2.47743 19.7518 3.57339 19.7518H3.66812C5.07994 19.7021 6.72849 18.7078 7.952 18.0016C10.4593 16.5544 13.634 14.2809 15.2315 12.584C15.336 12.473 15.4391 12.3628 15.5437 12.252C15.7291 12.0557 16.0315 11.7247 16.194 11.4879C16.5762 10.9749 16.7656 10.3394 16.7656 9.70402C16.7656 8.99482 16.5517 8.33424 16.1466 7.79605Z" fill="#E8E8E8"/>
</svg>
