<svg width="45" height="46" viewBox="0 0 45 46" fill="none" xmlns="http://www.w3.org/2000/svg">
<g id="download 13" clip-path="url(#clip0_811_3643)">
<g id="pencil-square--change-document-edit-modify-paper-pencil-write-writing">
<path id="Intersect" d="M17.3238 8.25403C14.5274 8.3826 11.7888 8.68474 9.11772 8.99331C7.6122 9.17086 6.2107 9.85145 5.14022 10.9249C4.06973 11.9983 3.39296 13.4016 3.21951 14.9076C2.83379 18.3726 2.46094 21.9565 2.46094 25.6208C2.46094 29.2883 2.83379 32.8722 3.21951 36.3405C3.56665 39.4262 6.03201 41.8915 9.11772 42.2483C12.602 42.6501 16.202 43.0519 19.8856 43.0519C23.5724 43.0519 27.1724 42.6501 30.6567 42.2483C32.1606 42.0704 33.5606 41.3904 34.6304 40.3184C35.7001 39.2463 36.377 37.8448 36.5517 36.3405C36.857 33.798 37.0842 31.2468 37.2331 28.6905" stroke="#6161FF" stroke-width="4.2823" stroke-linecap="round" stroke-linejoin="round"/>
<path id="Vector" d="M32.4889 4.69582L20.6475 18.1315L19.0243 25.7655C18.7639 26.9933 20.0432 28.1569 21.2422 27.7776L28.8375 25.3926L41.0711 12.5194C43.1025 10.3819 42.7457 6.80439 40.2868 4.62832C37.8857 2.50689 34.395 2.53582 32.4889 4.69582Z" stroke="#6161FF" stroke-width="4.2823" stroke-linecap="round" stroke-linejoin="round"/>
</g>
</g>
<defs>
<clipPath id="clip0_811_3643">
<rect width="45" height="45" fill="white" transform="translate(0 0.50769)"/>
</clipPath>
</defs>
</svg>
