<svg width="45" height="46" viewBox="0 0 45 46" fill="none" xmlns="http://www.w3.org/2000/svg">
<g id="download 14">
<g id="ruler--ruler-company-office-supplies-work-measure">
<path id="Intersect" d="M3.48871 26.476C2.47943 27.6138 2.39264 29.3045 3.238 30.5677C4.73264 32.8017 6.24979 35.1642 8.23943 37.157C10.2323 39.1499 12.5948 40.6638 14.8287 42.1617C16.0951 43.007 17.7859 42.917 18.9237 41.911C22.7423 38.5392 26.8051 35.071 30.688 31.1913C34.5644 27.3117 38.0326 23.2488 41.4044 19.4303C42.4105 18.2924 42.5005 16.6017 41.6551 15.3385C40.1605 13.1013 38.6434 10.7388 36.6505 8.74918C34.6576 6.75632 32.2951 5.23918 30.0612 3.74454C29.4466 3.33038 28.7125 3.13048 27.9728 3.1758C27.233 3.22113 26.5289 3.50915 25.9694 3.99525C22.1476 7.36382 18.088 10.832 14.2051 14.7117C10.3255 18.5913 6.85729 22.6542 3.48871 26.476Z" stroke="#6161FF" stroke-width="3.35884" stroke-linecap="round" stroke-linejoin="round"/>
<path id="Line 7" d="M14.207 14.715L20.7706 21.2785" stroke="#6161FF" stroke-width="3.35884" stroke-linecap="round" stroke-linejoin="round"/>
<path id="Line 8" d="M21.4082 8.11609L26.2746 12.9857" stroke="#6161FF" stroke-width="3.35884" stroke-linecap="round" stroke-linejoin="round"/>
<path id="Line 10" d="M7.60938 21.915L12.479 26.7814" stroke="#6161FF" stroke-width="3.35884" stroke-linecap="round" stroke-linejoin="round"/>
</g>
</g>
</svg>
