<svg width="41" height="41" viewBox="0 0 41 41" fill="none" xmlns="http://www.w3.org/2000/svg">
<g id="download 15" clip-path="url(#clip0_811_3728)">
<g id="ai-map-generating-spark--navigation-direction-travel-artificial-intelligence-ai">
<path id="Vector 2140" d="M33.6265 8.83432C32.2127 7.42056 31.9934 6.1222 30.9663 4.81519C30.781 4.57616 30.5435 4.38269 30.272 4.2496C30.0004 4.1165 29.702 4.0473 29.3996 4.0473C29.0972 4.0473 28.7988 4.1165 28.5272 4.2496C28.2557 4.38269 28.0182 4.57616 27.8329 4.81519C26.8058 6.1222 26.5865 7.42056 25.1727 8.83432C23.759 10.2481 22.4606 10.4703 21.1507 11.4974C20.9117 11.6827 20.7182 11.9202 20.5851 12.1917C20.452 12.4633 20.3828 12.7617 20.3828 13.0641C20.3828 13.3665 20.452 13.6649 20.5851 13.9365C20.7182 14.208 20.9117 14.4455 21.1507 14.6308C22.4577 15.6579 23.7561 15.8772 25.1727 17.291C26.5865 18.7047 26.8058 20.0031 27.8329 21.313C28.0182 21.552 28.2557 21.7455 28.5272 21.8786C28.7988 22.0117 29.0972 22.0809 29.3996 22.0809C29.702 22.0809 30.0004 22.0117 30.272 21.8786C30.5435 21.7455 30.781 21.552 30.9663 21.313C31.9934 20.0031 32.2127 18.7047 33.6265 17.291C35.0402 15.8772 36.3386 15.6579 37.6485 14.6308C37.8875 14.4455 38.081 14.208 38.2141 13.9365C38.3472 13.6649 38.4164 13.3665 38.4164 13.0641C38.4164 12.7617 38.3472 12.4633 38.2141 12.1917C38.081 11.9202 37.8875 11.6827 37.6485 11.4974C36.3386 10.4703 35.0431 10.251 33.6265 8.83432Z" stroke="#6161FF" stroke-width="3.35884" stroke-linecap="round" stroke-linejoin="round"/>
<path id="Vector" d="M33.6146 27.5421C33.4892 29.2886 33.2696 31.0271 32.9568 32.7499C32.7289 34.0079 32.4836 35.312 31.7508 36.3565C31.4709 36.7546 31.1391 37.098 30.7698 37.2163C29.7513 37.5539 28.6924 37.9491 27.6307 38.3127C25.9139 38.8984 24.3761 39.5822 22.8267 39.2186L13.7296 36.8643C13.2788 36.743 12.8041 36.743 12.3533 36.8643C10.9915 37.2451 9.5258 37.8106 8.05721 38.3098C7.03872 38.6589 6.08371 39.0426 5.15178 39.2186C4.84594 39.2763 4.56607 39.1465 4.31794 38.9272C3.2908 38.0184 3.135 36.5036 2.89264 35.1533C1.86131 29.3708 1.86131 23.4514 2.89264 17.6688L3.00805 17.0369C3.1725 16.1079 3.34562 15.1615 3.78994 14.3277C4.02365 13.8891 4.3266 13.4679 4.6786 13.3006C5.70574 12.8101 6.73 12.3398 7.64462 12.0888C9.11032 11.6848 11.4906 11.0818 13.04 11.4453L14.7279 11.881" stroke="#6161FF" stroke-width="3.35884" stroke-linecap="round" stroke-linejoin="round"/>
<path id="Intersect" d="M12.8943 11.4485C12.8822 11.5538 12.8764 11.6598 12.877 11.7659V36.752C13.0619 36.7543 13.246 36.7785 13.4252 36.8241L22.9811 39.216C22.9925 39.1164 22.9983 39.0162 22.9984 38.9159V24.4032" stroke="#6161FF" stroke-width="3.35884" stroke-linecap="round" stroke-linejoin="round"/>
</g>
</g>
<defs>
<clipPath id="clip0_811_3728">
<rect width="40.3933" height="40.3933" fill="white" transform="translate(0 0.50769)"/>
</clipPath>
</defs>
</svg>
