<svg width="43" height="43" viewBox="0 0 43 43" fill="none" xmlns="http://www.w3.org/2000/svg">
<g id="download 16" clip-path="url(#clip0_811_3733)">
<g id="bag-suitcase-1--product-business-briefcase">
<path id="Intersect" d="M21.1969 10.3489C16.4943 10.3489 11.5766 10.3489 7.47356 11.1211C6.55929 11.2956 5.7167 11.7356 5.05105 12.3861C4.3854 13.0367 3.9262 13.869 3.73084 14.779C3.02832 17.9888 3.02832 20.9473 3.02832 25.4894C3.02832 30.0315 3.02832 32.987 3.73084 36.1998C3.9262 37.1098 4.3854 37.9421 5.05105 38.5927C5.7167 39.2432 6.55929 39.6832 7.47356 39.8577C11.5766 40.6299 16.4973 40.6299 21.1969 40.6299C25.8995 40.6299 30.8171 40.6299 34.9202 39.8577C35.8345 39.6832 36.6771 39.2432 37.3427 38.5927C38.0084 37.9421 38.4676 37.1098 38.6629 36.1998C39.3654 32.99 39.3654 30.0315 39.3654 25.4894C39.3654 20.9473 39.3654 17.9918 38.6629 14.779C38.4676 13.869 38.0084 13.0367 37.3427 12.3861C36.6771 11.7356 35.8345 11.2956 34.9202 11.1211C30.8171 10.3489 25.8965 10.3489 21.1969 10.3489Z" stroke="#6161FF" stroke-width="3.35884" stroke-linecap="round" stroke-linejoin="round"/>
<path id="Vector 194" d="M13.627 10.4368V8.8349C13.627 7.2287 14.265 5.68829 15.4008 4.55253C16.5365 3.41678 18.0769 2.77872 19.6831 2.77872H22.7112C24.3174 2.77872 25.8578 3.41678 26.9936 4.55253C28.1294 5.68829 28.7674 7.2287 28.7674 8.8349V10.4368" stroke="#6161FF" stroke-width="3.35884" stroke-linecap="round" stroke-linejoin="round"/>
<path id="Vector 195" d="M15.1406 30.0316H27.253" stroke="#6161FF" stroke-width="3.35884" stroke-linecap="round" stroke-linejoin="round"/>
<path id="Vector 196" d="M15.1406 20.9473H27.253" stroke="#6161FF" stroke-width="3.35884" stroke-linecap="round" stroke-linejoin="round"/>
</g>
</g>
<defs>
<clipPath id="clip0_811_3733">
<rect width="42.3933" height="42.3933" fill="white" transform="translate(0 0.50769)"/>
</clipPath>
</defs>
</svg>
