<svg width="25" height="25" viewBox="0 0 25 25" fill="none" xmlns="http://www.w3.org/2000/svg">
<g id="arrow">
<path id="Vector" d="M17.4227 9.32666H13.2258V15.8033C13.2258 16.2282 12.8735 16.5805 12.4486 16.5805C12.0238 16.5805 11.6714 16.2282 11.6714 15.8033V9.32666H7.47454C4.15848 9.32666 2.08594 11.3992 2.08594 14.7153V17.3992C2.08594 20.7256 4.15848 22.7982 7.47454 22.7982H17.4124C20.7284 22.7982 22.801 20.7256 22.801 17.4096V14.7153C22.8113 11.3992 20.7388 9.32666 17.4227 9.32666Z" fill="#6161FF"/>
<path id="Vector_2" d="M13.2264 4.72594L15.3715 6.87102C15.527 7.02646 15.7239 7.099 15.9207 7.099C16.1176 7.099 16.3145 7.02646 16.47 6.87102C16.7705 6.5705 16.7705 6.07309 16.47 5.77257L12.9985 2.30107C12.6979 2.00055 12.2005 2.00055 11.9 2.30107L8.42851 5.77257C8.128 6.07309 8.128 6.5705 8.42851 6.87102C8.72903 7.17154 9.22644 7.17154 9.52696 6.87102L11.672 4.72594V9.32698H13.2264V4.72594Z" fill="#6161FF"/>
</g>
</svg>
