<svg width="26" height="25" viewBox="0 0 26 25" fill="none" xmlns="http://www.w3.org/2000/svg">
<g id="arrow">
<path id="Vector" d="M16.0403 23.1896H9.28378C4.1957 23.1896 2.01953 21.0134 2.01953 15.9254V15.7906C2.01953 11.1896 3.833 8.97199 7.89518 8.58857C8.30969 8.55748 8.70347 8.86836 8.74492 9.29323C8.78637 9.7181 8.47549 10.1015 8.04026 10.143C4.78637 10.4435 3.57394 11.9772 3.57394 15.801V15.9357C3.57394 20.1533 5.06616 21.6456 9.28378 21.6456H16.0403C20.2579 21.6456 21.7501 20.1533 21.7501 15.9357V15.801C21.7501 11.9564 20.5169 10.4228 17.2009 10.143C16.776 10.1015 16.4548 9.72846 16.4962 9.30359C16.5377 8.87872 16.9004 8.55748 17.3356 8.59893C21.4599 8.95126 23.3045 11.1792 23.3045 15.8114V15.9461C23.3045 21.0134 21.1283 23.1896 16.0403 23.1896Z" fill="black" fill-opacity="0.88"/>
<path id="Vector_2" d="M12.661 16.4536C12.2361 16.4536 11.8838 16.1013 11.8838 15.6764V3.88365C11.8838 3.45878 12.2361 3.10645 12.661 3.10645C13.0859 3.10645 13.4382 3.45878 13.4382 3.88365V15.6764C13.4382 16.1013 13.0859 16.4536 12.661 16.4536Z" fill="black" fill-opacity="0.88"/>
<path id="Vector_3" d="M16.1327 6.97156C15.9358 6.97156 15.7389 6.89902 15.5834 6.74358L12.6612 3.8213L9.73887 6.74358C9.43836 7.0441 8.94095 7.0441 8.64043 6.74358C8.33991 6.44306 8.33991 5.94565 8.64043 5.64513L12.1119 2.17363C12.4124 1.87311 12.9099 1.87311 13.2104 2.17363L16.6819 5.64513C16.9824 5.94565 16.9824 6.44306 16.6819 6.74358C16.5368 6.89902 16.3295 6.97156 16.1327 6.97156Z" fill="black" fill-opacity="0.88"/>
</g>
</svg>
