<svg width="41" height="41" viewBox="0 0 41 41" fill="none" xmlns="http://www.w3.org/2000/svg">
<g id="Group">
<path id="Vector" d="M27.2189 3.69385H13.2161C7.12644 3.69385 3.49609 7.3242 3.49609 13.4138V27.4166C3.49609 33.5063 7.12644 37.1366 13.2161 37.1366H27.2189C33.3085 37.1366 36.9388 33.5063 36.9388 27.4166V13.4138C36.9388 7.3242 33.3085 3.69385 27.2189 3.69385Z" fill="#1977F3"/>
<path id="Vector_2" d="M23.4207 15.8728L23.5044 20.808L27.9043 20.7411C28.2222 20.7411 28.4564 21.0255 28.4062 21.3267L27.8206 24.522C27.7704 24.7563 27.5697 24.9236 27.3355 24.9403L23.5713 25.0072L23.7721 37.1363L18.7531 37.2199L18.5524 25.0909L15.7083 25.141C15.4239 25.141 15.2064 24.9236 15.2064 24.6391L15.1562 21.4605C15.1562 21.1761 15.3737 20.9586 15.6581 20.9586L18.5022 20.9084L18.4185 15.4713C18.3683 12.6941 20.5767 10.4189 23.3538 10.3687L27.8708 10.3018C28.1552 10.3018 28.3727 10.5192 28.3727 10.8037L28.4397 14.8188C28.4397 15.1032 28.2222 15.3207 27.9377 15.3207L23.9226 15.3876C23.6382 15.3709 23.4207 15.6051 23.4207 15.8728Z" fill="#ECECEC"/>
</g>
</svg>
