<svg width="57" height="58" viewBox="0 0 57 58" fill="none" xmlns="http://www.w3.org/2000/svg">
<g id="image1">
<g id="Group">
<path id="Vector" d="M28.31 8.99392C13.0014 8.99392 8.29102 13.7043 8.29102 29.0129C8.29102 34.7332 8.94868 38.9735 10.5712 42.0416C13.2908 47.1841 18.7215 49.032 28.31 49.032C41.5591 49.032 46.8698 45.5039 48.0589 34.6308C48.2438 32.9404 48.3291 31.0725 48.3291 29.0129C48.3291 13.7043 43.6187 8.99392 28.31 8.99392Z" stroke="#6161FF" stroke-width="3.36454" stroke-linecap="round" stroke-linejoin="round"/>
<path id="Vector_2" fill-rule="evenodd" clip-rule="evenodd" d="M25.2271 21.5847C25.2271 23.9846 23.2794 25.9324 20.8795 25.9324C18.4819 25.9324 16.5342 23.9846 16.5342 21.5847C16.5342 19.1848 18.4819 17.237 20.8795 17.237C23.2794 17.237 25.2271 19.1848 25.2271 21.5847Z" stroke="#6161FF" stroke-width="3.36454" stroke-linecap="round" stroke-linejoin="round"/>
<path id="Vector_3" d="M10.5703 42.0415L17.9129 34.6987C19.7525 32.8594 22.7349 32.8594 24.5743 34.6987L24.9785 35.1029C26.8179 36.9423 29.8005 36.9423 31.6399 35.1029L36.7544 29.9884C38.5938 28.149 41.5764 28.149 43.4158 29.9884L48.0581 34.6307" stroke="#6161FF" stroke-width="3.36454" stroke-linecap="round" stroke-linejoin="round"/>
</g>
</g>
</svg>
