<svg width="42" height="45" viewBox="0 0 42 45" fill="none" xmlns="http://www.w3.org/2000/svg">
<g id="Group">
<path id="Vector" d="M22.9397 43.2308C32.5237 38.3438 40.0035 30.2507 40.0035 20.4104C40.0035 9.91605 31.4962 1.40869 21.0017 1.40869C10.5074 1.40869 2 9.91605 2 20.4104C2 30.2507 9.47977 38.3438 19.0638 43.2308C20.2816 43.8517 21.7219 43.8517 22.9397 43.2308Z" stroke="#6161FF" stroke-width="2.53393" stroke-linecap="round" stroke-linejoin="round"/>
<path id="Vector_2" d="M28.1273 20.4106C28.1273 24.3461 24.9371 27.5362 21.0016 27.5362C17.0661 27.5362 13.876 24.3461 13.876 20.4106C13.876 16.4752 17.0661 13.2849 21.0016 13.2849C24.9371 13.2849 28.1273 16.4752 28.1273 20.4106Z" stroke="#6161FF" stroke-width="2.53393" stroke-linecap="round" stroke-linejoin="round"/>
</g>
</svg>
