<svg width="56" height="57" viewBox="0 0 56 57" fill="none" xmlns="http://www.w3.org/2000/svg">
<g id="Group 1000001579">
<circle id="Ellipse 205" cx="27.8805" cy="28.4161" r="26.73" stroke="#6161FF" stroke-width="1.86923"/>
<g id="Group">
<path id="Vector" d="M29.2561 41.2281C35.3077 38.1422 40.0307 33.032 40.0307 26.8186C40.0307 20.1921 34.6589 14.8203 28.0324 14.8203C21.406 14.8203 16.0342 20.1921 16.0342 26.8186C16.0342 33.032 20.7571 38.1422 26.8088 41.2281C27.5777 41.6201 28.4872 41.6201 29.2561 41.2281Z" fill="#6161FF"/>
<path id="Vector_2" d="M32.5319 26.8187C32.5319 29.3037 30.5175 31.318 28.0326 31.318C25.5476 31.318 23.5332 29.3037 23.5332 26.8187C23.5332 24.3338 25.5476 22.3193 28.0326 22.3193C30.5175 22.3193 32.5319 24.3338 32.5319 26.8187Z" fill="#E7E7E9"/>
</g>
</g>
</svg>
