<svg width="21" height="21" viewBox="0 0 21 21" fill="none" xmlns="http://www.w3.org/2000/svg">
<g id="Group 42">
<path id="Star 13" d="M9.63295 2.37536C9.86517 1.66067 10.8763 1.66066 11.1085 2.37536L12.4607 6.53699C12.5645 6.85661 12.8624 7.07301 13.1985 7.07301L17.5743 7.07301C18.3257 7.07301 18.6382 8.03463 18.0302 8.47634L14.4901 11.0484C14.2182 11.2459 14.1045 11.596 14.2083 11.9157L15.5605 16.0773C15.7927 16.792 14.9747 17.3863 14.3668 16.9446L10.8267 14.3726C10.5548 14.175 10.1866 14.175 9.91475 14.3726L6.37465 16.9446C5.7667 17.3863 4.9487 16.792 5.18092 16.0773L6.53312 11.9157C6.63697 11.596 6.5232 11.2459 6.25131 11.0484L2.71122 8.47634C2.10326 8.03463 2.41571 7.07301 3.16718 7.07301L7.54298 7.07301C7.87905 7.07301 8.1769 6.85661 8.28075 6.53699L9.63295 2.37536Z" fill="#D9D9D9"/>
<path id="Star 14" d="M11.466 3.19067L12.4102 6.32078C12.545 6.76745 12.9564 7.07309 13.423 7.07309H17.5766C18.3281 7.07309 18.6405 8.03471 18.0326 8.47642L14.4925 11.0484C14.2206 11.246 14.1068 11.5961 14.2107 11.9157L15.5628 16.0774C15.7951 16.7921 14.9771 17.3864 14.3691 16.9447L10.8647 14.3986C10.5603 14.1774 10.3962 13.8111 10.4339 13.4367L11.466 3.19067Z" fill="#D9D9D9"/>
</g>
</svg>
