<svg width="32" height="32" viewBox="0 0 32 32" fill="none" xmlns="http://www.w3.org/2000/svg">
<g id="download 20">
<g id="store-2--store-shop-shops-stores">
<path id="Intersect" d="M20.6976 29.0928C20.7209 28.2503 20.7365 27.207 20.7365 25.9207C20.7365 23.6105 20.6866 22.0818 20.6322 21.0988C20.5751 20.0743 19.9744 19.2234 18.9642 19.0426C18.2034 18.9065 17.1043 18.7925 15.5523 18.7925C14.001 18.7925 12.9019 18.9059 12.1405 19.0426C11.1302 19.2234 10.5295 20.0736 10.4725 21.0988C10.4181 22.0818 10.3682 23.6099 10.3682 25.9207C10.3682 27.2064 10.3837 28.2503 10.407 29.0928" stroke="#6161FF" stroke-width="2.07367" stroke-linecap="round" stroke-linejoin="round"/>
<path id="Union" d="M3.94672 4.48174C4.38543 3.31271 5.38727 2.4664 6.62888 2.32902C8.28781 2.14563 11.1171 1.94409 15.5528 1.94409C19.9885 1.94409 22.8171 2.14498 24.4767 2.32902C25.7183 2.46704 26.7201 3.31271 27.1582 4.48174C29.1612 9.82596 29.1612 11.4933 29.1612 11.4933C29.1618 11.9407 29.0743 12.3838 28.9036 12.7973C28.733 13.2109 28.4825 13.5868 28.1666 13.9035C27.8507 14.2203 27.4755 14.4717 27.0624 14.6434C26.6493 14.8152 26.2065 14.9039 25.7591 14.9045C23.8798 14.9045 22.357 13.3778 22.357 11.494C22.358 12.3974 22.0002 13.2642 21.3622 13.9037C20.7242 14.5433 19.8583 14.9033 18.9549 14.9045C17.0756 14.9045 15.5528 13.3778 15.5528 11.494C15.5538 12.3974 15.196 13.2642 14.558 13.9037C13.92 14.5433 13.054 14.9033 12.1507 14.9045C10.2714 14.9045 8.74855 13.3778 8.74855 11.494C8.74958 12.3974 8.39175 13.2642 7.75375 13.9037C7.11575 14.5433 6.24983 14.9033 5.34644 14.9045C3.46718 14.9045 1.94434 13.3778 1.94434 11.494C1.94434 11.494 1.94434 9.82532 3.94672 4.48174Z" stroke="#6161FF" stroke-width="2.07367" stroke-linecap="round" stroke-linejoin="round"/>
<path id="Subtract" d="M3.24023 14.1729V19.4413C3.24023 22.3224 3.35623 24.4718 3.48519 25.9707C3.62581 27.6134 4.9212 28.8265 6.56717 28.927C8.4717 29.0443 11.417 29.1609 15.5526 29.1609C19.6883 29.1609 22.6335 29.0443 24.5381 28.9276C26.184 28.8265 27.4794 27.6134 27.6201 25.9707C27.7497 24.4718 27.865 22.3224 27.865 19.4413V14.1729" stroke="#6161FF" stroke-width="2.07367" stroke-linecap="round" stroke-linejoin="round"/>
</g>
</g>
</svg>
