<svg width="41" height="41" viewBox="0 0 41 41" fill="none" xmlns="http://www.w3.org/2000/svg">
<g id="essential">
<path id="Vector" fill-rule="evenodd" clip-rule="evenodd" d="M24.0088 10.2771C23.63 10.4615 23.0672 10.8411 22.7425 11.1231C22.4178 11.405 21.9741 11.9039 21.7576 12.2293C21.5412 12.5546 21.2598 13.0644 21.1407 13.368C21.0108 13.6609 20.8485 14.2248 20.7727 14.6153C20.697 15.0382 20.6645 15.6672 20.7078 16.1878L20.7727 17.0554C19.3982 16.9361 18.6298 16.8168 18.186 16.7192C17.7423 16.6216 16.9089 16.4047 16.3461 16.2204C15.7833 16.0468 14.7334 15.613 14.0191 15.2551C13.3048 14.8972 12.255 14.279 11.6922 13.8778C11.1293 13.4765 10.1444 12.6306 9.50588 11.9798C8.8565 11.34 8.31534 10.8302 8.2937 10.8411C8.27205 10.8628 8.17464 11.0472 8.06641 11.2532C7.95818 11.4593 7.79583 11.8714 7.70925 12.1751C7.61184 12.5004 7.53608 13.1294 7.53608 13.7476C7.53608 14.42 7.60102 15.0057 7.7309 15.4286C7.83913 15.7865 8.07724 16.3722 8.26123 16.7192C8.45604 17.0771 8.91061 17.6736 9.28942 18.0532C9.65741 18.4328 9.92799 18.7581 9.88469 18.7798C9.83058 18.8015 9.56 18.7798 9.25695 18.7256C8.96473 18.6714 8.4344 18.4979 8.09888 18.3569L7.47114 18.0857C7.47114 18.7148 7.5469 19.2028 7.63349 19.5715C7.72007 19.9511 7.93654 20.5368 8.10971 20.873C8.27205 21.22 8.70497 21.8165 9.05131 22.1961C9.40848 22.5757 9.93881 23.0529 10.231 23.2372C10.5341 23.4216 11.0536 23.6928 11.3999 23.8446C11.7679 23.9964 11.9736 24.1374 11.9086 24.1916C11.8437 24.235 11.3133 24.2784 10.7181 24.2676C9.64658 24.2676 9.63576 24.2676 9.7007 24.5061C9.74399 24.6471 9.89552 24.9942 10.047 25.2979C10.2094 25.5907 10.6748 26.1872 11.0969 26.621C11.6813 27.2175 12.0493 27.4886 12.7203 27.8031C13.2182 28.0417 13.9001 28.2586 14.3222 28.3237C14.7226 28.3888 15.0365 28.4864 15.0148 28.5514C14.9932 28.6165 14.5711 28.9202 14.0624 29.2347C13.5645 29.5492 12.7636 29.9613 12.2874 30.1348C11.8112 30.3192 11.0536 30.5687 10.6098 30.688C10.0579 30.8398 9.26778 30.9266 8.153 30.9808C7.25468 31.0133 6.54036 31.0784 6.562 31.1218C6.58365 31.176 7.15727 31.4797 7.8283 31.8159C8.48851 32.1521 9.52753 32.5859 10.1228 32.7919C10.7181 32.9872 11.5947 33.2258 12.071 33.3234C12.5472 33.421 13.4455 33.5511 14.0732 33.6162C14.701 33.6813 15.74 33.6921 16.4002 33.6596C17.0604 33.6162 17.9371 33.5403 18.3484 33.4752C18.7596 33.4101 19.593 33.2366 20.1883 33.0848C20.7835 32.9329 21.6602 32.6401 22.1364 32.4557C22.6127 32.2605 23.2512 31.9785 23.5434 31.8376C23.8465 31.6857 24.6149 31.1977 25.2751 30.7639C26.0544 30.2433 26.8661 29.5709 27.6021 28.8226C28.2298 28.1935 29.0632 27.2175 29.4745 26.6535C29.8749 26.0896 30.5135 24.9833 30.9031 24.2133C31.282 23.4433 31.7365 22.3588 31.9205 21.8274C32.0937 21.2959 32.3426 20.3633 32.4725 19.7668C32.6024 19.1594 32.7322 17.999 32.7755 17.1205L32.8513 15.5696C33.912 14.702 34.5397 14.0838 34.9185 13.6392C35.2973 13.1945 35.6112 12.7607 35.6112 12.6848C35.6112 12.598 35.3081 12.6523 34.6046 12.8909C34.0635 13.0752 33.3708 13.2487 33.0678 13.2813C32.7647 13.3138 32.5483 13.3138 32.5807 13.2813C32.6132 13.2596 32.8513 13.0427 33.1219 12.8258C33.3925 12.598 33.7821 12.1859 34.0094 11.9148C34.2258 11.6436 34.5289 11.1448 34.6804 10.8194C34.8319 10.494 34.9293 10.2121 34.9077 10.1904C34.8752 10.1795 34.6696 10.2663 34.4423 10.3747C34.2258 10.4832 33.6739 10.7218 33.2301 10.9062C32.7864 11.0797 32.1478 11.2857 31.8231 11.3617L31.2278 11.5027C30.3079 10.7869 29.7559 10.4398 29.4096 10.2663C29.074 10.0928 28.5112 9.87586 28.1757 9.7891C27.8294 9.70234 27.18 9.62642 26.7363 9.63727C26.2925 9.63727 25.6431 9.71318 25.3076 9.79995C24.9613 9.88671 24.3768 10.1036 24.0088 10.2771Z" fill="#1D9BF0"/>
</g>
</svg>
