<svg width="57" height="57" viewBox="0 0 57 57" fill="none" xmlns="http://www.w3.org/2000/svg">
<g id="Group 1000001579">
<circle id="Ellipse 205" cx="28.3805" cy="28.4161" r="26.73" stroke="#6161FF" stroke-width="1.86923"/>
<g id="Group">
<path id="Vector" d="M28.5 40C35.1275 40 40.5 34.6275 40.5 28C40.5 21.3726 35.1275 16 28.5 16C21.8726 16 16.5 21.3726 16.5 28C16.5 34.6275 21.8726 40 28.5 40Z" fill="#6B6BFE"/>
<path id="Vector_2" d="M33.3891 28C33.3891 20.6667 28.5002 17 28.5002 17C28.5002 17 23.6113 20.6667 23.6113 28C23.6113 35.3333 28.5002 39 28.5002 39C28.5002 39 33.3891 35.3333 33.3891 28Z" stroke="#E7E7E9" stroke-width="1.375" stroke-linejoin="round"/>
<path id="Vector_3" d="M40.5 28H16.5" stroke="#E7E7E9" stroke-width="1.5"/>
</g>
</g>
</svg>
