<svg width="25" height="26" viewBox="0 0 25 26" fill="none" xmlns="http://www.w3.org/2000/svg">
<path opacity="0.4" d="M17.7083 22.1447H7.29158C4.16659 22.1447 2.08325 20.5822 2.08325 16.9364V9.64474C2.08325 5.9989 4.16659 4.4364 7.29158 4.4364H17.7083C20.8333 4.4364 22.9166 5.9989 22.9166 9.64474V16.9364C22.9166 20.5822 20.8333 22.1447 17.7083 22.1447Z" fill="#1E1E1E"/>
<path d="M12.5001 14.197C11.6251 14.197 10.7397 13.9262 10.0626 13.3741L6.80218 10.7699C6.46884 10.4991 6.40635 10.0095 6.67718 9.67616C6.94801 9.34282 7.4376 9.28033 7.77093 9.55116L11.0313 12.1553C11.823 12.7907 13.1668 12.7907 13.9584 12.1553L17.2188 9.55116C17.5522 9.28033 18.0522 9.33241 18.3126 9.67616C18.5834 10.0095 18.5314 10.5095 18.1876 10.7699L14.9272 13.3741C14.2605 13.9262 13.3751 14.197 12.5001 14.197Z" fill="#1E1E1E"/>
</svg>
