<svg width="25" height="26" viewBox="0 0 25 26" fill="none" xmlns="http://www.w3.org/2000/svg">
<g id="call">
<path id="Vector" opacity="0.4" d="M12.2812 15.1975L8.87492 18.6038C8.49992 18.2704 8.13533 17.9267 7.78117 17.5725C6.70825 16.4892 5.7395 15.3538 4.87492 14.1663C4.02075 12.9788 3.33325 11.7913 2.83325 10.6142C2.33325 9.42668 2.08325 8.29126 2.08325 7.20793C2.08325 6.49959 2.20825 5.82251 2.45825 5.19751C2.70825 4.56209 3.10409 3.97876 3.65617 3.45793C4.32284 2.80168 5.052 2.47876 5.82284 2.47876C6.1145 2.47876 6.40617 2.54126 6.66659 2.66626C6.93742 2.79126 7.177 2.97876 7.3645 3.24959L9.78117 6.65584C9.96867 6.91626 10.1041 7.15584 10.1978 7.38501C10.2916 7.60376 10.3437 7.82251 10.3437 8.02043C10.3437 8.27043 10.2708 8.52043 10.1249 8.76001C9.9895 8.99959 9.79158 9.24959 9.54158 9.49959L8.74992 10.3225C8.63533 10.4371 8.58325 10.5725 8.58325 10.7392C8.58325 10.8225 8.59367 10.8954 8.6145 10.9788C8.64575 11.0621 8.677 11.1246 8.69784 11.1871C8.88534 11.5308 9.20825 11.9788 9.66658 12.5204C10.1353 13.0621 10.6353 13.6142 11.177 14.1663C11.552 14.5308 11.9166 14.885 12.2812 15.1975Z" fill="#1E1E1E"/>
<path id="Vector_2" d="M22.8853 19.4894C22.8853 19.781 22.8332 20.0831 22.729 20.3748C22.6978 20.4581 22.6665 20.5415 22.6249 20.6248C22.4478 20.9998 22.2186 21.354 21.9165 21.6873C21.4061 22.2498 20.8436 22.656 20.2082 22.9165C20.1978 22.9165 20.1874 22.9269 20.177 22.9269C19.5624 23.1769 18.8957 23.3123 18.177 23.3123C17.1145 23.3123 15.979 23.0623 14.7811 22.5519C13.5832 22.0415 12.3853 21.354 11.1978 20.4894C10.7915 20.1873 10.3853 19.8852 9.99988 19.5623L13.4061 16.156C13.6978 16.3748 13.9582 16.5415 14.177 16.656C14.229 16.6769 14.2915 16.7081 14.3645 16.7394C14.4478 16.7706 14.5311 16.781 14.6249 16.781C14.802 16.781 14.9374 16.7185 15.052 16.604L15.8436 15.8227C16.104 15.5623 16.354 15.3644 16.5936 15.2394C16.8332 15.0935 17.0728 15.0206 17.3332 15.0206C17.5311 15.0206 17.7395 15.0623 17.9686 15.156C18.1978 15.2498 18.4374 15.3852 18.6978 15.5623L22.1457 18.0102C22.4165 18.1977 22.604 18.4165 22.7186 18.6769C22.8228 18.9373 22.8853 19.1977 22.8853 19.4894Z" fill="#1E1E1E"/>
</g>
</svg>
