<svg width="21" height="21" viewBox="0 0 21 21" fill="none" xmlns="http://www.w3.org/2000/svg">
<g id="check-square--check-form-validation-checkmark-success-add-addition-box-square-tick">
<path id="Intersect" d="M1.3192 15.4674C1.43991 16.5366 1.91931 17.5335 2.67924 18.2953C3.43917 19.0572 4.43479 19.5391 5.50376 19.6626C7.13016 19.845 8.7976 20 10.5 20C12.2024 20 13.8714 19.845 15.4962 19.6626C16.5652 19.5391 17.5608 19.0572 18.3208 18.2953C19.0807 17.5335 19.5601 16.5366 19.6808 15.4674C19.8541 13.8516 20 12.1918 20 10.5C20 8.80824 19.8541 7.1484 19.6808 5.53112C19.5601 4.46184 19.0807 3.465 18.3208 2.70314C17.5608 1.94128 16.5652 1.45934 15.4962 1.33592C13.8698 1.15656 12.2024 1 10.5 1C8.7976 1 7.12864 1.15504 5.50376 1.33744C4.43479 1.46086 3.43917 1.9428 2.67924 2.70466C1.91931 3.46652 1.43991 4.46336 1.3192 5.53264C1.14592 7.14688 1 8.80672 1 10.5C1 12.1933 1.14592 13.8516 1.3192 15.4674Z" fill="#D7E0FF" fill-opacity="0.44"/>
<path id="Intersect_2" d="M1.3192 15.4674C1.43991 16.5366 1.91931 17.5335 2.67924 18.2953C3.43917 19.0572 4.43479 19.5391 5.50376 19.6626C7.13016 19.845 8.7976 20 10.5 20C12.2024 20 13.8714 19.845 15.4962 19.6626C16.5652 19.5391 17.5608 19.0572 18.3208 18.2953C19.0807 17.5335 19.5601 16.5366 19.6808 15.4674C19.8541 13.8516 20 12.1918 20 10.5C20 8.80824 19.8541 7.1484 19.6808 5.53112C19.5601 4.46184 19.0807 3.465 18.3208 2.70314C17.5608 1.94128 16.5652 1.45934 15.4962 1.33592C13.8698 1.15656 12.2024 1 10.5 1C8.7976 1 7.12864 1.15504 5.50376 1.33744C4.43479 1.46086 3.43917 1.9428 2.67924 2.70466C1.91931 3.46652 1.43991 4.46336 1.3192 5.53264C1.14592 7.14688 1 8.80672 1 10.5C1 12.1933 1.14592 13.8516 1.3192 15.4674Z" stroke="white" stroke-width="1.77333" stroke-linecap="round" stroke-linejoin="round"/>
<path id="Vector" d="M6.69995 11.4502L9.46331 14.3002C10.7644 10.564 11.8467 8.92547 14.2999 6.7002" stroke="white" stroke-width="1.77333" stroke-linecap="round" stroke-linejoin="round"/>
</g>
</svg>
