<svg width="21" height="22" viewBox="0 0 21 22" fill="none" xmlns="http://www.w3.org/2000/svg">
<g id="Frame" clip-path="url(#clip0_657_2811)">
<path id="Vector" fill-rule="evenodd" clip-rule="evenodd" d="M9.83237 20.1647C15.2627 20.1647 19.6647 15.7627 19.6647 10.3324C19.6647 4.90211 15.2627 0.5 9.83237 0.5C4.40211 0.5 0 4.90211 0 10.3324C0 15.7627 4.40211 20.1647 9.83237 20.1647ZM14.7918 8.1146C15.1424 7.65478 15.0537 6.99781 14.5939 6.64726C14.1341 6.29669 13.4771 6.38528 13.1265 6.84512L9.24953 11.9307L7.35903 9.66208C6.98886 9.21788 6.32868 9.15785 5.88449 9.52802C5.44028 9.89819 5.38026 10.5584 5.75043 11.0026L9.32237 15.2889L14.7918 8.1146Z" fill="#1F1F20"/>
</g>
<defs>
<clipPath id="clip0_657_2811">
<rect width="21" height="21" fill="white" transform="translate(0 0.5)"/>
</clipPath>
</defs>
</svg>
