<svg width="59" height="59" viewBox="0 0 59 59" fill="none" xmlns="http://www.w3.org/2000/svg">
<g id="div.CuHomeTabs_svgContainer__TQmy5">
<rect width="59" height="59" fill="#D8FCFC"/>
<g id="download 3_layerstyle">
<g id="Group">
<path id="Subtract" fill-rule="evenodd" clip-rule="evenodd" d="M34.3158 13.3147C34.1053 13.4982 33.9737 13.8391 34 14.1013C34.0263 14.3636 34.2105 14.7307 34.3947 14.888C34.5789 15.0716 35.6316 15.3862 36.7105 15.596L38.6579 15.9369C36.4211 17.3267 33.7368 18.7164 31.2895 19.9489C28.8158 21.1551 25.5 22.5711 23.9211 23.0693C22.3421 23.5676 19.6579 24.3542 18 24.8C16.3421 25.2458 14.8158 25.744 14.6316 25.9276C14.4474 26.1111 14.2895 26.5044 14.3158 26.8191C14.3158 27.16 14.5526 27.5533 14.8421 27.6844C15.2368 27.868 16.3158 27.7107 19.1316 27.0027C21.1842 26.4782 24.0526 25.6391 25.5 25.1409C26.9474 24.6427 29.6053 23.5413 31.4211 22.676C33.2368 21.8107 35.8158 20.4471 37.1579 19.6604C38.4737 18.8738 39.6316 18.2707 39.7105 18.2969C39.7895 18.3493 39.6316 19.2671 39.3158 20.3422C38.7895 22.2302 38.7895 22.3351 39.2368 22.7809C39.5 23.0431 39.9211 23.2529 40.1579 23.2267C40.4211 23.2267 40.7895 22.9644 41 22.6236C41.2105 22.3089 41.6842 20.8667 42.0789 19.4244C42.4474 17.9822 42.7368 16.3564 42.7368 15.8058C42.7368 14.9929 42.6316 14.7831 42 14.5471C41.6053 14.3898 40.1579 13.9702 38.7895 13.6293C37.4211 13.2884 35.9211 13 35.5 13C35.0526 13 34.5263 13.1311 34.3158 13.3147ZM35.2368 25.6129C33.5789 25.7702 33.3158 25.8751 32.5789 26.6618C32.0526 27.2387 31.7105 27.9467 31.6053 28.6547L31.4211 29.7822C25.8158 29.7298 24.7632 29.8084 24.1842 30.0969C23.7632 30.3329 23.1842 30.8049 22.9211 31.1982C22.6842 31.5653 22.3947 32.3258 22.3158 32.8502L22.1579 33.8467C16.3158 33.8467 15.2632 33.9516 14.7368 34.24C14.3421 34.4498 13.7895 34.9742 13.5 35.42C13.1579 35.9707 13.0263 36.7049 13 37.9636C13 39.1436 13.1579 40.0613 13.4474 40.6907C13.7105 41.2151 14.2105 41.8182 14.5789 42.0542C15.1579 42.4476 16.5789 42.5 27.8684 42.5C39.4737 42.5 40.5789 42.4738 41.2368 42.028C41.6316 41.792 42.1842 41.1889 42.4737 40.7169C42.9474 39.9564 43 39.4058 43 34.1089C43 28.9693 42.9474 28.2351 42.5 27.4222C42.2368 26.924 41.6842 26.3209 41.2632 26.0849C40.8421 25.8489 39.7368 25.5867 38.7895 25.5342C37.8421 25.4818 36.2368 25.508 35.2368 25.6129ZM33.7631 33.3748C33.7631 30.569 33.842 28.7859 34.0262 28.445C34.2894 27.9992 34.6315 27.9468 37.1578 27.9468C39.0789 27.9468 40.0789 28.0517 40.3157 28.2614C40.5525 28.5237 40.6315 30.0183 40.6315 39.7468L39.9736 40.009C39.6052 40.1401 38.1578 40.2712 34.1841 40.2712L33.9736 39.0388C33.8683 38.3308 33.7631 35.7872 33.7631 33.3748ZM24.6052 36.6526C24.5262 34.2663 24.5789 33.0339 24.8157 32.6668C25.0789 32.1948 25.421 32.1423 27.9473 32.1423C29.921 32.1161 30.8683 32.221 31.0789 32.457C31.3157 32.693 31.3947 33.8468 31.2894 40.1401H24.7104L24.6052 36.6526ZM15.7894 36.3641C15.3683 36.5739 15.2894 36.8886 15.3157 38.1734C15.3683 39.4583 15.4736 39.7992 15.8947 40.009C16.1841 40.1401 17.6841 40.245 19.2368 40.1926L22.0789 40.1401C22.1841 37.3343 22.1052 36.6001 21.8947 36.3903C21.6578 36.1543 20.7631 36.0494 18.921 36.0757C17.4736 36.0757 16.0525 36.2068 15.7894 36.3641Z" fill="#1B9C9C"/>
<g id="Vector">
<path d="M33.7631 33.3748C33.7631 30.569 33.842 28.7859 34.0262 28.445C34.2894 27.9992 34.6315 27.9468 37.1578 27.9468C39.0789 27.9468 40.0789 28.0517 40.3157 28.2614C40.5525 28.5237 40.6315 30.0183 40.6315 39.7468L39.9736 40.009C39.6052 40.1401 38.1578 40.2712 34.1841 40.2712L33.9736 39.0388C33.8683 38.3308 33.7631 35.7872 33.7631 33.3748Z" fill="#E6FBFB" fill-opacity="0.5"/>
<path d="M24.6052 36.6526C24.5262 34.2663 24.5789 33.0339 24.8157 32.6668C25.0789 32.1948 25.421 32.1423 27.9473 32.1423C29.921 32.1161 30.8683 32.221 31.0789 32.457C31.3157 32.693 31.3947 33.8468 31.2894 40.1401H24.7104L24.6052 36.6526Z" fill="#E6FBFB" fill-opacity="0.5"/>
<path d="M15.3157 38.1734C15.2894 36.8886 15.3683 36.5739 15.7894 36.3641C16.0525 36.2068 17.4736 36.0757 18.921 36.0757C20.7631 36.0494 21.6578 36.1543 21.8947 36.3903C22.1052 36.6001 22.1841 37.3343 22.0789 40.1401L19.2368 40.1926C17.6841 40.245 16.1841 40.1401 15.8947 40.009C15.4736 39.7992 15.3683 39.4583 15.3157 38.1734Z" fill="#E6FBFB" fill-opacity="0.5"/>
</g>
</g>
</g>
</g>
</svg>
