<svg width="58" height="58" viewBox="0 0 58 58" fill="none" xmlns="http://www.w3.org/2000/svg">
<g id="div.CuHomeTabs_svgContainer__TQmy5">
<rect width="58" height="58" fill="#D4EEE3"/>
<g id="download 6_layerstyle">
<g id="Group">
<path id="Subtract" fill-rule="evenodd" clip-rule="evenodd" d="M26.8956 16.5806C25.9474 17.32 25.7855 17.3431 24.3749 17.2507C23.0567 17.1814 22.7792 17.2276 22.201 17.7128C21.831 17.9901 21.2991 18.7756 21.0216 19.3995C20.5822 20.3699 20.3741 20.601 19.6109 20.8321C19.1253 20.9938 18.4083 21.4328 18.0152 21.8256C17.3677 22.4957 17.3214 22.6805 17.3214 24.2055C17.2983 25.6843 17.2289 25.9846 16.5583 26.9551C16.0032 27.7869 15.8182 28.3183 15.8182 29.0346C15.8414 29.7971 16.0264 30.2823 16.6045 31.0679C17.3677 32.0845 17.3908 32.1539 17.252 33.6557C17.0758 35.3412 17.9145 36.7084 19.7497 37.1909C20.3741 37.3758 20.5822 37.5837 20.7903 38.2076C20.906 38.6466 21.3454 39.3629 21.7385 39.825C22.4554 40.6337 22.5016 40.6568 24.1667 40.6568C25.693 40.6568 25.9937 40.7492 27.0343 41.4193C27.8438 41.9507 28.4682 42.1586 29.1157 42.1818C29.8095 42.1818 30.2951 41.9738 31.0814 41.3962C32.0527 40.6568 32.2146 40.6337 33.6253 40.7261C34.9434 40.7954 35.2209 40.7492 35.7991 40.264C36.1691 39.9867 36.701 39.2011 36.9785 38.5773C37.4179 37.6068 37.6261 37.3758 38.3892 37.1447C38.8749 36.983 39.5918 36.544 39.9849 36.1512C40.6324 35.4811 40.6787 35.2962 40.6787 33.7713C40.7018 32.2925 40.7712 31.9921 41.4418 31.0217C41.9969 30.1899 42.1819 29.6584 42.1819 28.9191C42.1587 28.1797 41.9737 27.6945 41.3956 26.9089C40.6324 25.8922 40.6093 25.8229 40.7481 24.321C40.9243 22.6356 40.0856 21.2684 38.2505 20.7858C37.6261 20.601 37.4179 20.393 37.2098 19.7692C37.0942 19.3302 36.6548 18.6139 36.2616 18.1518C35.5447 17.3431 35.4985 17.32 33.8334 17.32C32.3071 17.32 32.0064 17.2276 30.9658 16.5575C30.1332 16.0261 29.5551 15.8181 28.8613 15.8181C28.1675 15.8181 27.6587 16.003 26.8956 16.5806ZM27.5661 18.7064L26.6873 19.5151L23.1259 19.2378C22.039 22.0567 21.9696 22.1261 20.6977 22.6113L19.4026 23.1196C19.5182 26.6317 19.4951 26.701 18.7088 27.6021C18.2694 28.1104 17.8994 28.7112 17.8994 28.9422C17.8994 29.1502 18.2694 29.7972 18.7319 30.3748L19.5876 31.4146L19.287 34.7649C22.1546 35.8278 22.1777 35.8509 22.6634 37.191L23.1721 38.5773C26.641 38.4618 26.7104 38.4849 27.6817 39.2705C28.2136 39.7326 28.8611 40.0792 29.1155 40.0792C29.3699 40.0561 29.9712 39.7095 30.4568 39.2705C31.3125 38.4618 31.3125 38.4618 33.0007 38.6004L34.6658 38.7391C35.8221 35.8971 35.8452 35.8509 37.2096 35.3656L38.5972 34.8573C38.4816 31.3452 38.5047 31.2759 39.291 30.3748C39.7304 29.8665 40.1004 29.2657 40.1004 29.0347C40.1004 28.8267 39.7304 28.1798 39.2678 27.6021L38.4122 26.5624L38.7128 23.212C35.8452 22.1492 35.8221 22.1261 35.3364 20.7859L34.8276 19.3996C31.3587 19.5151 31.2894 19.492 30.3412 18.7064C29.7862 18.2443 29.1386 17.8977 28.8843 17.8977C28.6299 17.8977 28.0286 18.2674 27.5661 18.7064Z" fill="#0C8955"/>
<path id="Vector" d="M26.6873 19.5151L27.5661 18.7064C28.0286 18.2674 28.6299 17.8977 28.8843 17.8977C29.1386 17.8977 29.7862 18.2443 30.3412 18.7064C31.2894 19.492 31.3587 19.5151 34.8276 19.3996L35.3364 20.7859C35.8221 22.1261 35.8452 22.1492 38.7128 23.212L38.4122 26.5624L39.2678 27.6021C39.7304 28.1798 40.1004 28.8267 40.1004 29.0347C40.1004 29.2657 39.7304 29.8665 39.291 30.3748C38.5047 31.2759 38.4816 31.3452 38.5972 34.8573L37.2096 35.3656C35.8452 35.8509 35.8221 35.8971 34.6658 38.7391L33.0007 38.6004C31.3125 38.4618 31.3125 38.4618 30.4568 39.2705C29.9712 39.7095 29.3699 40.0561 29.1155 40.0792C28.8611 40.0792 28.2136 39.7326 27.6817 39.2705C26.7104 38.4849 26.641 38.4618 23.1721 38.5773L22.6634 37.191C22.1777 35.8509 22.1546 35.8278 19.287 34.7649L19.5876 31.4146L18.7319 30.3748C18.2694 29.7972 17.8994 29.1502 17.8994 28.9422C17.8994 28.7112 18.2694 28.1104 18.7088 27.6021C19.4951 26.701 19.5182 26.6317 19.4026 23.1196L20.6977 22.6113C21.9696 22.1261 22.039 22.0567 23.1259 19.2378L26.6873 19.5151Z" fill="#D9F7EA" fill-opacity="0.5"/>
<path id="Vector_2" d="M30.8962 25.5457C31.5206 24.8756 32.2376 24.2286 32.5151 24.1362C32.7926 24.0438 33.1626 24.0438 33.3707 24.1362C33.5789 24.2286 33.8101 24.529 33.9026 24.8063C34.0645 25.1991 33.787 25.615 32.4226 27.0706C31.2894 28.3183 30.48 29.4736 29.8093 30.8369C29.3006 31.9228 28.7455 33.1474 28.5836 33.5402C28.4218 33.9561 28.0286 34.4414 27.7049 34.58C27.1267 34.8804 27.0342 34.8111 25.161 32.8471C23.7503 31.3914 23.2415 30.6982 23.2647 30.3285C23.3109 30.0051 23.5653 29.7278 23.9816 29.5661C24.5597 29.3581 24.6985 29.4274 27.0342 31.7842L27.4273 30.7907C27.6586 30.2361 28.2599 29.127 28.7918 28.2952C29.3237 27.4634 30.2718 26.2388 30.8962 25.5457Z" fill="#0C8955"/>
</g>
</g>
</g>
</svg>
