<svg width="55" height="55" viewBox="0 0 55 55" fill="none" xmlns="http://www.w3.org/2000/svg">
<rect width="55" height="55" fill="#F8F8FC"/>
<path d="M25.307 18.5059L26.1403 17.739C26.5789 17.3227 27.1491 16.9722 27.3903 16.9722C27.6315 16.9722 28.2456 17.3008 28.7719 17.739C29.671 18.484 29.7368 18.5059 33.0263 18.3964L33.5087 19.711C33.9692 20.9818 33.9912 21.0037 36.7105 22.0116L36.4254 25.1886L37.2368 26.1746C37.6754 26.7224 38.0263 27.3359 38.0263 27.5331C38.0263 27.7522 37.6754 28.3219 37.2587 28.8039C36.5131 29.6584 36.4912 29.7241 36.6008 33.0546L35.285 33.5366C33.9912 33.9967 33.9692 34.0405 32.8728 36.7355L31.2938 36.6041C29.6929 36.4726 29.6929 36.4726 28.8815 37.2395C28.421 37.6558 27.8508 37.9844 27.6096 38.0063C27.3684 38.0063 26.7543 37.6777 26.2499 37.2395C25.3289 36.4945 25.2631 36.4726 21.9736 36.5822L21.4912 35.2675C21.0307 33.9967 21.0087 33.9748 18.2894 32.9669L18.5745 29.7899L17.7631 28.8039C17.3245 28.2561 16.9736 27.6426 16.9736 27.4454C16.9736 27.2263 17.3245 26.6567 17.7412 26.1746C18.4868 25.3201 18.5087 25.2544 18.3991 21.924L19.6271 21.4419C20.8333 20.9818 20.8991 20.9161 21.9298 18.243L25.307 18.5059Z" fill="#6161FF" fill-opacity="0.1"/>
<circle cx="26.9999" cy="28" r="11" fill="white" fill-opacity="0.21"/>
<path fill-rule="evenodd" clip-rule="evenodd" d="M25.5044 15.723C24.6053 16.4242 24.4518 16.4461 23.114 16.3585C21.864 16.2927 21.6009 16.3365 21.0526 16.7967C20.7018 17.0596 20.1974 17.8046 19.9342 18.3961C19.5175 19.3164 19.3202 19.5355 18.5965 19.7546C18.136 19.908 17.4561 20.3243 17.0833 20.6968C16.4693 21.3322 16.4254 21.5074 16.4254 22.9535C16.4035 24.3558 16.3377 24.6407 15.7018 25.5609C15.1754 26.3497 15 26.8536 15 27.5329C15.0219 28.2559 15.1974 28.716 15.7456 29.461C16.4693 30.4251 16.4912 30.4908 16.3596 31.915C16.1925 33.5132 16.9878 34.8098 18.7281 35.2673C19.3202 35.4426 19.5175 35.6398 19.7149 36.2314C19.8246 36.6477 20.2412 37.3269 20.614 37.7651C21.2939 38.532 21.3377 38.5539 22.9167 38.5539C24.364 38.5539 24.6491 38.6415 25.636 39.277C26.4035 39.7809 26.9956 39.9781 27.6096 40C28.2675 40 28.7281 39.8028 29.4737 39.255C30.3947 38.5539 30.5482 38.532 31.886 38.6196C33.136 38.6854 33.3991 38.6415 33.9474 38.1814C34.2982 37.9185 34.8026 37.1735 35.0658 36.5819C35.4825 35.6617 35.6798 35.4426 36.4035 35.2235C36.864 35.0701 37.5439 34.6538 37.9167 34.2813C38.5307 33.6459 38.5746 33.4706 38.5746 32.0245C38.5965 30.6223 38.6623 30.3374 39.2982 29.4172C39.8246 28.6284 40 28.1245 40 27.4233C39.9781 26.7222 39.8026 26.2621 39.2544 25.5171C38.5307 24.553 38.5088 24.4873 38.6404 23.0631C38.8075 21.4649 38.0122 20.1683 36.2719 19.7108C35.6798 19.5355 35.4825 19.3383 35.2851 18.7467C35.1754 18.3304 34.7588 17.6512 34.386 17.213C33.7061 16.4461 33.6623 16.4242 32.0833 16.4242C30.636 16.4242 30.3509 16.3365 29.364 15.7011C28.5746 15.1972 28.0263 15 27.3684 15C26.7105 15 26.2281 15.1753 25.5044 15.723ZM26.1403 17.739L25.307 18.5059L21.9298 18.243C20.8991 20.9161 20.8333 20.9818 19.6271 21.4419L18.3991 21.924C18.5087 25.2544 18.4868 25.3201 17.7412 26.1746C17.3245 26.6567 16.9736 27.2263 16.9736 27.4454C16.9736 27.6426 17.3245 28.2561 17.7631 28.8039L18.5745 29.7899L18.2894 32.9669C21.0087 33.9748 21.0307 33.9967 21.4912 35.2675L21.9736 36.5822C25.2631 36.4726 25.3289 36.4945 26.2499 37.2395C26.7543 37.6777 27.3684 38.0063 27.6096 38.0063C27.8508 37.9844 28.421 37.6558 28.8815 37.2395C29.2244 36.9154 29.4224 36.7283 29.6575 36.6302C29.9788 36.4961 30.3694 36.5282 31.2938 36.6041L32.8728 36.7355C33.9692 34.0405 33.9912 33.9967 35.285 33.5366L36.6008 33.0546C36.4912 29.7241 36.5131 29.6584 37.2587 28.8039C37.6754 28.3219 38.0263 27.7522 38.0263 27.5331C38.0263 27.3359 37.6754 26.7224 37.2368 26.1746L36.4254 25.1886L36.7105 22.0116C33.9912 21.0037 33.9692 20.9818 33.5087 19.711L33.0263 18.3964C29.7368 18.5059 29.671 18.484 28.7719 17.739C28.2456 17.3008 27.6315 16.9722 27.3903 16.9722C27.1491 16.9722 26.5789 17.3227 26.1403 17.739Z" fill="#6161FF"/>
<path d="M29.2982 24.2245C29.8903 23.5891 30.5702 22.9756 30.8333 22.888C31.0965 22.8004 31.4473 22.8004 31.6447 22.888C31.8421 22.9756 32.0614 23.2605 32.1491 23.5234C32.3026 23.8959 32.0394 24.2903 30.7456 25.6706C29.671 26.8538 28.9035 27.9493 28.2675 29.2421C27.7851 30.2719 27.2587 31.4331 27.1052 31.8056C26.9517 32.2 26.5789 32.6601 26.2719 32.7916C25.7237 33.0764 25.6359 33.0107 23.8596 31.1483C22.5219 29.7679 22.0395 29.1106 22.0614 28.76C22.1052 28.4533 22.3465 28.1904 22.7412 28.037C23.2895 27.8398 23.421 27.9055 25.6359 30.1404L26.0087 29.1983C26.228 28.6724 26.7982 27.6207 27.3026 26.8319C27.807 26.0431 28.7061 24.8819 29.2982 24.2245Z" fill="#6161FF"/>
</svg>
