<svg width="55" height="55" viewBox="0 0 55 55" fill="none" xmlns="http://www.w3.org/2000/svg">
<rect width="55" height="55" fill="#F8F8FC"/>
<path d="M17.36 33.3166C17.4961 34.5225 18.0368 35.6468 18.8939 36.506C19.7509 37.3653 20.8738 37.9088 22.0794 38.048C23.9137 38.2537 25.7943 38.4286 27.7143 38.4286C29.6343 38.4286 31.5166 38.2537 33.3491 38.048C34.5547 37.9088 35.6776 37.3653 36.5347 36.506C37.3918 35.6468 37.9324 34.5225 38.0686 33.3166C38.264 31.4943 38.4286 29.6223 38.4286 27.7143C38.4286 25.8063 38.264 23.9343 38.0686 22.1103C37.9324 20.9043 37.3918 19.7801 36.5347 18.9208C35.6776 18.0616 34.5547 17.5181 33.3491 17.3789C31.5149 17.1766 29.6343 17 27.7143 17C25.7943 17 23.912 17.1749 22.0794 17.3806C20.8738 17.5198 19.7509 18.0633 18.8939 18.9225C18.0368 19.7818 17.4961 20.906 17.36 22.112C17.1646 23.9326 17 25.8046 17 27.7143C17 29.624 17.1646 31.4943 17.36 33.3166Z" fill="#6161FF" fill-opacity="0.1" stroke="#6161FF" stroke-width="2" stroke-linecap="round" stroke-linejoin="round"/>
<path d="M23.4285 28.7859L26.5451 32.0001C28.0125 27.7864 29.2331 25.9384 32 23.4287" stroke="#6161FF" stroke-width="2" stroke-linecap="round" stroke-linejoin="round"/>
</svg>
