<svg width="55" height="55" viewBox="0 0 55 55" fill="none" xmlns="http://www.w3.org/2000/svg">
<rect width="55" height="55" fill="white"/>
<path d="M35.5819 20.4053L38.6294 18.5188L41.6769 16.6323L41.8094 30.4487L41.0939 31.2724C40.6699 31.7506 39.9014 32.5743 39.3714 33.1323C38.8149 33.7168 38.2319 34.1685 38.0994 34.1685C37.9669 34.1685 37.1984 33.5308 36.4034 32.7603C35.6348 32.0163 34.4953 30.741 33.8858 29.9704C33.3028 29.2265 32.7993 28.5091 32.7993 28.3762C32.7993 28.27 33.2498 28.1105 33.7798 28.0043C34.3363 27.898 35.2108 27.526 35.7143 27.2072C36.3327 26.782 36.6419 26.3658 36.6419 25.9584C36.6419 25.613 36.4299 25.1878 36.1914 25.0284C35.8469 24.8159 35.5023 24.8424 34.7339 25.241C34.0183 25.613 33.1703 25.7724 31.7393 25.7724C29.7783 25.799 29.7253 25.8255 28.1618 27.0477C26.9958 27.9777 26.3333 28.3231 25.7238 28.3231C25.1408 28.3231 24.6108 28.084 24.1868 27.6589C23.7628 27.2337 23.5243 26.7023 23.5243 26.1178C23.5243 25.4004 23.8688 24.9487 25.7768 23.0623C27.5258 21.3883 28.3208 20.8038 29.2748 20.5115C30.1493 20.2458 31.3418 20.1661 35.5819 20.4053Z" fill="#6161FF" fill-opacity="0.1"/>
<path d="M13.1893 30.4487V23.8062V17.1637L15.3888 18.2797C17.4558 19.3425 17.6678 19.369 20.2118 19.4487C21.6693 19.4753 23.4183 19.6613 25.3793 20.2193L23.5508 22.0792C22.3848 23.2748 21.6163 24.311 21.4043 25.0019C21.1128 25.8787 21.1128 26.3038 21.4043 27.2603C21.5898 27.9777 22.1198 28.8545 22.7028 29.439C23.2593 29.997 24.0543 30.4753 24.5843 30.5816C25.0878 30.6878 25.9623 30.7144 26.4923 30.6081C27.0488 30.5284 28.0293 30.0236 28.6918 29.5188L28.7867 29.4465C29.4067 28.974 29.9121 28.5888 29.9373 28.5888C29.9903 28.5888 30.8118 29.625 31.7658 30.9004C32.7463 32.2023 34.1508 33.7965 36.2444 35.7627L35.5023 36.2675C35.1048 36.5332 34.1773 37.0646 33.4618 37.4366C32.7198 37.8086 31.3683 38.3665 30.4143 38.6588C29.4603 38.9777 27.9763 39.3496 27.1018 39.4825C25.8298 39.695 25.2203 39.6685 24.0543 39.3231C23.2593 39.0839 21.9343 38.4728 21.1393 37.9414C20.3443 37.41 18.2243 35.5236 13.1893 30.4487Z" fill="#6161FF" fill-opacity="0.1"/>
<path d="M35.0518 17.9342L38.2318 15.968C39.9808 14.9052 41.6238 14.0018 41.8888 14.0018C42.1273 13.9753 42.5248 14.241 42.7368 14.5864C43.0018 14.9318 43.0548 15.3569 42.9488 15.6757C42.8163 15.9414 42.3923 16.34 41.9418 16.5791C41.5178 16.7917 39.9013 17.7482 35.5818 20.4052L33.0643 20.2723C31.3153 20.1661 30.1758 20.2458 29.3013 20.5115C28.3208 20.8037 27.5258 21.3883 25.7768 23.0888C23.8688 24.9487 23.5243 25.4003 23.5243 26.1443C23.5243 26.7023 23.7628 27.2337 24.1868 27.6588C24.6108 28.0839 25.1408 28.323 25.7238 28.323C26.3333 28.323 26.9958 27.9776 28.1618 27.0477C29.7253 25.8255 29.7783 25.7989 31.7393 25.7723C33.1703 25.7723 34.0183 25.6129 34.7338 25.2409C35.5023 24.8424 35.8468 24.8158 36.1913 25.0284C36.4298 25.1878 36.6418 25.6129 36.6418 25.9583C36.6418 26.3657 36.3326 26.782 35.7143 27.2071C35.2108 27.5259 34.3363 27.8979 33.7798 28.0042C33.2498 28.1105 32.7993 28.2699 32.7993 28.4028C32.7993 28.509 33.3028 29.2264 33.9123 29.9969C34.5218 30.7409 35.3963 31.7771 35.8203 32.2554C36.2708 32.7602 36.9598 33.3713 37.3838 33.6636C38.0993 34.1684 38.0993 34.1684 38.9738 33.5573C39.4243 33.2119 40.0868 32.4945 40.4313 31.9631C40.7493 31.4317 41.2263 30.9269 41.4913 30.8472C41.7298 30.7675 42.1273 30.7675 42.3393 30.8206C42.5513 30.9003 42.8163 31.1395 42.9488 31.3786C43.0548 31.5911 42.9488 32.1491 42.7368 32.6539C42.5248 33.1056 41.8358 34.009 41.2263 34.6467C40.5903 35.2844 40.0073 35.7892 39.9013 35.7626C39.7688 35.7626 39.0003 36.3737 38.1788 37.0911C37.3308 37.8351 35.7408 38.8979 34.6543 39.4559C33.5678 40.0404 31.6598 40.8109 30.4143 41.1829C28.8508 41.6612 27.4993 41.9003 26.0418 41.9003C24.5843 41.9269 23.5508 41.794 22.7293 41.4752C22.0668 41.2095 20.7683 40.4921 19.8143 39.881C18.8603 39.2433 16.8463 37.5162 15.3358 36.0018C13.8253 34.4873 12.4208 32.9728 12.2353 32.6539C11.9173 32.1225 11.9173 31.9366 12.2618 31.3786C12.4738 31.0066 12.8448 30.7143 13.0568 30.7143C13.2688 30.7143 14.8588 32.1225 16.5813 33.8496C18.2773 35.5766 20.3443 37.41 21.1393 37.9414C21.9343 38.4728 23.2593 39.0839 24.0543 39.323C25.2203 39.6684 25.8298 39.695 27.1018 39.4824C27.9763 39.3496 29.4603 38.9776 30.4143 38.6588C31.3683 38.3399 32.7463 37.8085 33.4618 37.4365C34.2038 37.0646 35.1048 36.5332 36.2443 35.7626L34.8928 34.5138C34.1508 33.7965 32.7463 32.1757 31.7658 30.9003C30.8118 29.625 29.9903 28.5887 29.9638 28.5887C29.9121 28.5887 29.3819 28.9928 28.7415 29.4808L28.6918 29.5187C28.0293 30.0235 27.0488 30.5283 26.5188 30.6081C25.9623 30.6878 25.0878 30.6878 24.5843 30.5815C24.0543 30.4752 23.2593 29.9969 22.7028 29.4124C22.1198 28.8544 21.5898 27.9511 21.4043 27.2602C21.1128 26.2772 21.1128 25.8786 21.4043 25.0018C21.6163 24.311 22.3848 23.2747 25.3793 20.2192L24.1073 19.8472C23.4183 19.6612 21.6693 19.4752 20.2118 19.4221C17.6413 19.369 17.5088 19.3424 14.9383 18.067C13.5073 17.3496 12.2353 16.5525 12.1028 16.2868C11.9703 16.0211 11.9703 15.6226 12.1293 15.3038C12.2883 14.9584 12.6593 14.7724 13.1363 14.7724C13.5338 14.7724 14.7528 15.2772 15.8393 15.8883C17.7738 16.9511 17.9063 16.9777 20.6093 17.0308C22.7823 17.0839 23.8423 17.2434 25.4588 17.8013C27.2343 18.4124 27.6318 18.4656 28.6123 18.1999C29.2483 18.0405 30.9443 17.9076 35.0518 17.9342Z" fill="#6161FF"/>
</svg>
