<svg width="55" height="55" viewBox="0 0 55 55" fill="none" xmlns="http://www.w3.org/2000/svg">
<rect width="55" height="55" fill="#F8F8FC"/>
<path opacity="0.1" d="M15.0883 32.199C15.1359 30.0348 15.2311 28.0845 15.3024 27.8229C15.4452 27.4186 15.6831 27.3948 18.3243 27.5137C20.1564 27.5851 21.822 27.8229 22.869 28.1321C23.9159 28.4175 24.7011 28.798 24.9628 29.1548C25.2484 29.5195 25.3435 29.9 25.2484 30.2964C25.177 30.6294 24.8915 31.105 24.6297 31.3666C24.2014 31.8185 24.0587 31.8185 22.4407 31.5807C21.4651 31.438 20.5609 31.4142 20.2992 31.5093C20.0851 31.6283 19.8947 31.9612 19.8947 32.2704C19.8709 32.5558 20.0137 32.9125 20.1802 33.0552C20.3468 33.1979 22.3693 33.6498 28.8175 34.7914L33.267 33.745C36.7647 32.9125 37.8592 32.7223 38.3351 32.9125C38.6682 33.0315 39.049 33.412 39.1679 33.745C39.3345 34.1731 39.3107 34.506 39.1203 34.9341C38.8824 35.4098 38.1686 35.8141 36.1937 36.6465C34.766 37.2411 32.7197 38.0735 31.6728 38.4541C30.1024 39.0486 29.3172 39.1913 24.5345 39.3578L15.0169 36.0995L15.0883 32.199Z" fill="#6161FF"/>
<path fill-rule="evenodd" clip-rule="evenodd" d="M31.7918 13.1486C31.4586 13.2438 30.7686 13.553 30.2451 13.8146C29.7217 14.1 29.0079 14.6232 28.6747 15.0037C28.3178 15.3605 27.8181 16.1216 27.5326 16.6686C27.2471 17.2394 26.9378 18.3572 26.795 19.1896C26.6522 20.1409 26.6522 21.1874 26.795 22.1625C26.9378 22.9712 27.2233 24.0414 27.485 24.5409C27.723 25.0165 28.294 25.7776 28.7223 26.2057C29.1744 26.6576 29.9358 27.2046 30.4117 27.4662C30.9114 27.704 31.9821 28.0132 32.8149 28.1321C33.7191 28.2748 34.9088 28.2748 35.8844 28.1321C36.7885 28.0132 37.8117 27.7516 38.2162 27.5613C38.6207 27.3711 39.3107 26.8478 39.7866 26.4435C40.2625 26.0154 40.9287 25.1354 41.2618 24.4695C41.7615 23.4944 41.9043 22.8522 41.9756 21.0209C42.047 19.142 41.9756 18.5237 41.5711 17.4534C41.3094 16.7399 40.7383 15.741 40.3101 15.2178C39.8818 14.7183 38.93 14.0286 38.2162 13.6957C37.1216 13.1724 36.5268 13.0535 34.6471 13.0059C33.4098 12.9822 32.1249 13.0297 31.7918 13.1486ZM14.66 25.7776C14.3031 26.1343 14.2317 26.3722 14.3983 26.8003C14.5886 27.2997 14.7552 27.3235 17.777 27.4662C19.633 27.5613 21.6555 27.7992 22.631 28.037C23.6066 28.2986 24.5108 28.7029 24.8439 29.0359C25.2246 29.4402 25.3198 29.7494 25.2246 30.2489C25.1532 30.6056 24.8915 31.105 24.6297 31.3667C24.2014 31.8186 24.0587 31.8186 22.4407 31.5807C21.4651 31.438 20.5609 31.4142 20.323 31.5094C20.0851 31.6283 19.8947 31.9613 19.8947 32.2704C19.8709 32.5558 20.0137 32.9126 20.1802 33.0553C20.3468 33.198 22.3693 33.6499 24.6535 34.0542L28.8175 34.7915C36.7647 32.9126 37.8593 32.7223 38.3351 32.9126C38.6683 33.0553 39.049 33.412 39.1679 33.745C39.3345 34.1731 39.3107 34.5061 39.1203 34.9342C38.8824 35.4098 38.1686 35.8141 36.1937 36.6466C34.766 37.2411 32.7197 38.0736 31.6728 38.4541C30.1024 39.0487 29.3172 39.1914 27.1519 39.2627L24.5346 39.3579C16.968 36.7893 14.6362 36.0758 14.4697 36.1471C14.3269 36.1947 14.1127 36.5276 14.0414 36.9082C13.9462 37.3125 14.0176 37.6692 14.2317 37.8357C14.3983 38.0022 16.3018 38.7633 18.4671 39.5243C20.6323 40.3092 22.9642 41.0465 23.6542 41.213C24.3204 41.3557 25.7243 41.4746 26.7236 41.4746C27.7468 41.4746 29.222 41.3081 30.0072 41.1416C30.7924 40.9513 33.3146 40.0238 35.5988 39.0962C37.8831 38.1687 39.9531 37.2174 40.2149 37.0033C40.4528 36.7893 40.8097 36.2898 41.0001 35.8855C41.238 35.4336 41.3332 34.7439 41.2618 33.9828C41.2142 33.3169 40.9763 32.5083 40.7146 32.1515C40.4528 31.8186 39.9293 31.3429 39.5248 31.1051C39.1203 30.8672 38.3827 30.7007 37.8593 30.7007C37.3358 30.7007 35.0516 31.1526 32.7911 31.6996C30.3403 32.2942 28.4368 32.6272 28.0323 32.532C27.6754 32.4607 27.2471 32.3418 27.0805 32.2942C26.8664 32.2229 26.8664 31.985 27.1519 31.2477C27.3661 30.677 27.4374 29.9872 27.3661 29.5354C27.2709 29.1073 27.0092 28.3938 26.7712 27.9894C26.5095 27.5613 25.9146 26.9905 25.4149 26.7527C24.9391 26.4911 23.44 26.063 22.0838 25.8014C20.6323 25.4922 18.7526 25.3019 17.3963 25.3019C15.4452 25.3019 15.0645 25.3733 14.66 25.7776ZM31.6728 15.5271C31.1493 15.7649 30.4831 16.2168 30.1975 16.526C29.912 16.8352 29.5075 17.5249 29.2934 18.0481C29.0554 18.5951 28.8889 19.6892 28.8889 20.6643C28.8651 21.9486 28.984 22.5907 29.4361 23.4945C29.7454 24.1366 30.2689 24.8501 30.602 25.0642C30.9352 25.302 31.6252 25.6112 32.1487 25.7777C32.6721 25.9442 33.7904 26.0869 34.647 26.0631C35.5036 26.0631 36.5744 25.8966 37.0264 25.7063C37.4785 25.5161 38.0972 25.1355 38.4065 24.8501C38.692 24.5885 39.1203 23.9939 39.3345 23.5658C39.5724 23.114 39.7628 22.0199 39.8341 20.9021C39.9293 19.38 39.8579 18.7854 39.4772 17.9292C39.2393 17.3346 38.6444 16.5735 38.1924 16.2406C37.7641 15.9076 37.0026 15.5033 36.5506 15.3368C36.0985 15.1941 35.0277 15.0752 34.1712 15.0752C33.1956 15.0752 32.2676 15.2417 31.6728 15.5271Z" fill="#6161FF"/>
<path d="M33.3384 19.4748C33.3384 17.9289 33.4336 17.3819 33.6953 17.2154C33.8856 17.0965 34.2188 16.9775 34.4091 16.9775C34.5995 16.9775 34.9088 17.0965 35.0753 17.2629C35.2419 17.4294 35.3609 18.1191 35.3609 20.0694H36.1937C36.8599 20.0694 37.0978 20.1883 37.3358 20.6877C37.5975 21.2585 37.5737 21.3537 37.0265 21.7818C36.6458 22.0672 36.0509 22.2337 35.3609 22.2337C34.766 22.2099 34.076 22.0672 33.8143 21.8769C33.4098 21.5915 33.3384 21.2585 33.3384 19.4748Z" fill="#6161FF"/>
</svg>
