<svg width="55" height="55" viewBox="0 0 55 55" fill="none" xmlns="http://www.w3.org/2000/svg">
<rect width="55" height="55" fill="#F8F8FC"/>
<path d="M43.0079 20.3498V22.9557C42.2042 23.3023 41.5196 23.8767 41.0385 24.6079C40.5575 25.3392 40.3012 26.1953 40.3012 27.0706C40.3012 27.9459 40.5575 28.802 41.0385 29.5332C41.5196 30.2645 42.2042 30.8389 43.0079 31.1855V33.7936C43.0079 36.2673 41.2311 37.9231 38.5266 38.2749C31.09 39.2383 26.9314 39.2451 19.4813 38.2749C16.853 37.9321 15 36.2673 15 33.7936V31.1855C15.8037 30.8389 16.4883 30.2645 16.9693 29.5332C17.4504 28.802 17.7067 27.9459 17.7067 27.0706C17.7067 26.1953 17.4504 25.3392 16.9693 24.6079C16.4883 23.8767 15.8037 23.3023 15 22.9557V20.3498C15 17.8739 16.8709 16.31 19.4813 15.8686C26.8417 14.6183 31.0586 14.8065 38.5266 15.8686C40.9958 16.2181 43.0079 17.8739 43.0079 20.3498Z" fill="#6161FF" fill-opacity="0.1"/>
<path d="M43.0079 20.3498V22.9557C42.2042 23.3023 41.5196 23.8767 41.0385 24.6079C40.5575 25.3392 40.3012 26.1953 40.3012 27.0706C40.3012 27.9459 40.5575 28.802 41.0385 29.5332C41.5196 30.2645 42.2042 30.8389 43.0079 31.1855V33.7936C43.0079 36.2673 41.2311 37.9231 38.5266 38.2749C31.09 39.2383 26.9314 39.2451 19.4813 38.2749C16.853 37.9321 15 36.2673 15 33.7936V31.1855C15.8037 30.8389 16.4883 30.2645 16.9693 29.5332C17.4504 28.802 17.7067 27.9459 17.7067 27.0706C17.7067 26.1953 17.4504 25.3392 16.9693 24.6079C16.4883 23.8767 15.8037 23.3023 15 22.9557V20.3498C15 17.8739 16.8709 16.31 19.4813 15.8686C26.8417 14.6183 31.0586 14.8065 38.5266 15.8686C40.9958 16.2181 43.0079 17.8739 43.0079 20.3498Z" stroke="#6161FF" stroke-width="2" stroke-linecap="round" stroke-linejoin="round"/>
<path d="M24.5675 24.327C24.8616 24.3364 25.1546 24.2866 25.4291 24.1806C25.7036 24.0745 25.954 23.9143 26.1653 23.7096C26.3767 23.5049 26.5448 23.2598 26.6596 22.9888C26.7743 22.7179 26.8335 22.4266 26.8335 22.1323C26.8335 21.8381 26.7743 21.5468 26.6596 21.2759C26.5448 21.0049 26.3767 20.7598 26.1653 20.5551C25.954 20.3503 25.7036 20.1902 25.4291 20.0841C25.1546 19.9781 24.8616 19.9282 24.5675 19.9376C23.9852 19.9376 23.4266 20.169 23.0148 20.5808C22.603 20.9926 22.3717 21.5511 22.3717 22.1335C22.3717 22.7158 22.603 23.2743 23.0148 23.6861C23.4266 24.0979 23.9852 24.3293 24.5675 24.3293V24.327Z" fill="#6161FF" fill-opacity="0.1"/>
<path d="M24.5675 24.327C24.8616 24.3364 25.1546 24.2866 25.4291 24.1806C25.7036 24.0745 25.954 23.9143 26.1653 23.7096C26.3767 23.5049 26.5448 23.2598 26.6596 22.9888C26.7743 22.7179 26.8335 22.4266 26.8335 22.1323C26.8335 21.8381 26.7743 21.5468 26.6596 21.2759C26.5448 21.0049 26.3767 20.7598 26.1653 20.5551C25.954 20.3503 25.7036 20.1902 25.4291 20.0841C25.1546 19.9781 24.8616 19.9282 24.5675 19.9376C23.9852 19.9376 23.4266 20.169 23.0148 20.5808C22.603 20.9926 22.3717 21.5511 22.3717 22.1335C22.3717 22.7158 22.603 23.2743 23.0148 23.6861C23.4266 24.0979 23.9852 24.3293 24.5675 24.3293V24.327Z" stroke="#6161FF" stroke-width="2" stroke-linecap="round" stroke-linejoin="round"/>
<path d="M33.53 33.3365C34.1124 33.3365 34.6709 33.1051 35.0827 32.6933C35.4945 32.2815 35.7259 31.723 35.7259 31.1406C35.7259 30.5583 35.4945 29.9998 35.0827 29.588C34.6709 29.1762 34.1124 28.9448 33.53 28.9448C32.9477 28.9448 32.3892 29.1762 31.9774 29.588C31.5656 29.9998 31.3342 30.5583 31.3342 31.1406C31.3342 31.723 31.5656 32.2815 31.9774 32.6933C32.3892 33.1051 32.9477 33.3365 33.53 33.3365Z" fill="#6161FF" fill-opacity="0.1"/>
<path d="M33.53 33.3365C34.1124 33.3365 34.6709 33.1051 35.0827 32.6933C35.4945 32.2815 35.7259 31.723 35.7259 31.1406C35.7259 30.5583 35.4945 29.9998 35.0827 29.588C34.6709 29.1762 34.1124 28.9448 33.53 28.9448C32.9477 28.9448 32.3892 29.1762 31.9774 29.588C31.5656 29.9998 31.3342 30.5583 31.3342 31.1406C31.3342 31.723 31.5656 32.2815 31.9774 32.6933C32.3892 33.1051 32.9477 33.3365 33.53 33.3365Z" stroke="#6161FF" stroke-width="2" stroke-linecap="round" stroke-linejoin="round"/>
<path d="M23.8639 31.7546C28.4012 28.0195 30.6687 25.7789 34.1439 21.4746" stroke="#6161FF" stroke-width="2" stroke-linecap="round" stroke-linejoin="round"/>
</svg>
