<svg width="55" height="55" viewBox="0 0 55 55" fill="none" xmlns="http://www.w3.org/2000/svg">
<rect width="55" height="55" fill="#F8F8FC"/>
<path opacity="0.1" d="M19.7786 17.6712C20.0328 17.5321 20.911 17.3698 21.743 17.2771C22.575 17.2076 24.9322 17.1149 26.989 17.1149C30.1551 17.0685 30.8947 17.1381 31.6111 17.4857C32.0964 17.6943 33.4137 18.8301 34.5692 19.9659C35.794 21.2175 36.8802 22.5387 37.2038 23.2109C37.666 24.138 37.8046 24.8102 37.874 26.6877C37.9202 27.9625 37.8508 30.7208 37.7584 32.8301C37.5735 36.0056 37.458 36.7705 37.0882 37.3268C36.8571 37.6976 36.3487 38.138 35.9558 38.3466C35.4243 38.6016 34.0608 38.7175 30.1782 38.787C27.3819 38.8566 23.9847 38.8102 22.6443 38.6943C20.5644 38.5321 20.1022 38.4162 19.4089 37.9062C18.9004 37.5354 18.5538 37.0255 18.4382 36.5155C18.3458 36.0751 18.2071 33.6877 18.1378 31.2076C18.0685 28.7274 18.1147 25.0188 18.2302 22.9791C18.392 19.9195 18.5076 19.1546 18.8773 18.5983C19.1084 18.2275 19.5244 17.8102 19.7786 17.6712Z" fill="#6161FF"/>
<path fill-rule="evenodd" clip-rule="evenodd" d="M21.2345 15.1912C19.7785 15.3071 19.2932 15.4461 18.4612 16.0256C17.9297 16.4197 17.2133 17.2077 16.9129 17.764C16.3813 18.7144 16.312 19.2011 16.104 23.3269C15.9653 26.2706 15.9653 29.4461 16.104 32.4826C16.312 36.5157 16.4044 37.2342 16.8435 38.115C17.1208 38.6481 17.6293 39.2971 17.9759 39.5753C18.3457 39.8302 18.9928 40.2243 19.4319 40.4097C20.0559 40.6647 21.6042 40.7806 25.9027 40.8733C29.0226 40.9428 32.7203 40.8733 34.1069 40.7574C36.3255 40.5488 36.7646 40.4329 37.5734 39.8534C38.0818 39.4825 38.752 38.7176 39.0525 38.1614C39.5147 37.2806 39.6302 36.6316 39.792 34.1051C39.9076 32.4362 39.9769 29.8865 40 28.4263C40 26.966 39.9076 25.1812 39.7689 24.4859C39.6302 23.7905 39.2374 22.6547 38.8907 21.9594C38.4978 21.1713 37.4117 19.8733 35.9557 18.413C34.546 16.9991 33.2056 15.8865 32.4892 15.5389C31.3799 15.0057 31.1488 14.9826 27.1738 15.0057C24.8859 15.0289 22.2282 15.1216 21.2345 15.1912ZM21.743 17.2771C20.911 17.3698 20.0328 17.5321 19.7786 17.6712C19.5244 17.8102 19.1084 18.2275 18.8773 18.5983C18.5076 19.1546 18.392 19.9195 18.2302 22.9791C18.1147 25.0188 18.0685 28.7274 18.1378 31.2076C18.2071 33.6877 18.3458 36.0751 18.4382 36.5155C18.5538 37.0255 18.9004 37.5354 19.4089 37.9062C20.1022 38.4162 20.5644 38.5321 22.6443 38.6943C23.9847 38.8102 27.3819 38.8566 30.1782 38.787C34.0608 38.7175 35.4243 38.6016 35.9558 38.3466C36.3487 38.138 36.8571 37.6976 37.0882 37.3268C37.458 36.7705 37.5735 36.0056 37.7584 32.8301C37.8508 30.7208 37.9202 27.9625 37.874 26.6877C37.8046 24.8102 37.666 24.138 37.2038 23.2109C36.8802 22.5387 35.794 21.2175 34.5692 19.9659C33.4137 18.8301 32.0964 17.6943 31.6111 17.4857C30.8947 17.1381 30.1551 17.0685 26.989 17.1149C24.9322 17.1149 22.575 17.2076 21.743 17.2771Z" fill="#6161FF"/>
<path d="M21.8586 20.4064C22.1359 20.0588 22.6905 19.6184 23.1296 19.4561C23.5687 19.2939 24.3083 19.1548 24.7473 19.1548C25.2327 19.1548 25.8798 19.3634 26.342 19.6647C26.7811 19.966 27.3588 20.4992 27.613 20.8468C27.8903 21.2409 28.1214 21.9131 28.1446 22.4694C28.1677 23.0025 28.029 23.7674 27.8441 24.1382C27.5437 24.7872 27.5668 24.8568 28.0983 25.4131C28.4219 25.7376 28.7454 26.3634 28.8379 26.8038C28.9303 27.4296 28.861 27.6846 28.5374 27.9164C28.2832 28.0786 27.9597 28.1945 27.821 28.1945C27.6592 28.1945 27.2895 27.8237 27.0122 27.3601C26.7117 26.8965 26.2957 26.4097 26.0877 26.317C25.8566 26.2011 25.2558 26.1084 24.7473 26.1084C24.2389 26.1084 23.4994 26.2707 23.1296 26.4561C22.7136 26.6647 22.4363 26.9892 22.4363 27.2674C22.4363 27.5223 22.1821 27.87 21.8586 28.0091C21.3964 28.2641 21.2346 28.2409 20.9342 27.9627C20.7262 27.7773 20.5644 27.2674 20.5875 26.8501C20.5875 26.3402 20.7955 25.8998 21.2808 25.4131C21.9741 24.7177 21.9741 24.7177 21.6044 23.9528C21.3501 23.466 21.2346 22.8402 21.3039 22.1217C21.3501 21.5422 21.6044 20.7541 21.8586 20.4064Z" fill="#6161FF"/>
<path d="M20.3102 31.4395C20.2871 31.2309 20.4026 30.9528 20.5875 30.7905C20.8186 30.5819 22.6443 30.5124 27.1739 30.5124C31.9809 30.4892 33.483 30.5588 33.7141 30.7905C33.8759 30.9528 33.9683 31.3468 33.8759 32.2508L27.405 32.2972C22.5519 32.3435 20.8648 32.2972 20.6337 32.0654C20.472 31.9263 20.3102 31.625 20.3102 31.4395Z" fill="#6161FF"/>
<path d="M20.3102 35.6117C20.2871 35.4031 20.4026 35.125 20.5875 34.9627C20.8186 34.7773 22.2052 34.6846 25.2096 34.6846C28.3525 34.6846 29.5543 34.7541 29.7854 34.9627C29.9472 35.125 30.0627 35.4495 30.0627 35.6813C30.0627 35.8899 29.8547 36.1912 29.6005 36.3071C29.3463 36.4462 27.2895 36.5389 25.0478 36.5389C22.0203 36.5389 20.8648 36.4693 20.6337 36.2607C20.472 36.0985 20.3333 35.7972 20.3102 35.6117Z" fill="#6161FF"/>
<path d="M23.4069 21.9132C23.5687 21.6582 23.8922 21.3569 24.1696 21.241C24.4238 21.1251 24.8398 21.1019 25.094 21.1714C25.3482 21.241 25.6948 21.4496 25.8566 21.6814C26.0184 21.89 26.1339 22.3072 26.1339 22.6317C26.1339 22.9562 25.9491 23.3966 25.718 23.6284C25.51 23.8602 25.0478 24.0456 24.7011 24.0224C24.3313 24.0224 23.8922 23.8602 23.7074 23.6747C23.5225 23.4893 23.3145 23.1185 23.2452 22.8635C23.1758 22.6085 23.2452 22.1913 23.4069 21.9132Z" fill="#E3D5F8"/>
</svg>
