<svg width="55" height="55" viewBox="0 0 55 55" fill="none" xmlns="http://www.w3.org/2000/svg">
<rect width="55" height="55" fill="#F8F8FC"/>
<path d="M20.9067 17H22.8446C22.8446 17 25.7513 17 25.7513 19.9067C25.7513 22.8135 25.7513 22.8135 22.8446 22.8135H20.9067C20.9067 22.8135 18 22.8135 18 19.9067C18 17 18 17 20.9067 17Z" fill="#6161FF" fill-opacity="0.1"/>
<path d="M33.5026 17H35.4404C35.4404 17 38.3471 17 38.3471 19.9067C38.3471 22.8135 38.3471 22.8135 35.4404 22.8135H33.5026C33.5026 22.8135 30.5958 22.8135 30.5958 19.9067C30.5958 17 30.5958 17 33.5026 17Z" fill="#6161FF" fill-opacity="0.1"/>
<path d="M20.9067 27.1738H22.8446C22.8446 27.1738 25.7513 27.1738 25.7513 30.0806C25.7513 32.9873 25.7513 32.9873 22.8446 32.9873H20.9067C20.9067 32.9873 18 32.9873 18 30.0806C18 27.1738 18 27.1738 20.9067 27.1738Z" fill="#6161FF" fill-opacity="0.1"/>
<path d="M20.9067 17H22.8446C22.8446 17 25.7513 17 25.7513 19.9067C25.7513 19.9067 25.7513 22.8135 22.8446 22.8135H20.9067C20.9067 22.8135 18 22.8135 18 19.9067C18 19.9067 18 17 20.9067 17Z" stroke="#6161FF" stroke-width="2" stroke-linecap="round" stroke-linejoin="round"/>
<path d="M42.2228 35.7719C42.2228 38.0121 41.6415 39.4926 40.7268 41.0002H29.5262L27.8868 39.3608C27.4652 38.9395 27.1465 38.4267 26.9553 37.8622C26.7642 37.2977 26.7058 36.6967 26.7847 36.106C26.8637 35.5153 27.0778 34.9507 27.4104 34.4562C27.743 33.9617 28.1852 33.5505 28.7026 33.2547L29.5262 32.7857V24.9434C29.5447 24.2626 29.8282 23.616 30.3162 23.1411C30.8043 22.6661 31.4584 22.4004 32.1394 22.4004C32.8203 22.4004 33.4744 22.6661 33.9625 23.1411C34.4505 23.616 34.734 24.2626 34.7525 24.9434V29.8383C37.886 30.1639 42.2209 31.2917 42.2209 35.7719H42.2228Z" fill="#6161FF" fill-opacity="0.1"/>
<path d="M40.7269 41.0001C41.6415 39.4924 42.2209 38.0119 42.2209 35.7718C42.2209 31.2916 37.886 30.1637 34.7525 29.8382V24.9432C34.7525 23.4996 33.5821 22.3291 32.1403 22.3291C31.4469 22.3291 30.7817 22.6045 30.2912 23.0946C29.8006 23.5848 29.5248 24.2497 29.5243 24.9432V32.7856L28.7046 33.2546C28.1874 33.5503 27.7453 33.9612 27.4127 34.4555C27.0802 34.9498 26.866 35.514 26.7869 36.1045C26.7078 36.695 26.7659 37.2958 26.9566 37.8601C27.1474 38.4245 27.4657 38.9373 27.8868 39.3587L29.5262 41.0001" stroke="#6161FF" stroke-width="2" stroke-linecap="round" stroke-linejoin="round"/>
<path d="M37.9597 21.3601C38.2149 20.9181 38.3492 20.4167 38.3491 19.9063C38.349 19.3959 38.2146 18.8945 37.9592 18.4526C37.7039 18.0106 37.3367 17.6437 36.8945 17.3887C36.4524 17.1337 35.9509 16.9997 35.4405 17H33.5027C32.683 17 31.9427 17.3391 31.4137 17.8856" stroke="#6161FF" stroke-width="2" stroke-linecap="round" stroke-linejoin="round"/>
<path d="M25.7513 30.0806C25.7513 29.3097 25.4451 28.5703 24.8999 28.0252C24.3548 27.4801 23.6155 27.1738 22.8446 27.1738H20.9067C20.1358 27.1738 19.3965 27.4801 18.8514 28.0252C18.3062 28.5703 18 29.3097 18 30.0806C18 30.8515 18.3062 31.5908 18.8514 32.1359C19.3965 32.6811 20.1358 32.9873 20.9067 32.9873H22.8446" stroke="#6161FF" stroke-width="2" stroke-linecap="round" stroke-linejoin="round"/>
</svg>
