<svg width="42" height="42" viewBox="0 0 42 42" fill="none" xmlns="http://www.w3.org/2000/svg">
<g id="Group">
<path id="Vector" d="M27.877 4.01392H13.8012C7.6799 4.01392 4.03064 7.66317 4.03064 13.7845V27.8603C4.03064 33.9816 7.6799 37.6309 13.8012 37.6309H27.877C33.9983 37.6309 37.6476 33.9816 37.6476 27.8603V13.7845C37.6476 7.66317 33.9983 4.01392 27.877 4.01392Z" fill="#1977F3"/>
<path id="Vector_2" d="M24.0594 16.2569L24.1434 21.2179L28.5663 21.1506C28.8858 21.1506 29.1212 21.4365 29.0708 21.7392L28.4822 24.9512C28.4317 25.1866 28.23 25.3548 27.9945 25.3716L24.2107 25.4389L24.4125 37.6311L19.3674 37.7152L19.1657 25.523L16.3068 25.5734C16.0209 25.5734 15.8023 25.3548 15.8023 25.0689L15.7518 21.8737C15.7518 21.5878 15.9704 21.3692 16.2563 21.3692L19.1152 21.3188L19.0311 15.8533C18.9806 13.0617 21.2005 10.7746 23.9921 10.7241L28.5326 10.6569C28.8185 10.6569 29.0372 10.8755 29.0372 11.1614L29.1044 15.1974C29.1044 15.4833 28.8858 15.7019 28.5999 15.7019L24.5639 15.7692C24.278 15.7524 24.0594 15.9878 24.0594 16.2569Z" fill="#ECECEC"/>
</g>
</svg>
