<svg width="39" height="39" viewBox="0 0 39 39" fill="none" xmlns="http://www.w3.org/2000/svg">
<g id="download 9">
<g id="arrow-up-square">
<path id="Intersect" d="M2.48217 28.3776C2.69844 30.2934 3.55736 32.0794 4.91888 33.4444C6.28041 34.8094 8.06421 35.6728 9.97942 35.894C12.8933 36.2208 15.8808 36.4985 18.9309 36.4985C21.981 36.4985 24.9712 36.2208 27.8824 35.894C29.7976 35.6728 31.5814 34.8094 32.9429 33.4444C34.3045 32.0794 35.1634 30.2934 35.3796 28.3776C35.6901 25.4828 35.9515 22.5089 35.9515 19.4779C35.9515 16.4469 35.6901 13.473 35.3796 10.5754C35.1634 8.65967 34.3045 6.87368 32.9429 5.50869C31.5814 4.14371 29.7976 3.28025 27.8824 3.05912C24.9685 2.73778 21.981 2.45728 18.9309 2.45728C15.8808 2.45728 12.8906 2.73505 9.97942 3.06185C8.06421 3.28298 6.28041 4.14643 4.91888 5.51142C3.55736 6.8764 2.69844 8.66239 2.48217 10.5782C2.17172 13.4703 1.91028 16.4441 1.91028 19.4779C1.91028 22.5117 2.17172 25.4828 2.48217 28.3776Z" stroke="#5034FF" stroke-width="2.7233" stroke-linecap="round" stroke-linejoin="round"/>
<path id="Vector" d="M18.9309 27.6479V11.3081" stroke="#5034FF" stroke-width="2.7233" stroke-linecap="round" stroke-linejoin="round"/>
<path id="Vector_2" d="M13.4845 16.7547C13.4845 14.7122 16.2078 11.9889 18.9311 11.3081C21.6544 11.9889 24.3777 14.7122 24.3777 16.7547" stroke="#5034FF" stroke-width="2.7233" stroke-linecap="round" stroke-linejoin="round"/>
</g>
</g>
</svg>
