<svg width="36" height="36" viewBox="0 0 36 36" fill="none" xmlns="http://www.w3.org/2000/svg">
<g id="search-visual">
<path id="Intersect" d="M25.8976 33.4389C28.5955 33.3758 29.9971 33.2627 31.2803 33.097C31.8821 33.013 32.4361 32.7233 32.8484 32.277C33.2607 31.8307 33.5057 31.2554 33.5417 30.6489C33.6575 28.9528 33.739 28.0009 33.7889 25.6238" stroke="#5034FF" stroke-width="3.3378" stroke-linecap="round" stroke-linejoin="round"/>
<path id="Intersect_2" d="M10.2358 33.4389C7.53789 33.3758 6.13632 33.2627 4.85309 33.097C4.25136 33.013 3.69727 32.7233 3.28501 32.277C2.87275 31.8307 2.62775 31.2554 2.59166 30.6489C2.47596 28.9528 2.39444 28.0009 2.34448 25.6238" stroke="#5034FF" stroke-width="3.3378" stroke-linecap="round" stroke-linejoin="round"/>
<path id="Intersect_3" d="M25.8976 2.00537C28.5955 2.06848 29.9971 2.18155 31.2803 2.34722C31.8821 2.4312 32.4361 2.72097 32.8484 3.16727C33.2607 3.61356 33.5057 4.18885 33.5417 4.79535C33.6575 6.49142 33.739 7.44333 33.7889 9.82046" stroke="#5034FF" stroke-width="3.3378" stroke-linecap="round" stroke-linejoin="round"/>
<path id="Intersect_4" d="M10.2358 2.00537C7.53789 2.06848 6.13632 2.18155 4.85309 2.34722C4.25136 2.4312 3.69727 2.72097 3.28501 3.16727C2.87275 3.61356 2.62775 4.18885 2.59166 4.79535C2.47596 6.49142 2.39444 7.44333 2.34448 9.82046" stroke="#5034FF" stroke-width="3.3378" stroke-linecap="round" stroke-linejoin="round"/>
<path id="Vector" d="M25.9555 25.611L22.8315 22.4897" stroke="#5034FF" stroke-width="3.3378" stroke-linecap="round" stroke-linejoin="round"/>
<path id="Vector_2" d="M17.4093 24.2964C22.0373 24.2964 24.6406 21.6931 24.6406 17.0651C24.6406 12.437 22.0373 9.83374 17.4093 9.83374C12.7813 9.83374 10.178 12.437 10.178 17.0651C10.178 21.6931 12.7813 24.2964 17.4093 24.2964Z" stroke="#5034FF" stroke-width="3.3378" stroke-linecap="round" stroke-linejoin="round"/>
</g>
</svg>
