<svg width="30" height="30" viewBox="0 0 30 30" fill="none" xmlns="http://www.w3.org/2000/svg">
<g id="download 21" clip-path="url(#clip0_1012_6262)">
<g id="search-category">
<path id="Vector" d="M28.7375 28.7707L24.998 25.0312" stroke="#5034FF" stroke-width="2.72" stroke-linecap="round" stroke-linejoin="round"/>
<path id="Intersect" d="M8.55329 12.61C8.06325 12.6458 7.5648 12.6689 7.06424 12.6689C6.06734 12.6689 5.08936 12.5785 4.13662 12.4712C3.51078 12.3987 2.92793 12.1165 2.483 11.6704C2.03808 11.2243 1.75731 10.6407 1.68642 10.0147C1.58547 9.06828 1.50134 8.09661 1.50134 7.10392C1.50134 6.11542 1.58757 5.14165 1.69063 4.19522C1.82523 2.91229 2.85789 1.88173 4.13872 1.73871C5.09146 1.63356 6.06944 1.54102 7.06635 1.54102C8.06325 1.54102 9.04123 1.63145 9.99186 1.73871C11.2748 1.88173 12.3054 2.91229 12.4421 4.19522C12.5451 5.14165 12.6313 6.11332 12.6313 7.10392C12.6313 7.57503 12.6103 8.04193 12.5788 8.50463" stroke="#5034FF" stroke-width="2.72" stroke-linecap="round" stroke-linejoin="round"/>
<path id="Intersect_2" d="M7.06424 17.5317C6.06734 17.5317 5.08936 17.6222 4.13662 17.7273C2.85368 17.8703 1.82313 18.903 1.68642 20.1859C1.58547 21.1324 1.50134 22.104 1.50134 23.0925C1.50134 24.081 1.58757 25.0548 1.69063 26.0012C1.82523 27.2842 2.85789 28.3147 4.13872 28.4598C5.09146 28.565 6.06944 28.6575 7.06635 28.6575C8.06325 28.6575 9.04123 28.565 9.99186 28.4598" stroke="#5034FF" stroke-width="2.72" stroke-linecap="round" stroke-linejoin="round"/>
<path id="Intersect_3" d="M17.0248 7.10392C17.0248 6.11332 17.1089 5.14165 17.212 4.19522C17.3487 2.91229 18.3813 1.88173 19.6622 1.73871C20.6149 1.63356 21.5929 1.54102 22.5898 1.54102C23.5846 1.54102 24.5626 1.63145 25.5153 1.73871C26.7982 1.88173 27.8288 2.91229 27.9655 4.19522C28.0665 5.14165 28.1548 6.11332 28.1548 7.10392C28.1548 8.09661 28.0665 9.06828 27.9655 10.0147C27.9341 10.3057 27.856 10.5898 27.7341 10.856" stroke="#5034FF" stroke-width="2.72" stroke-linecap="round" stroke-linejoin="round"/>
<path id="Vector_2" d="M18.903 27.076C24.1168 27.076 27.0486 24.1421 27.0486 18.9283C27.0486 13.7145 24.1168 10.7827 18.903 10.7827C13.6893 10.7827 10.7574 13.7124 10.7574 18.9283C10.7574 24.1442 13.6893 27.0739 18.903 27.0739V27.076Z" stroke="#5034FF" stroke-width="2.72" stroke-linecap="round" stroke-linejoin="round"/>
</g>
</g>
<defs>
<clipPath id="clip0_1012_6262">
<rect width="29.4445" height="29.4445" fill="white" transform="translate(0.344482 0.37793)"/>
</clipPath>
</defs>
</svg>
