<svg width="39" height="39" viewBox="0 0 39 39" fill="none" xmlns="http://www.w3.org/2000/svg">
<g id="download 9">
<g id="arrow-up-square">
<path id="Intersect" d="M2.48217 27.9707C2.69844 29.8864 3.55736 31.6724 4.91888 33.0374C6.28041 34.4024 8.06421 35.2658 9.97942 35.487C12.8933 35.8138 15.8808 36.0915 18.9309 36.0915C21.981 36.0915 24.9712 35.8138 27.8824 35.487C29.7976 35.2658 31.5814 34.4024 32.9429 33.0374C34.3045 31.6724 35.1634 29.8864 35.3796 27.9707C35.6901 25.0758 35.9515 22.102 35.9515 19.0709C35.9515 16.0399 35.6901 13.066 35.3796 10.1685C35.1634 8.25269 34.3045 6.4667 32.9429 5.10171C31.5814 3.73673 29.7976 2.87327 27.8824 2.65214C24.9685 2.33079 21.981 2.05029 18.9309 2.05029C15.8808 2.05029 12.8906 2.32807 9.97942 2.65487C8.06421 2.87599 6.28041 3.73945 4.91888 5.10444C3.55736 6.46942 2.69844 8.25541 2.48217 10.1712C2.17172 13.0633 1.91028 16.0372 1.91028 19.0709C1.91028 22.1047 2.17172 25.0758 2.48217 27.9707Z" stroke="#5034FF" stroke-width="2.7233" stroke-linecap="round" stroke-linejoin="round"/>
<path id="Vector" d="M18.9309 27.2412V10.9014" stroke="#5034FF" stroke-width="2.7233" stroke-linecap="round" stroke-linejoin="round"/>
<path id="Vector_2" d="M13.4845 16.348C13.4845 14.3055 16.2078 11.5822 18.9311 10.9014C21.6544 11.5822 24.3777 14.3055 24.3777 16.348" stroke="#5034FF" stroke-width="2.7233" stroke-linecap="round" stroke-linejoin="round"/>
</g>
</g>
</svg>
