<svg width="38" height="38" viewBox="0 0 38 38" fill="none" xmlns="http://www.w3.org/2000/svg">
<g id="download 24" clip-path="url(#clip0_1012_7594)">
<g id="discount-percent-coupon--shop-shops-stores-discount-coupon-voucher">
<path id="Vector" d="M13.771 16.0436C14.1221 16.0548 14.4718 15.9954 14.7995 15.8688C15.1271 15.7422 15.426 15.551 15.6783 15.3066C15.9306 15.0622 16.1312 14.7696 16.2682 14.4462C16.4052 14.1228 16.4758 13.7751 16.4758 13.4238C16.4758 13.0726 16.4052 12.7249 16.2682 12.4015C16.1312 12.078 15.9306 11.7854 15.6783 11.5411C15.426 11.2967 15.1271 11.1055 14.7995 10.9789C14.4718 10.8523 14.1221 10.7929 13.771 10.8041C13.0758 10.8041 12.4092 11.0802 11.9176 11.5718C11.4261 12.0633 11.1499 12.73 11.1499 13.4252C11.1499 14.1203 11.4261 14.787 11.9176 15.2786C12.4092 15.7701 13.0758 16.0436 13.771 16.0436Z" stroke="#5034FF" stroke-width="2.79" stroke-linecap="round" stroke-linejoin="round"/>
<path id="Vector_2" d="M24.4694 26.7979C25.1645 26.7979 25.8312 26.5217 26.3228 26.0302C26.8143 25.5386 27.0905 24.8719 27.0905 24.1768C27.0905 23.4816 26.8143 22.8149 26.3228 22.3234C25.8312 21.8318 25.1645 21.5557 24.4694 21.5557C23.7742 21.5557 23.1075 21.8318 22.616 22.3234C22.1244 22.8149 21.8483 23.4816 21.8483 24.1768C21.8483 24.8719 22.1244 25.5386 22.616 26.0302C23.1075 26.5217 23.7742 26.7979 24.4694 26.7979Z" stroke="#5034FF" stroke-width="2.79" stroke-linecap="round" stroke-linejoin="round"/>
<path id="Subtract" d="M35.7828 11.2961V14.4067C34.8234 14.8204 34.0062 15.5061 33.432 16.379C32.8578 17.2518 32.5519 18.2738 32.5519 19.3186C32.5519 20.3634 32.8578 21.3853 33.432 22.2582C34.0062 23.1311 34.8234 23.8167 35.7828 24.2305V27.3437C35.7828 30.2964 33.6618 32.273 30.4336 32.6929C21.5566 33.843 16.5926 33.851 7.69953 32.6929C4.56223 32.2837 2.35034 30.2964 2.35034 27.3437V24.2305C3.30973 23.8167 4.12695 23.1311 4.70111 22.2582C5.27528 21.3853 5.58125 20.3634 5.58125 19.3186C5.58125 18.2738 5.27528 17.2518 4.70111 16.379C4.12695 15.5061 3.30973 14.8204 2.35034 14.4067V11.2961C2.35034 8.3407 4.58363 6.47383 7.69953 5.94693C16.4856 4.45451 21.5192 4.67918 30.4336 5.94693C33.381 6.36417 35.7828 8.3407 35.7828 11.2961Z" stroke="#5034FF" stroke-width="2.79" stroke-linecap="round" stroke-linejoin="round"/>
<path id="Vector 296" d="M12.9313 24.907C18.3473 20.4512 21.054 17.7739 25.2023 12.6387" stroke="#5034FF" stroke-width="2.79" stroke-linecap="round" stroke-linejoin="round"/>
</g>
</g>
<defs>
<clipPath id="clip0_1012_7594">
<rect width="37.4443" height="37.4443" fill="white" transform="translate(0.344482 0.511719)"/>
</clipPath>
</defs>
</svg>
