<svg width="30" height="31" viewBox="0 0 30 31" fill="none" xmlns="http://www.w3.org/2000/svg">
<g id="download 25" clip-path="url(#clip0_1012_7565)">
<g id="graph-bar-increase--up-product-performance-increase-arrow-graph-business-chart">
<path id="Vector" d="M21.5718 3.14551C24.0072 3.48622 25.3154 3.8038 27.5322 4.59038C27.2167 6.9249 26.9012 8.22886 26.0873 10.5508" stroke="#5034FF" stroke-width="2.79" stroke-linecap="round" stroke-linejoin="round"/>
<path id="Vector 335" d="M26.5375 5.1123C26.5375 5.1123 19.4666 9.53316 14.541 11.5164C10.2295 13.2516 3.13342 14.8962 3.13342 14.8962" stroke="#5034FF" stroke-width="2.79" stroke-linecap="round" stroke-linejoin="round"/>
<path id="Intersect" d="M10.345 28.6084H3.95352C2.89563 28.6084 1.99127 27.8218 1.94079 26.764C1.90561 26.0233 1.90771 25.2813 1.9471 24.5409C1.97886 24.0569 2.19005 23.6022 2.53935 23.2658C2.88866 22.9293 3.35094 22.7353 3.83575 22.7217C5.42777 22.6514 7.02212 22.6514 8.61414 22.7217C9.61945 22.7637 10.4502 23.5356 10.5028 24.5409C10.5743 25.8953 10.5238 27.2372 10.345 28.6063V28.6084Z" stroke="#5034FF" stroke-width="2.79" stroke-linecap="round" stroke-linejoin="round"/>
<path id="Intersect_2" d="M18.9638 28.6086H10.7236C10.518 26.0163 10.48 23.4135 10.61 20.8164C10.633 20.327 10.8348 19.8631 11.1771 19.5127C11.5194 19.1622 11.9784 18.9496 12.4671 18.9151C14.0494 18.8004 15.638 18.8004 17.2203 18.9151C17.7086 18.9501 18.1671 19.1629 18.509 19.5133C18.8508 19.8637 19.0523 20.3274 19.0753 20.8164C19.2058 23.4128 19.1686 26.0149 18.9638 28.6065V28.6086Z" stroke="#5034FF" stroke-width="2.79" stroke-linecap="round" stroke-linejoin="round"/>
<path id="Intersect_3" d="M25.591 28.6087H19.3404C19.1212 24.7251 19.0931 20.833 19.2563 16.9466C19.2718 16.4639 19.4613 16.003 19.7898 15.649C20.1183 15.295 20.5637 15.0716 21.044 15.0201C22.6507 14.854 24.2703 14.854 25.877 15.0201C26.8718 15.119 27.6227 15.9476 27.6647 16.9466C27.8002 20.17 27.8037 23.3975 27.6752 26.6212C27.6519 27.157 27.422 27.663 27.0339 28.0331C26.6458 28.4032 26.1294 28.6087 25.5931 28.6066L25.591 28.6087Z" stroke="#5034FF" stroke-width="2.79" stroke-linecap="round" stroke-linejoin="round"/>
</g>
</g>
<defs>
<clipPath id="clip0_1012_7565">
<rect width="29.4443" height="29.4443" fill="white" transform="translate(0.344482 0.888672)"/>
</clipPath>
</defs>
</svg>
