<svg width="25" height="26" viewBox="0 0 25 26" fill="none" xmlns="http://www.w3.org/2000/svg">
<g id="download 22">
<g id="user-profile-focus--close-geometric-human-person-profile-focus-user">
<path id="Intersect" d="M18.6803 18.4679C18.3378 17.0878 17.5432 15.862 16.4231 14.9859C15.303 14.1099 13.9219 13.6339 12.4999 13.6339C11.0779 13.6339 9.69687 14.1099 8.5768 14.9859C7.45672 15.862 6.66211 17.0878 6.31958 18.4679" stroke="#434461" stroke-width="1.79" stroke-linecap="round" stroke-linejoin="round"/>
<path id="Intersect_2" d="M17.8695 2.1803C18.5302 2.25173 19.1874 2.32673 19.8374 2.40351C20.6725 2.50136 21.4502 2.87837 22.0443 3.47344C22.6384 4.06851 23.0141 4.84677 23.1106 5.68208C23.182 6.32673 23.2552 6.97851 23.3249 7.63744" stroke="#434461" stroke-width="1.79" stroke-linecap="round" stroke-linejoin="round"/>
<path id="Intersect_3" d="M17.8695 23.8126C18.5302 23.7412 19.1874 23.6662 19.8374 23.5894C20.6724 23.4912 21.4499 23.1141 22.0439 22.5191C22.638 21.9241 23.0138 21.146 23.1106 20.3108C23.182 19.6662 23.2552 19.0144 23.3249 18.3555" stroke="#434461" stroke-width="1.79" stroke-linecap="round" stroke-linejoin="round"/>
<path id="Intersect_4" d="M7.13041 2.1803C6.46969 2.25173 5.81255 2.32673 5.16255 2.40351C4.32751 2.50166 3.55004 2.87877 2.956 3.47378C2.36196 4.0688 1.98612 4.84689 1.88933 5.68208C1.81791 6.32673 1.74469 6.97851 1.67505 7.63744" stroke="#434461" stroke-width="1.79" stroke-linecap="round" stroke-linejoin="round"/>
<path id="Intersect_5" d="M7.13041 23.8126C6.46969 23.7412 5.81255 23.6662 5.16255 23.5894C4.32751 23.4912 3.55004 23.1141 2.956 22.5191C2.36196 21.9241 1.98612 21.146 1.88933 20.3108C1.81791 19.6662 1.74469 19.0144 1.67505 18.3555" stroke="#434461" stroke-width="1.79" stroke-linecap="round" stroke-linejoin="round"/>
<path id="Vector" d="M12.5001 13.6335C14.9215 13.6335 16.2858 12.271 16.2858 9.84779C16.2858 7.42636 14.9215 6.06207 12.5001 6.06207C10.0769 6.06207 8.71436 7.42636 8.71436 9.84779C8.71436 12.271 10.0769 13.6335 12.5001 13.6335Z" stroke="#434461" stroke-width="1.79" stroke-linecap="round" stroke-linejoin="round"/>
</g>
</g>
</svg>
