<svg width="25" height="26" viewBox="0 0 25 26" fill="none" xmlns="http://www.w3.org/2000/svg">
<g id="download 21" clip-path="url(#clip0_1371_421)">
<g id="search-category">
<path id="Vector" d="M24.1073 24.6037L20.9323 21.4287" stroke="#434461" stroke-width="1.71739" stroke-linecap="round" stroke-linejoin="round"/>
<path id="Intersect" d="M6.9698 10.8823C6.55373 10.9126 6.13051 10.9323 5.70551 10.9323C4.85909 10.9323 4.02873 10.8555 3.2198 10.7644C2.68843 10.7029 2.19355 10.4632 1.81579 10.0845C1.43802 9.70574 1.19963 9.21024 1.13944 8.67871C1.05373 7.87514 0.9823 7.05014 0.9823 6.20728C0.9823 5.368 1.05551 4.54121 1.14301 3.73764C1.2573 2.64836 2.13409 1.77336 3.22159 1.65193C4.03051 1.56264 4.86087 1.48407 5.7073 1.48407C6.55373 1.48407 7.38408 1.56086 8.19123 1.65193C9.28051 1.77336 10.1555 2.64836 10.2716 3.73764C10.3591 4.54121 10.4323 5.36621 10.4323 6.20728C10.4323 6.60728 10.4144 7.00371 10.3877 7.39657" stroke="#434461" stroke-width="1.71739" stroke-linecap="round" stroke-linejoin="round"/>
<path id="Intersect_2" d="M5.70551 15.061C4.85909 15.061 4.02873 15.1378 3.2198 15.227C2.13051 15.3485 1.25551 16.2253 1.13944 17.3145C1.05373 18.1181 0.9823 18.9431 0.9823 19.7824C0.9823 20.6217 1.05551 21.4485 1.14301 22.252C1.2573 23.3413 2.13409 24.2163 3.22159 24.3395C4.03051 24.4288 4.86087 24.5074 5.7073 24.5074C6.55373 24.5074 7.38408 24.4288 8.19123 24.3395" stroke="#434461" stroke-width="1.71739" stroke-linecap="round" stroke-linejoin="round"/>
<path id="Intersect_3" d="M14.1626 6.20735C14.1626 5.36627 14.234 4.54127 14.3215 3.7377C14.4376 2.64842 15.3144 1.77342 16.4019 1.65199C17.2108 1.5627 18.0412 1.48413 18.8876 1.48413C19.7322 1.48413 20.5626 1.56092 21.3715 1.65199C22.4608 1.77342 23.3358 2.64842 23.4519 3.7377C23.5376 4.54127 23.6126 5.36627 23.6126 6.20735C23.6126 7.0502 23.5376 7.8752 23.4519 8.67877C23.4252 8.92588 23.3589 9.16707 23.2555 9.39306" stroke="#434461" stroke-width="1.71739" stroke-linecap="round" stroke-linejoin="round"/>
<path id="Vector_2" d="M15.7573 23.1646C20.184 23.1646 22.6733 20.6735 22.6733 16.2468C22.6733 11.82 20.184 9.33069 15.7573 9.33069C11.3305 9.33069 8.84119 11.8182 8.84119 16.2468C8.84119 20.6753 11.3305 23.1628 15.7573 23.1628V23.1646Z" stroke="#434461" stroke-width="1.71739" stroke-linecap="round" stroke-linejoin="round"/>
</g>
</g>
<defs>
<clipPath id="clip0_1371_421">
<rect width="25" height="25" fill="white" transform="translate(0 0.496643)"/>
</clipPath>
</defs>
</svg>
