<svg width="25" height="25" viewBox="0 0 25 25" fill="none" xmlns="http://www.w3.org/2000/svg">
<g id="download 25" clip-path="url(#clip0_1371_458)">
<g id="graph-bar-increase--up-product-performance-increase-arrow-graph-business-chart">
<path id="Vector" d="M18.1082 1.89001C20.1475 2.17531 21.2429 2.44124 23.0991 3.0999C22.835 5.05473 22.5708 6.14661 21.8893 8.09088" stroke="#434461" stroke-width="1.79" stroke-linecap="round" stroke-linejoin="round"/>
<path id="Vector 335" d="M22.2662 3.53674C22.2662 3.53674 16.3453 7.23859 12.2208 8.89932C8.61056 10.3522 2.66858 11.7294 2.66858 11.7294" stroke="#434461" stroke-width="1.79" stroke-linecap="round" stroke-linejoin="round"/>
<path id="Intersect" d="M8.70741 23.2113H3.3554C2.46956 23.2113 1.71229 22.5527 1.67002 21.6668C1.64056 21.0467 1.64232 20.4254 1.6753 19.8054C1.7019 19.4001 1.87874 19.0194 2.17123 18.7376C2.46372 18.4559 2.85082 18.2934 3.25678 18.282C4.58987 18.2231 5.92492 18.2231 7.25802 18.282C8.09983 18.3172 8.79546 18.9635 8.83949 19.8054C8.89937 20.9395 8.8571 22.0631 8.70741 23.2096V23.2113Z" stroke="#434461" stroke-width="1.79" stroke-linecap="round" stroke-linejoin="round"/>
<path id="Intersect_2" d="M15.9243 23.2116H9.02426C8.85209 21.041 8.82033 18.8615 8.92916 16.6867C8.94842 16.2769 9.11739 15.8885 9.40402 15.595C9.69066 15.3016 10.075 15.1235 10.4842 15.0947C11.8092 14.9986 13.1394 14.9986 14.4643 15.0947C14.8732 15.124 15.2571 15.3022 15.5434 15.5956C15.8297 15.889 15.9984 16.2772 16.0176 16.6867C16.127 18.8608 16.0958 21.0397 15.9243 23.2098V23.2116Z" stroke="#434461" stroke-width="1.79" stroke-linecap="round" stroke-linejoin="round"/>
<path id="Intersect_3" d="M21.4737 23.2121H16.2397C16.0561 19.9601 16.0326 16.701 16.1692 13.4467C16.1822 13.0425 16.3409 12.6566 16.616 12.3601C16.8911 12.0637 17.264 11.8767 17.6662 11.8335C19.0116 11.6944 20.3678 11.6944 21.7132 11.8335C22.5462 11.9163 23.1749 12.6102 23.2101 13.4467C23.3236 16.1458 23.3265 18.8485 23.2189 21.5478C23.1994 21.9965 23.0069 22.4202 22.6819 22.7301C22.3569 23.04 21.9245 23.2121 21.4754 23.2103L21.4737 23.2121Z" stroke="#434461" stroke-width="1.79" stroke-linecap="round" stroke-linejoin="round"/>
</g>
</g>
<defs>
<clipPath id="clip0_1371_458">
<rect width="24.6555" height="24.6555" fill="white" transform="translate(0.333252)"/>
</clipPath>
</defs>
</svg>
