<svg width="27" height="26" viewBox="0 0 27 26" fill="none" xmlns="http://www.w3.org/2000/svg">
<g id="download 9">
<g id="arrow-up-square">
<path id="Intersect" d="M2.57971 18.5738C2.72193 19.8336 3.28678 21.0082 4.18215 21.9058C5.07753 22.8035 6.25061 23.3713 7.5101 23.5167C9.42638 23.7316 11.391 23.9143 13.3968 23.9143C15.4027 23.9143 17.3691 23.7316 19.2836 23.5167C20.5431 23.3713 21.7162 22.8035 22.6115 21.9058C23.5069 21.0082 24.0718 19.8336 24.214 18.5738C24.4182 16.67 24.5901 14.7144 24.5901 12.7211C24.5901 10.7278 24.4182 8.77209 24.214 6.86656C24.0718 5.6067 23.5069 4.43218 22.6115 3.53453C21.7162 2.63688 20.5431 2.06905 19.2836 1.92362C17.3673 1.7123 15.4027 1.52783 13.3968 1.52783C11.391 1.52783 9.42459 1.71051 7.5101 1.92542C6.25061 2.07084 5.07753 2.63867 4.18215 3.53632C3.28678 4.43397 2.72193 5.60849 2.57971 6.86835C2.37554 8.7703 2.20361 10.726 2.20361 12.7211C2.20361 14.7161 2.37554 16.67 2.57971 18.5738Z" stroke="#434461" stroke-width="1.72" stroke-linecap="round" stroke-linejoin="round"/>
<path id="Vector" d="M13.3969 18.0937V7.34814" stroke="#434461" stroke-width="1.72" stroke-linecap="round" stroke-linejoin="round"/>
<path id="Vector_2" d="M9.81519 10.93C9.81519 9.58679 11.6061 7.79587 13.397 7.34814C15.1879 7.79587 16.9789 9.58679 16.9789 10.93" stroke="#434461" stroke-width="1.72" stroke-linecap="round" stroke-linejoin="round"/>
</g>
</g>
</svg>
