<svg width="28" height="27" viewBox="0 0 28 27" fill="none" xmlns="http://www.w3.org/2000/svg">
<g id="download 24">
<g id="discount-percent-coupon--shop-shops-stores-discount-coupon-voucher">
<path id="Vector" d="M10.1703 11.1995C10.4234 11.2076 10.6756 11.1647 10.9119 11.0734C11.1481 10.9821 11.3636 10.8443 11.5456 10.6681C11.7275 10.4919 11.8721 10.2809 11.9709 10.0477C12.0697 9.81445 12.1206 9.56375 12.1206 9.31047C12.1206 9.05719 12.0697 8.8065 11.9709 8.57328C11.8721 8.34006 11.7275 8.12908 11.5456 7.95286C11.3636 7.77665 11.1481 7.63881 10.9119 7.54751C10.6756 7.45622 10.4234 7.41335 10.1703 7.42144C9.66901 7.42144 9.18829 7.62056 8.83384 7.975C8.4794 8.32945 8.28027 8.81018 8.28027 9.31144C8.28027 9.81269 8.4794 10.2934 8.83384 10.6479C9.18829 11.0023 9.66901 11.1995 10.1703 11.1995Z" stroke="#434461" stroke-width="1.79" stroke-linecap="round" stroke-linejoin="round"/>
<path id="Vector_2" d="M17.8845 18.9543C18.3858 18.9543 18.8665 18.7552 19.2209 18.4007C19.5754 18.0463 19.7745 17.5656 19.7745 17.0643C19.7745 16.5631 19.5754 16.0823 19.2209 15.7279C18.8665 15.3734 18.3858 15.1743 17.8845 15.1743C17.3832 15.1743 16.9025 15.3734 16.5481 15.7279C16.1936 16.0823 15.9945 16.5631 15.9945 17.0643C15.9945 17.5656 16.1936 18.0463 16.5481 18.4007C16.9025 18.7552 17.3832 18.9543 17.8845 18.9543Z" stroke="#434461" stroke-width="1.79" stroke-linecap="round" stroke-linejoin="round"/>
<path id="Subtract" d="M26.0423 7.77642V10.0194C25.3505 10.3177 24.7613 10.8121 24.3473 11.4415C23.9332 12.0709 23.7126 12.8078 23.7126 13.5612C23.7126 14.3145 23.9332 15.0514 24.3473 15.6808C24.7613 16.3103 25.3505 16.8047 26.0423 17.103V19.3479C26.0423 21.477 24.513 22.9022 22.1852 23.205C15.7843 24.0343 12.2048 24.0401 5.79232 23.205C3.53011 22.9099 1.93518 21.477 1.93518 19.3479V17.103C2.62697 16.8047 3.21624 16.3103 3.63025 15.6808C4.04427 15.0514 4.26489 14.3145 4.26489 13.5612C4.26489 12.8078 4.04427 12.0709 3.63025 11.4415C3.21624 10.8121 2.62697 10.3177 1.93518 10.0194V7.77642C1.93518 5.64535 3.54554 4.29921 5.79232 3.91928C12.1277 2.84314 15.7573 3.00514 22.1852 3.91928C24.3105 4.22014 26.0423 5.64535 26.0423 7.77642Z" stroke="#434461" stroke-width="1.79" stroke-linecap="round" stroke-linejoin="round"/>
<path id="Vector 296" d="M9.5647 17.5909C13.4701 14.3779 15.4218 12.4474 18.413 8.74457" stroke="#434461" stroke-width="1.79" stroke-linecap="round" stroke-linejoin="round"/>
</g>
</g>
</svg>
