<svg width="42" height="28" viewBox="0 0 42 28" fill="none" xmlns="http://www.w3.org/2000/svg">
<g id="pins">
<path id="Vector" d="M38.0216 17.2422C37.1856 17.2422 36.5425 17.0493 36.0923 16.6634C35.6582 16.2776 35.4412 15.8435 35.4412 15.3612C35.4412 14.9432 35.5939 14.5814 35.8994 14.276C36.2048 13.9705 36.655 13.8178 37.2499 13.8178C37.4589 13.8178 37.7 13.8419 37.9733 13.8901C38.2627 13.9223 38.4798 13.9464 38.6245 13.9625C38.6084 13.5445 38.5119 13.1506 38.3351 12.7808C38.1743 12.411 37.9653 12.0573 37.7081 11.7197C37.4508 11.366 37.2097 11.0605 36.9846 10.8033C36.4862 11.7519 35.9878 12.5396 35.4894 13.1666C35.0071 13.7937 34.4766 14.3885 33.8978 14.9512C33.6084 15.2406 33.3029 15.3853 32.9814 15.3853C32.7242 15.3853 32.5151 15.2969 32.3544 15.12C32.1936 14.9271 32.1132 14.694 32.1132 14.4207C32.1132 14.0991 32.2258 13.8017 32.4508 13.5284L32.7643 13.1425C33.6486 12.0493 34.3158 11.149 34.7659 10.4416C35.0553 9.97534 35.3447 9.42068 35.6341 8.77759C35.9396 8.13451 36.3335 7.2583 36.8158 6.14898C37.1212 5.44159 37.7563 5.08789 38.7209 5.08789C39.1711 5.08789 39.4846 5.12808 39.6614 5.20847C39.8383 5.28886 39.9267 5.41747 39.9267 5.59432C39.9267 5.69078 39.8945 5.84352 39.8302 6.05252C39.7659 6.26152 39.6775 6.47052 39.565 6.67953C39.2756 7.2583 39.1309 7.74866 39.1309 8.15058C39.1309 8.39174 39.2113 8.65701 39.372 8.9464C39.5489 9.23579 39.8142 9.59753 40.1679 10.0316C40.6823 10.7068 41.0682 11.2856 41.3254 11.7679C41.5987 12.2342 41.7354 12.7486 41.7354 13.3113C41.7354 13.9866 41.5746 14.6297 41.2531 15.2406C40.9476 15.8355 40.5135 16.3178 39.9508 16.6875C39.3881 17.0573 38.745 17.2422 38.0216 17.2422Z" fill="#1E1E1E"/>
<path id="Vector_2" d="M23.2846 16.7125C22.6737 16.7125 22.2396 16.391 21.9823 15.7479C21.7412 15.1048 21.6206 14.0758 21.6206 12.6611C21.6206 10.571 21.918 8.58551 22.5129 6.70448C22.6576 6.23825 22.8907 5.90063 23.2122 5.69162C23.5499 5.46654 24.0161 5.354 24.6109 5.354C24.9325 5.354 25.1576 5.3942 25.2862 5.47458C25.4148 5.55497 25.4791 5.7077 25.4791 5.93278C25.4791 6.19002 25.3585 6.76879 25.1174 7.66911C24.9566 8.3122 24.828 8.8749 24.7315 9.35721C24.6351 9.83952 24.5547 10.4344 24.4904 11.1418C25.0209 9.75914 25.6158 8.63374 26.2749 7.76557C26.9341 6.89741 27.5772 6.27844 28.2042 5.90867C28.8473 5.53889 29.4341 5.354 29.9646 5.354C31.0096 5.354 31.5322 5.87651 31.5322 6.92152C31.5322 7.54853 31.3553 8.68197 31.0016 10.3218C30.6961 11.7205 30.5434 12.645 30.5434 13.0951C30.5434 13.7382 30.7765 14.0598 31.2428 14.0598C31.5643 14.0598 31.9421 13.8668 32.3762 13.481C32.8264 13.0791 33.4212 12.436 34.1608 11.5517C34.3537 11.3267 34.5707 11.2141 34.8119 11.2141C35.0209 11.2141 35.1817 11.3106 35.2942 11.5035C35.4228 11.6964 35.4871 11.9617 35.4871 12.2993C35.4871 12.9424 35.3344 13.4408 35.0289 13.7945C34.3376 14.6466 33.59 15.3459 32.7862 15.8926C31.9984 16.4392 31.0981 16.7125 30.0852 16.7125C29.2653 16.7125 28.6463 16.4794 28.2283 16.0131C27.8103 15.5308 27.6013 14.8395 27.6013 13.9392C27.6013 13.489 27.7138 12.6852 27.9389 11.5276C28.1479 10.5148 28.2524 9.81541 28.2524 9.42956C28.2524 9.17232 28.164 9.04371 27.9871 9.04371C27.7781 9.04371 27.4807 9.31702 27.0949 9.86364C26.7251 10.3942 26.3392 11.1016 25.9373 11.9858C25.5515 12.8701 25.238 13.8025 24.9968 14.7832C24.82 15.5389 24.611 16.0533 24.3698 16.3266C24.1447 16.5839 23.783 16.7125 23.2846 16.7125Z" fill="#1E1E1E"/>
<path id="Vector_3" d="M18.6038 16.7125C17.5588 16.7125 16.7951 16.3427 16.3128 15.6032C15.8466 14.8636 15.6135 13.8829 15.6135 12.6611C15.6135 11.9376 15.7019 11.0132 15.8787 9.88775C16.0717 8.74628 16.3128 7.68519 16.6022 6.70448C16.7469 6.19001 16.9398 5.83632 17.181 5.64339C17.4221 5.45047 17.808 5.354 18.3385 5.354C19.1585 5.354 19.5684 5.62732 19.5684 6.17394C19.5684 6.57587 19.4157 7.50834 19.1102 8.97136C18.7244 10.7398 18.5315 11.9376 18.5315 12.5646C18.5315 13.0469 18.5958 13.4167 18.7244 13.6739C18.853 13.9312 19.07 14.0598 19.3755 14.0598C19.6649 14.0598 20.0266 13.8588 20.4607 13.4569C20.8948 13.0549 21.4736 12.4199 22.197 11.5517C22.39 11.3267 22.607 11.2141 22.8482 11.2141C23.0572 11.2141 23.2179 11.3106 23.3305 11.5035C23.4591 11.6964 23.5234 11.9617 23.5234 12.2993C23.5234 12.9424 23.3707 13.4408 23.0652 13.7945C21.4736 15.7398 19.9864 16.7125 18.6038 16.7125Z" fill="#1E1E1E"/>
<path id="Vector_4" d="M16.5064 3.30385C16.844 3.60931 17.3505 3.76205 18.0257 3.76205C18.717 3.76205 19.2717 3.57716 19.6897 3.20739C20.1077 2.82154 20.3167 2.30707 20.3167 1.66398C20.3167 1.13344 20.1318 0.723471 19.762 0.434083C19.3923 0.144695 18.91 0 18.3151 0C17.6559 0 17.1013 0.192925 16.6511 0.578776C16.217 0.94855 16 1.41479 16 1.97749C16 2.54019 16.1688 2.98231 16.5064 3.30385Z" fill="#1E1E1E"/>
<path id="Vector_5" d="M16.9051 11.2128C17.1141 11.2128 17.2749 11.3093 17.3874 11.5022C17.516 11.6951 17.5803 11.9604 17.5803 12.298C17.5803 12.9411 17.4276 13.4395 17.1221 13.7932C16.4308 14.6453 15.6832 15.3446 14.8794 15.8913C14.0916 16.4379 13.1913 16.7112 12.1784 16.7112C11.3263 16.7112 10.635 16.4057 10.1045 15.7948C9.18808 16.3897 8.23149 16.6951 7.23471 16.7112C7.0257 19.8141 6.55143 22.4025 5.81188 24.4764C5.07233 26.5665 3.98713 27.6115 2.55626 27.6115C1.6881 27.6115 1.04501 27.298 0.627008 26.671C0.209003 26.044 0 25.1758 0 24.0665C0 22.4909 0.361735 20.6501 1.08521 18.544C1.80868 16.454 2.92604 14.1469 4.43729 11.6228C4.43729 9.27552 4.42121 7.64369 4.38906 6.7273C4.37298 6.26106 4.55787 5.89129 4.94372 5.61797C5.32957 5.34466 5.81188 5.20801 6.39066 5.20801C6.72828 5.20801 6.96943 5.28035 7.11413 5.42505C7.2749 5.55367 7.36332 5.81894 7.3794 6.22087C7.3794 6.62279 7.38744 6.92022 7.40352 7.11315C7.91798 6.47006 8.42441 6.01186 8.9228 5.73855C9.4212 5.44916 9.95174 5.30447 10.5144 5.30447C11.4148 5.30447 12.1463 5.6662 12.709 6.38968C13.2877 7.11315 13.5771 8.0617 13.5771 9.23533C13.5771 10.0874 13.4405 10.9154 13.1672 11.7192C12.8939 12.5231 12.516 13.2546 12.0337 13.9138C12.3713 14.0102 12.6527 14.0585 12.8778 14.0585C13.4083 14.0585 13.9148 13.8655 14.3971 13.4797C14.8794 13.0938 15.4983 12.4508 16.254 11.5504C16.4469 11.3254 16.6639 11.2128 16.9051 11.2128ZM7.35529 14.3961C7.93406 14.2675 8.46461 13.954 8.94692 13.4556C9.44531 12.9411 9.8392 12.3141 10.1286 11.5745C10.418 10.8189 10.5627 10.0311 10.5627 9.21121C10.5627 8.7289 10.4662 8.36716 10.2733 8.12601C10.0804 7.86877 9.82312 7.74015 9.50158 7.74015C8.9228 7.74015 8.22345 8.35109 7.40352 9.57295C7.38744 10.2803 7.3794 11.3173 7.3794 12.6839C7.3794 13.4234 7.37136 13.9942 7.35529 14.3961ZM2.74919 25.2481C3.18327 25.2481 3.54501 24.2996 3.83439 22.4025C4.12378 20.5215 4.30867 18.1742 4.38906 15.3607C3.69774 16.9684 3.15112 18.5038 2.74919 19.9668C2.34726 21.4298 2.1463 22.6597 2.1463 23.6565C2.1463 24.171 2.2106 24.5649 2.33922 24.8382C2.45176 25.1115 2.58842 25.2481 2.74919 25.2481Z" fill="#1E1E1E"/>
</g>
</svg>
