<svg width="33" height="32" viewBox="0 0 33 32" fill="none" xmlns="http://www.w3.org/2000/svg">
<g id="search">
<path id="Vector" opacity="0.4" d="M15.5219 28.0008C22.5175 28.0008 28.1886 22.3298 28.1886 15.3341C28.1886 8.33854 22.5175 2.66748 15.5219 2.66748C8.52628 2.66748 2.85522 8.33854 2.85522 15.3341C2.85522 22.3298 8.52628 28.0008 15.5219 28.0008Z" fill="#1E1E1E"/>
<path id="Vector_2" d="M28.5883 29.3337C28.3483 29.3337 28.1083 29.2404 27.9349 29.0671L25.4549 26.5871C25.0949 26.2271 25.0949 25.6404 25.4549 25.2671C25.8149 24.9071 26.4016 24.9071 26.7749 25.2671L29.2549 27.7471C29.6149 28.1071 29.6149 28.6937 29.2549 29.0671C29.0683 29.2404 28.8283 29.3337 28.5883 29.3337Z" fill="#1E1E1E"/>
</g>
</svg>
