<svg width="23" height="23" viewBox="0 0 23 23" fill="none" xmlns="http://www.w3.org/2000/svg">
<g id="download 6_layerstyle">
<g id="Group">
<path id="Vector" d="M7.40592 1.2399C8.62689 1.3199 8.76701 1.2999 9.58766 0.659949C10.2482 0.159988 10.6885 0 11.289 0C11.8895 0 12.3899 0.179986 13.1105 0.639951C14.0112 1.21991 14.2714 1.2999 15.5925 1.2999C17.0336 1.2999 17.0736 1.3199 17.6941 2.01984C18.0344 2.41981 18.4147 3.03977 18.5148 3.41974C18.6949 3.95969 18.8751 4.13968 19.4155 4.29967C21.0039 4.71729 21.7298 5.90066 21.5772 7.35943C21.4572 8.65933 21.4772 8.71933 22.1377 9.59926C22.6381 10.2792 22.7982 10.6992 22.8182 11.3391C22.8182 11.9791 22.6581 12.439 22.1777 13.159C21.5973 13.9989 21.5372 14.2589 21.5172 15.5388C21.5172 16.8587 21.4772 17.0187 20.9167 17.5986C20.5764 17.9386 19.9559 18.3186 19.5356 18.4586C18.8751 18.6586 18.6949 18.8585 18.3146 19.6985C18.0744 20.2384 17.6141 20.9184 17.2938 21.1584C16.7934 21.5783 16.5532 21.6183 15.4123 21.5583C14.1913 21.4783 14.0512 21.4983 13.2106 22.1383C12.53 22.6383 12.1097 22.8182 11.5092 22.8182C10.9488 22.7982 10.4083 22.6183 9.70776 22.1583C8.80704 21.5783 8.54683 21.4983 7.22577 21.4983C5.78462 21.4983 5.74459 21.4783 5.1241 20.7784C4.78382 20.3784 4.40352 19.7585 4.30344 19.3785C4.1233 18.8385 3.94315 18.6586 3.40272 18.4986C1.81436 18.0809 1.08845 16.8976 1.24099 15.4388C1.36109 14.1389 1.34107 14.0789 0.680544 13.199C0.180144 12.519 0.020016 12.0991 0 11.4391C0 10.8192 0.160128 10.3592 0.640512 9.63926C1.22098 8.79932 1.28102 8.53934 1.30104 7.25944C1.30104 5.93954 1.34107 5.77955 1.90152 5.1996C2.24179 4.85962 2.86229 4.47965 3.28262 4.33966C3.94315 4.13968 4.1233 3.9397 4.5036 3.09976C4.74379 2.5598 5.20416 1.87985 5.52442 1.63987C6.02482 1.21991 6.26501 1.17991 7.40592 1.2399Z" fill="white"/>
<path id="Vector_2" d="M9.40747 3.1997L10.1681 2.49975C10.5684 2.11978 11.0888 1.7998 11.309 1.7998C11.5292 1.7998 12.0896 2.09978 12.57 2.49975C13.3907 3.1797 13.4507 3.1997 16.4531 3.0997L16.8935 4.29961C17.3138 5.45952 17.3338 5.47952 19.8158 6.39945L19.5556 9.29923L20.2962 10.1992C20.6965 10.6991 21.0167 11.2591 21.0167 11.4391C21.0167 11.639 20.6965 12.159 20.3162 12.599C19.6356 13.3789 19.6156 13.4389 19.7157 16.4787L18.5147 16.9186C17.3338 17.3386 17.3138 17.3786 16.313 19.8384L14.8718 19.7184C13.4107 19.5984 13.4107 19.5984 12.6701 20.2984C12.2497 20.6783 11.7293 20.9783 11.5091 20.9983C11.289 20.9983 10.7285 20.6983 10.2682 20.2984C9.42749 19.6184 9.36744 19.5984 6.36504 19.6984L5.92469 18.4985C5.50435 17.3386 5.48433 17.3186 3.00235 16.3987L3.26256 13.4989L2.52197 12.599C2.12165 12.099 1.80139 11.5391 1.80139 11.3591C1.80139 11.1591 2.12165 10.6391 2.50195 10.1992C3.1825 9.41922 3.20251 9.35922 3.10243 6.31946L4.22333 5.87949C5.32421 5.45952 5.38426 5.39953 6.32501 2.95972L9.40747 3.1997Z" fill="#22A06B"/>
<path id="Vector_3" d="M13.0504 8.41931C13.5908 7.83935 14.2113 7.27939 14.4515 7.1994C14.6917 7.11941 15.012 7.11941 15.1921 7.1994C15.3722 7.27939 15.5724 7.53937 15.6525 7.77935C15.7926 8.11933 15.5524 8.4793 14.3714 9.7392C13.3907 10.8191 12.6901 11.819 12.1096 12.999C11.6693 13.9389 11.1889 14.9988 11.0488 15.3388C10.9087 15.6987 10.5684 16.1187 10.2882 16.2387C9.78778 16.4987 9.70772 16.4387 8.08642 14.7388C6.86544 13.4789 6.42509 12.879 6.44511 12.559C6.48514 12.279 6.70532 12.039 7.0656 11.899C7.566 11.7191 7.6861 11.779 9.70772 13.8189L10.048 12.959C10.2481 12.479 10.7686 11.5191 11.2289 10.7991C11.6893 10.0792 12.51 9.01926 13.0504 8.41931Z" fill="white"/>
</g>
</g>
</svg>
