<svg width="22" height="21" viewBox="0 0 22 21" fill="none" xmlns="http://www.w3.org/2000/svg">
<g id="download 3_layerstyle">
<g id="Group">
<g id="Vector">
<path d="M14.9492 0.784C14.9304 0.597333 15.0241 0.354667 15.174 0.224C15.3238 0.0933333 15.6985 0 16.0169 0C16.3167 0 17.3845 0.205333 18.3586 0.448C19.3327 0.690667 20.3631 0.989333 20.6441 1.10133C21.0937 1.26933 21.1686 1.41867 21.1686 1.99733C21.1686 2.38933 20.9625 3.54667 20.7003 4.57333C20.4193 5.6 20.0821 6.62667 19.9322 6.85067C19.7823 7.09333 19.5201 7.28 19.3327 7.28C19.1641 7.29867 18.8644 7.14933 18.6771 6.96267C18.3586 6.64533 18.3586 6.57067 18.7333 5.22667C18.9581 4.46133 19.0705 3.808 19.0143 3.77067C18.9581 3.752 18.1338 4.18133 17.1971 4.74133C16.2417 5.30133 14.4059 6.272 13.1133 6.888C11.8207 7.504 9.92863 8.288 8.8983 8.64267C7.86797 8.99733 5.82605 9.59467 4.36485 9.968C2.36039 10.472 1.59233 10.584 1.31133 10.4533C1.10526 10.36 0.936664 10.08 0.936664 9.83733C0.91793 9.61333 1.03033 9.33333 1.16146 9.20267C1.2926 9.072 2.37913 8.71733 3.55932 8.4C4.73952 8.08267 6.65031 7.52267 7.77431 7.168C8.8983 6.81333 11.2587 5.80533 13.0196 4.94667C14.7618 4.06933 16.6726 3.08 18.2649 2.09067L16.8787 1.848C16.1106 1.69867 15.3613 1.47467 15.2302 1.344C15.099 1.232 14.9679 0.970667 14.9492 0.784Z" fill="white"/>
<path d="M13.9376 9.72533C14.4621 9.16533 14.6494 9.09067 15.8296 8.97867C16.5415 8.904 17.6842 8.88533 18.3586 8.92267C19.033 8.96 19.8198 9.14667 20.1195 9.31467C20.4193 9.48267 20.8127 9.912 21 10.2667C21.3185 10.8453 21.3559 11.368 21.3559 15.0267C21.3559 18.7973 21.3185 19.1893 20.9813 19.7307C20.7752 20.0667 20.3818 20.496 20.1008 20.664C19.6325 20.9813 18.8457 21 10.5843 21C2.54772 21 1.53613 20.9627 1.124 20.6827C0.861731 20.5147 0.505798 20.0853 0.318466 19.712C0.1124 19.264 0 18.6107 0 17.7707C0.0187333 16.8747 0.1124 16.352 0.355932 15.96C0.561998 15.6427 0.955397 15.2693 1.2364 15.12C1.61106 14.9147 2.36039 14.84 6.51918 14.84L6.63158 14.1307C6.68778 13.7573 6.89384 13.216 7.06244 12.9547C7.24978 12.6747 7.66191 12.3387 7.96164 12.1707C8.37377 11.9653 9.1231 11.9093 13.1133 11.9467L13.2444 11.144C13.3194 10.64 13.5629 10.136 13.9376 9.72533Z" fill="white"/>
</g>
<g id="Vector_2">
<path d="M14.7805 14.5041C14.7805 12.5068 14.8367 11.2375 14.9678 10.9948C15.1551 10.6775 15.3987 10.6401 17.1971 10.6401C18.5646 10.6401 19.2765 10.7148 19.445 10.8641C19.6136 11.0508 19.6698 12.1148 19.6698 19.0401L19.2015 19.2268C18.9393 19.3201 17.9089 19.4135 15.0802 19.4135L14.9303 18.5361C14.8554 18.0321 14.7805 16.2215 14.7805 14.5041Z" fill="#79C2C2"/>
<path d="M8.26129 16.8375C8.20509 15.1388 8.24255 14.2615 8.41115 14.0001C8.59848 13.6641 8.84202 13.6268 10.6404 13.6268C12.0454 13.6081 12.7198 13.6828 12.8697 13.8508C13.0383 14.0188 13.0945 14.8401 13.0195 19.3201H8.33622L8.26129 16.8375Z" fill="#79C2C2"/>
<path d="M1.64844 17.9201C1.62971 17.0055 1.68591 16.7815 1.98564 16.6321C2.17297 16.5201 3.18457 16.4268 4.2149 16.4268C5.52623 16.4081 6.16316 16.4828 6.33176 16.6508C6.48163 16.8001 6.53782 17.3228 6.46289 19.3201L4.4397 19.3575C3.33444 19.3948 2.26664 19.3201 2.06057 19.2268C1.76084 19.0775 1.68591 18.8348 1.64844 17.9201Z" fill="#79C2C2"/>
</g>
</g>
</g>
</svg>
