<svg width="59" height="59" viewBox="0 0 59 59" fill="none" xmlns="http://www.w3.org/2000/svg">
<g id="div.CuHomeTabs_svgContainer__TQmy5">
<rect width="59" height="59" fill="#F8F8FC"/>
<g id="check-square--check-form-validation-checkmark-success-add-addition-box-square-tick">
<path id="Intersect_2" d="M18.6226 35.7396C18.7686 37.0332 19.3486 38.2392 20.268 39.161C21.1874 40.0827 22.3919 40.6658 23.6852 40.8151C25.6529 41.0358 27.6703 41.2233 29.7299 41.2233C31.7895 41.2233 33.8087 41.0358 35.7746 40.8151C37.0678 40.6658 38.2724 40.0827 39.1918 39.161C40.1112 38.2392 40.6912 37.0332 40.8372 35.7396C41.0469 33.7847 41.2234 31.7766 41.2234 29.7298C41.2234 27.6831 41.0469 25.6749 40.8372 23.7183C40.6912 22.4246 40.1112 21.2186 39.1918 20.2969C38.2724 19.3751 37.0678 18.7921 35.7746 18.6427C33.8069 18.4257 31.7895 18.2363 29.7299 18.2363C27.6703 18.2363 25.6511 18.4239 23.6852 18.6446C22.3919 18.7939 21.1874 19.377 20.268 20.2987C19.3486 21.2204 18.7686 22.4265 18.6226 23.7201C18.4129 25.6731 18.2364 27.6812 18.2364 29.7298C18.2364 31.7784 18.4129 33.7847 18.6226 35.7396Z" fill="#6464F8" fill-opacity="0.2" stroke="#6161FF" stroke-width="2.14545" stroke-linecap="round" stroke-linejoin="round"/>
<path id="Vector" d="M25.1323 30.8793L28.4756 34.3274C30.0497 29.8072 31.359 27.8248 34.3271 25.1326" stroke="#6161FF" stroke-width="2.14545" stroke-linecap="round" stroke-linejoin="round"/>
</g>
</g>
</svg>
