<svg width="41" height="42" viewBox="0 0 41 42" fill="none" xmlns="http://www.w3.org/2000/svg">
<g id="essential">
<path id="Vector" fill-rule="evenodd" clip-rule="evenodd" d="M23.6251 10.6326C23.2443 10.818 22.6786 11.1995 22.3522 11.483C22.0258 11.7664 21.5798 12.2679 21.3622 12.595C21.1446 12.922 20.8617 13.4344 20.742 13.7397C20.6115 14.034 20.4483 14.6009 20.3721 14.9934C20.296 15.4185 20.2633 16.0508 20.3069 16.5741L20.3721 17.4463C18.9904 17.3263 18.218 17.2064 17.7719 17.1083C17.3259 17.0102 16.4882 16.7921 15.9224 16.6068C15.3567 16.4324 14.3014 15.9963 13.5833 15.6366C12.8653 15.2768 11.81 14.6554 11.2443 14.252C10.6785 13.8487 9.6885 12.9983 9.04661 12.3442C8.39384 11.701 7.84987 11.1886 7.82811 11.1995C7.80635 11.2213 7.70844 11.4067 7.59964 11.6138C7.49085 11.8209 7.32765 12.2352 7.24062 12.5405C7.1427 12.8675 7.06655 13.4998 7.06655 14.1212C7.06655 14.7971 7.13182 15.3858 7.26238 15.811C7.37117 16.1707 7.61052 16.7594 7.79547 17.1083C7.9913 17.4681 8.44824 18.0677 8.82902 18.4492C9.19892 18.8308 9.47091 19.1578 9.42739 19.1796C9.373 19.2014 9.10101 19.1796 8.79638 19.1251C8.50264 19.0706 7.96954 18.8962 7.63228 18.7545L7.00127 18.4819C7.00127 19.1142 7.07743 19.6048 7.16446 19.9755C7.2515 20.357 7.46909 20.9457 7.64316 21.2837C7.80635 21.6325 8.24153 22.2321 8.58967 22.6137C8.94869 22.9953 9.48179 23.4749 9.77554 23.6603C10.0802 23.8456 10.6024 24.1181 10.9505 24.2708C11.3204 24.4234 11.5271 24.5651 11.4619 24.6196C11.3966 24.6632 10.8635 24.7068 10.2651 24.6959C9.18804 24.6959 9.17716 24.6959 9.24244 24.9358C9.28596 25.0775 9.43827 25.4263 9.59058 25.7316C9.75378 26.0259 10.2216 26.6255 10.6459 27.0616C11.2334 27.6612 11.6033 27.9338 12.2778 28.2499C12.7783 28.4897 13.4637 28.7078 13.888 28.7732C14.2905 28.8386 14.606 28.9367 14.5843 29.0021C14.5625 29.0675 14.1382 29.3728 13.6269 29.6889C13.1264 30.0051 12.3213 30.4194 11.8426 30.5938C11.3639 30.7791 10.6024 31.0299 10.1563 31.1498C9.60146 31.3024 8.80726 31.3896 7.68668 31.4441C6.78368 31.4768 6.06564 31.5422 6.0874 31.5858C6.10915 31.6404 6.68577 31.9456 7.36029 32.2836C8.02394 32.6215 9.06837 33.0576 9.66674 33.2647C10.2651 33.461 11.1463 33.7008 11.625 33.7989C12.1037 33.897 13.0067 34.0278 13.6377 34.0933C14.2688 34.1587 15.3132 34.1696 15.9768 34.1369C16.6405 34.0933 17.5217 34.0169 17.9351 33.9515C18.3486 33.8861 19.1863 33.7117 19.7846 33.5591C20.383 33.4064 21.2643 33.1121 21.7429 32.9268C22.2216 32.7305 22.8635 32.4471 23.1573 32.3054C23.4619 32.1527 24.2343 31.6622 24.898 31.2261C25.6813 30.7028 26.4973 30.0269 27.2371 29.2747C27.8681 28.6424 28.7058 27.6612 29.1192 27.0943C29.5218 26.5274 30.1637 25.4154 30.5553 24.6414C30.9361 23.8674 31.393 22.7772 31.578 22.243C31.7521 21.7088 32.0023 20.7713 32.1328 20.1717C32.2634 19.5612 32.3939 18.3947 32.4375 17.5117L32.5136 15.9527C33.5798 15.0806 34.2108 14.4592 34.5916 14.0122C34.9724 13.5652 35.2879 13.1292 35.2879 13.0528C35.2879 12.9656 34.9833 13.0201 34.2761 13.26C33.7321 13.4453 33.0358 13.6197 32.7312 13.6524C32.4266 13.6851 32.209 13.6851 32.2416 13.6524C32.2743 13.6306 32.5136 13.4126 32.7856 13.1946C33.0576 12.9656 33.4493 12.5514 33.6777 12.2788C33.8953 12.0063 34.1999 11.5048 34.3522 11.1777C34.5046 10.8507 34.6025 10.5672 34.5807 10.5454C34.5481 10.5345 34.3414 10.6217 34.1129 10.7308C33.8953 10.8398 33.3405 11.0796 32.8944 11.265C32.4483 11.4394 31.8065 11.6465 31.4801 11.7228L30.8817 11.8645C29.9569 11.145 29.4021 10.7962 29.0539 10.6217C28.7167 10.4473 28.1509 10.2293 27.8137 10.1421C27.4655 10.0549 26.8128 9.97854 26.3667 9.98944C25.9207 9.98944 25.2679 10.0658 24.9306 10.153C24.5825 10.2402 23.995 10.4582 23.6251 10.6326Z" fill="#1D9BF0"/>
</g>
</svg>
