<svg width="54" height="54" viewBox="0 0 54 54" fill="none" xmlns="http://www.w3.org/2000/svg">
<g id="SVG">
<path id="Vector" d="M49.5419 22.2539H29.7655C28.8933 22.2539 28.1875 22.96 28.1875 23.8319V30.1542C28.1875 31.0261 28.8933 31.7322 29.7655 31.7322H40.9045C39.69 34.8985 37.4062 37.5458 34.5096 39.2276L39.2539 47.4497C46.8636 43.048 51.369 35.3138 51.369 26.666C51.369 25.4307 51.2758 24.5481 51.0993 23.5619C50.9538 22.804 50.2998 22.2539 49.5419 22.2539Z" fill="#4285F4"/>
<path id="Vector_2" d="M27.1285 41.2205C21.6783 41.2205 16.9236 38.2411 14.3698 33.8394L6.14771 38.5733C10.3314 45.83 18.1694 50.7092 27.1285 50.7092C31.5302 50.7092 35.6724 49.5257 39.254 47.4598V47.4494L34.5097 39.2273C32.3297 40.4939 29.8174 41.2205 27.1285 41.2205Z" fill="#34A853"/>
<path id="Vector_3" d="M39.244 47.46V47.4496L34.4996 39.2275C32.3299 40.4837 29.8175 41.2208 27.1287 41.2208V50.7092C31.5304 50.7092 35.6728 49.5259 39.244 47.46Z" fill="#34A853"/>
<path id="Vector_4" d="M12.3763 26.4684C12.3763 23.7798 13.1134 21.2674 14.3696 19.0977L6.14747 14.3638C4.07119 17.9246 2.8877 22.0564 2.8877 26.4684C2.8877 30.8806 4.07119 35.0123 6.14747 38.5733L14.3696 33.8394C13.103 31.6697 12.3763 29.1573 12.3763 26.4684Z" fill="#FABB05"/>
<path id="Vector_5" d="M27.1285 11.7166C30.6791 11.7166 33.9491 12.9832 36.4927 15.0802C37.1259 15.5993 38.0394 15.5578 38.6104 14.9868L43.0848 10.5124C43.7388 9.85838 43.6869 8.7891 42.9913 8.18696C38.7247 4.47043 33.1706 2.22803 27.1285 2.22803C18.1694 2.22803 10.3314 7.10729 6.14771 14.3639L14.3698 19.0978C16.9236 14.6961 21.6783 11.7166 27.1285 11.7166Z" fill="#E83C2C"/>
<path id="Vector_6" d="M36.4929 15.0802C37.1261 15.5993 38.0396 15.5578 38.6106 14.9868L43.0849 10.5124C43.7389 9.85838 43.6871 8.7891 42.9915 8.18696C38.7248 4.47043 33.1708 2.22803 27.1287 2.22803V11.7166C30.6793 11.7166 33.9493 12.9728 36.4929 15.0802Z" fill="#E83C2C"/>
</g>
</svg>
